{"glyphs":{"A":{"ha":697,"x_min":0,"x_max":0,"o":"m 569 372 l 594 347 l 608 338 l 621 331 l 628 301 l 619 289 l 610 269 l 601 256 l 589 239 l 588 206 l 586 190 l 594 175 l 593 157 l 597 139 l 582 114 l 569 110 l 553 103 l 532 97 l 515 89 l 492 68 l 482 54 l 475 39 l 464 22 l 456 8 l 429 0 l 413 1 l 397 10 l 379 15 l 364 25 l 331 25 l 315 17 l 296 10 l 279 4 l 265 0 l 236 7 l 229 24 l 222 39 l 213 50 l 207 67 l 185 88 l 168 96 l 151 97 l 140 107 l 122 110 l 106 117 l 96 135 l 97 150 l 104 169 l 107 186 l 108 199 l 111 214 l 106 244 l 96 263 l 88 276 l 75 290 l 69 303 l 71 329 l 86 339 l 100 351 l 113 358 l 124 372 l 142 399 l 146 413 l 146 429 l 151 446 l 153 461 l 156 476 l 172 492 l 192 490 l 208 493 l 221 493 l 242 492 l 257 493 l 283 504 l 294 517 l 310 528 l 319 540 l 332 551 l 357 551 l 374 539 l 385 524 l 399 513 l 411 503 l 436 493 l 456 490 l 472 493 l 488 493 l 519 490 l 538 475 l 543 458 l 546 446 l 549 428 l 549 414 l 551 394 z m 504 463 l 499 461 l 504 458 l 510 457 l 510 461 z m 304 457 l 301 460 l 297 457 l 293 457 l 289 458 l 285 457 l 285 454 l 286 453 l 290 450 l 296 451 l 303 453 z m 358 446 l 358 450 l 356 453 l 353 447 l 353 444 l 356 444 z m 253 431 l 251 438 l 251 440 l 250 442 l 244 443 l 242 438 l 247 425 l 258 425 z m 194 436 l 192 439 l 188 438 l 189 435 l 199 435 l 203 440 z m 447 440 l 443 439 l 442 433 l 436 429 l 442 426 l 447 429 l 453 429 l 454 431 l 453 438 z m 276 407 l 278 403 l 282 403 l 285 404 l 285 408 l 282 411 l 278 414 l 276 410 z m 425 408 l 421 408 l 418 404 l 417 399 l 415 394 l 410 390 l 406 385 l 407 383 l 408 383 l 415 388 l 419 394 l 419 399 l 422 401 l 426 401 l 428 404 l 426 407 z m 183 400 l 178 406 l 172 406 l 171 401 l 174 397 l 179 397 z m 440 392 l 438 389 l 439 388 l 444 388 l 444 389 l 443 392 z m 328 388 l 325 385 l 318 383 l 314 385 l 311 381 l 311 375 l 315 372 l 318 368 l 321 371 l 326 375 l 331 382 l 332 385 l 332 388 z m 276 349 l 279 351 l 275 351 l 272 349 z m 304 325 l 303 326 l 300 326 l 299 324 l 300 322 l 303 322 z m 176 294 l 176 288 l 182 282 l 185 282 l 186 285 l 183 290 z m 232 204 l 226 207 l 222 203 l 222 194 l 231 192 l 236 186 l 242 188 l 242 197 z m 281 176 l 272 174 l 279 168 l 288 168 l 289 171 l 289 174 z m 256 158 l 251 154 l 251 146 l 258 139 l 263 149 l 260 157 z m 307 103 l 303 100 l 303 94 l 306 93 l 310 96 l 313 99 l 314 103 l 310 104 z m 358 74 l 360 76 l 360 81 l 356 82 l 351 78 l 353 75 l 356 72 z m 288 47 l 285 47 l 283 44 l 288 39 l 294 35 l 294 43 z "},"B":{"ha":697,"x_min":0,"x_max":0,"o":"m 608 378 l 608 357 l 606 340 l 599 325 l 606 293 l 611 276 l 622 263 l 628 249 l 622 217 l 614 203 l 601 194 l 592 181 l 574 151 l 575 131 l 569 118 l 567 99 l 549 79 l 536 72 l 515 69 l 499 65 l 474 47 l 460 32 l 450 22 l 438 8 l 411 0 l 394 3 l 381 7 l 365 15 l 329 13 l 282 1 l 254 8 l 244 18 l 232 33 l 222 49 l 192 64 l 179 69 l 158 75 l 146 81 l 128 99 l 122 115 l 122 131 l 121 150 l 104 181 l 96 194 l 69 219 l 69 249 l 72 264 l 83 278 l 90 296 l 94 324 l 90 344 l 86 361 l 83 375 l 99 403 l 111 410 l 129 418 l 143 432 l 161 457 l 168 469 l 176 488 l 186 500 l 206 515 l 226 514 l 240 517 l 261 514 l 292 528 l 306 532 l 319 544 l 332 551 l 360 554 l 375 544 l 390 532 l 406 525 l 438 517 l 450 514 l 488 517 l 513 500 l 519 488 l 524 471 l 531 456 l 554 429 l 567 421 l 581 410 l 596 404 z m 204 449 l 201 444 l 201 438 l 206 442 l 208 447 l 206 447 z m 219 381 l 221 385 l 219 388 l 213 388 l 208 383 l 208 379 l 214 376 l 217 369 l 219 374 z m 256 367 l 254 364 l 254 363 l 256 361 l 258 364 l 258 367 l 257 368 z m 246 344 l 242 346 l 240 350 l 240 353 l 239 356 l 236 356 l 233 353 l 233 349 l 236 346 l 244 340 l 247 333 l 251 329 l 253 329 l 254 331 l 251 339 z m 176 300 l 174 297 l 178 293 l 181 293 l 181 299 z m 240 250 l 235 254 l 232 257 l 231 257 l 229 254 l 231 251 l 231 244 l 228 240 l 231 236 l 236 235 l 240 238 l 244 239 l 244 243 z m 158 233 l 158 239 l 160 246 l 156 249 l 153 246 l 154 242 l 154 238 l 150 235 l 151 231 l 153 229 l 154 231 z m 199 218 l 194 217 l 192 213 l 194 210 l 201 210 l 203 214 l 201 217 z m 282 215 l 282 211 l 283 210 l 285 210 l 286 211 l 286 214 l 283 215 z m 538 206 l 533 207 l 532 204 l 531 203 l 535 199 l 538 199 l 540 200 l 540 203 z m 250 194 l 253 190 l 253 194 l 251 197 z m 168 193 l 157 193 l 154 188 l 158 183 l 171 185 l 175 196 z m 550 175 l 550 171 l 553 169 l 560 172 l 565 178 l 556 179 z m 504 165 l 501 167 l 497 164 l 499 161 l 500 156 l 506 154 l 507 158 l 507 163 z m 425 161 l 421 154 l 421 146 l 428 151 l 431 158 l 428 161 z m 147 142 l 147 138 l 144 135 l 144 132 l 147 132 l 150 136 l 151 142 l 146 146 z m 433 129 l 432 125 l 435 121 l 443 118 l 451 124 l 443 131 z m 382 115 l 378 110 l 381 104 l 389 103 l 394 110 l 400 114 l 400 119 l 392 122 z m 176 115 l 174 114 l 171 108 l 175 106 l 181 107 l 181 118 z m 285 90 l 281 85 l 288 82 l 294 86 l 294 89 l 293 92 z "},"C":{"ha":617,"x_min":0,"x_max":0,"o":"m 86 558 l 119 558 l 138 560 l 156 558 l 169 556 l 189 557 l 203 557 l 221 560 l 276 556 l 289 558 l 325 556 l 344 556 l 363 558 l 375 557 l 397 556 l 410 556 l 428 558 l 463 556 l 479 560 l 500 558 l 518 560 l 533 556 l 547 549 l 547 538 l 546 524 l 544 507 l 543 488 l 539 472 l 539 450 l 536 435 l 531 419 l 525 400 l 526 385 l 518 369 l 517 350 l 510 336 l 510 319 l 506 299 l 497 283 l 493 268 l 486 253 l 481 236 l 478 219 l 468 201 l 453 171 l 449 158 l 438 144 l 431 128 l 419 117 l 410 101 l 403 92 l 388 74 l 379 64 l 369 50 l 356 40 l 344 28 l 335 17 l 319 1 l 300 0 l 289 11 l 275 21 l 263 35 l 256 49 l 240 60 l 229 74 l 219 85 l 208 100 l 200 117 l 186 131 l 178 144 l 168 157 l 164 172 l 146 201 l 142 217 l 139 236 l 131 251 l 128 265 l 121 282 l 114 296 l 113 311 l 107 326 l 101 347 l 100 363 l 96 375 l 93 394 l 89 408 l 83 424 l 82 444 l 78 458 l 76 476 l 72 492 l 74 510 l 71 524 l 69 542 z m 360 499 l 357 494 l 357 489 l 361 493 l 364 499 z m 375 432 l 376 436 l 375 439 l 368 439 l 364 435 l 364 431 l 369 428 l 372 421 l 375 425 z m 411 418 l 410 415 l 410 413 l 413 413 l 414 415 l 414 418 z m 401 396 l 397 397 l 396 400 l 397 404 l 394 407 l 389 404 l 389 400 l 392 396 l 400 390 l 403 385 l 407 381 l 408 381 l 410 382 l 407 390 z m 333 351 l 331 350 l 329 349 l 333 344 l 336 344 l 336 350 z m 396 301 l 390 306 l 388 308 l 386 308 l 385 306 l 386 303 l 386 294 l 383 290 l 388 288 l 392 286 l 396 289 l 400 290 l 400 294 z m 314 285 l 314 290 l 315 297 l 311 300 l 308 297 l 310 293 l 310 289 l 306 286 l 307 281 l 311 281 z m 354 269 l 350 267 l 347 264 l 350 261 l 353 260 l 357 261 l 358 265 z m 439 267 l 438 265 l 438 263 l 439 260 l 442 263 l 442 265 z m 406 244 l 408 242 l 408 246 l 407 249 z m 324 244 l 313 244 l 310 239 l 314 235 l 326 236 l 331 247 z m 303 193 l 303 189 l 300 186 l 300 183 l 303 183 l 306 186 l 307 193 l 301 197 z m 332 167 l 329 164 l 328 160 l 331 157 l 336 158 l 336 168 z "},"D":{"ha":619,"x_min":0,"x_max":0,"o":"m 447 511 l 479 519 l 497 522 l 510 528 l 528 539 l 542 547 l 550 554 l 549 539 l 550 524 l 544 507 l 542 474 l 539 453 l 535 438 l 533 422 l 528 406 l 525 388 l 519 369 l 517 351 l 514 335 l 511 319 l 504 304 l 500 285 l 492 268 l 490 253 l 481 239 l 475 222 l 472 204 l 458 178 l 449 161 l 440 144 l 431 131 l 419 117 l 413 103 l 401 90 l 393 76 l 382 67 l 367 53 l 356 42 l 344 29 l 335 18 l 324 4 l 303 0 l 290 11 l 276 25 l 268 36 l 253 49 l 243 63 l 233 74 l 218 89 l 208 104 l 200 118 l 189 131 l 181 144 l 169 161 l 165 174 l 150 206 l 142 221 l 138 239 l 135 254 l 126 269 l 124 285 l 117 297 l 114 315 l 106 331 l 101 349 l 99 367 l 99 379 l 92 397 l 92 414 l 85 431 l 82 446 l 78 464 l 81 476 l 76 494 l 76 510 l 69 525 l 69 544 l 79 547 l 108 529 l 122 525 l 138 518 l 158 514 l 171 511 l 207 511 l 222 515 l 238 515 l 256 524 l 272 531 l 283 539 l 300 549 l 321 547 l 338 536 l 351 532 l 364 524 l 383 519 l 399 515 l 413 513 z m 176 421 l 172 422 l 169 417 l 169 411 l 174 415 z m 450 411 l 444 414 l 443 413 l 443 410 l 444 407 l 449 407 l 450 408 z m 458 388 l 457 385 l 460 383 l 465 385 l 471 390 l 464 390 z m 421 381 l 418 381 l 415 379 l 417 372 l 421 371 l 424 374 l 422 376 z m 360 374 l 354 376 l 351 371 l 351 364 l 357 368 z m 192 342 l 194 339 l 197 344 l 194 351 l 196 356 l 193 358 l 188 357 l 183 353 l 185 347 l 190 346 z m 363 350 l 361 346 l 363 343 l 369 340 l 376 346 l 369 350 z m 236 339 l 238 340 l 238 344 l 233 344 l 233 339 z m 326 344 l 315 333 l 318 329 l 325 328 l 329 333 l 335 338 l 335 342 z m 240 311 l 247 314 l 247 317 l 246 318 l 239 317 l 238 315 l 236 317 l 233 318 l 229 321 l 225 321 l 222 324 l 222 328 l 219 329 l 217 328 l 215 325 l 215 321 l 219 319 l 229 317 l 232 314 l 233 311 l 239 308 l 242 310 z m 181 253 l 178 253 l 174 249 l 178 246 l 181 244 l 183 247 l 183 249 z m 311 242 l 313 240 l 314 240 l 314 244 l 311 243 z m 263 235 l 260 236 l 253 236 l 249 238 l 247 236 l 247 233 l 251 229 l 254 225 l 256 221 l 257 219 l 260 219 l 265 222 l 265 225 l 267 226 l 269 231 l 267 233 z m 301 211 l 299 211 l 300 208 l 304 208 z m 217 161 l 217 169 l 208 178 l 206 183 l 201 185 l 201 179 l 203 176 l 206 175 l 208 169 l 208 167 l 210 164 l 214 160 l 215 160 z m 251 174 l 254 175 l 257 179 l 254 183 l 249 183 l 247 181 l 247 172 z m 254 146 l 254 138 l 250 131 l 247 128 l 249 126 l 250 124 l 254 121 l 261 122 l 264 129 l 265 135 z m 365 119 l 353 119 l 353 118 l 354 115 l 357 113 l 364 111 l 368 115 z m 326 90 l 318 93 l 311 89 l 322 89 l 326 85 l 332 83 l 332 88 z "},"E":{"ha":715,"x_min":0,"x_max":0,"o":"m 638 500 l 646 486 l 622 472 l 604 481 l 585 461 l 574 451 l 563 436 l 558 422 l 553 406 l 550 390 l 550 343 l 553 329 l 557 314 l 561 294 l 568 281 l 575 264 l 583 254 l 590 236 l 597 211 l 594 196 l 592 178 l 588 160 l 581 146 l 571 129 l 564 113 l 554 97 l 544 88 l 532 71 l 519 60 l 489 44 l 469 39 l 453 32 l 438 31 l 422 24 l 406 21 l 372 13 l 343 8 l 325 15 l 308 19 l 294 25 l 275 26 l 260 32 l 243 38 l 225 44 l 196 61 l 185 74 l 169 82 l 160 94 l 151 111 l 133 142 l 126 158 l 121 172 l 119 190 l 117 208 l 124 231 l 128 250 l 136 265 l 142 276 l 150 294 l 156 310 l 160 328 l 163 343 l 167 360 l 165 390 l 163 406 l 156 421 l 150 439 l 136 450 l 125 464 l 106 481 l 89 472 l 69 483 l 74 500 l 100 518 l 122 551 l 126 558 l 144 556 l 158 547 l 196 551 l 211 554 l 225 556 l 242 561 l 257 565 l 290 565 l 307 561 l 324 558 l 342 556 l 372 557 l 386 561 l 404 561 l 422 568 l 458 565 l 471 565 l 486 558 l 503 556 l 521 550 l 554 547 l 571 553 l 586 558 l 594 549 l 611 518 z m 240 490 l 232 489 l 238 483 l 244 482 l 247 483 l 247 486 z m 393 451 l 385 449 l 379 443 l 388 442 l 394 446 l 394 449 z m 324 444 l 322 439 l 326 432 l 335 433 l 343 432 l 347 436 l 342 444 z m 378 407 l 388 406 l 386 417 l 378 421 l 374 419 l 374 415 z m 504 414 l 500 413 l 499 408 l 503 406 l 506 404 l 507 407 l 506 411 z m 450 406 l 447 403 l 446 397 l 449 393 l 453 394 l 456 403 l 453 406 z m 201 381 l 197 382 l 194 379 l 193 376 l 193 368 l 199 374 z m 508 363 l 506 360 l 507 357 l 514 354 l 522 356 l 515 363 z m 224 281 l 225 285 l 226 288 l 224 296 l 225 301 l 222 304 l 215 303 l 210 297 l 211 292 l 218 289 z m 274 281 l 275 282 l 276 285 l 276 288 l 274 289 l 271 288 l 271 282 z m 275 254 l 269 257 l 265 258 l 260 258 l 257 263 l 257 267 l 254 269 l 250 268 l 249 265 l 249 260 l 253 257 l 267 253 l 268 250 l 271 247 l 274 246 l 278 243 l 281 246 z m 207 176 l 203 176 l 200 174 l 199 171 l 203 169 l 207 167 l 210 169 l 210 172 z m 364 164 l 365 161 l 368 163 l 369 164 l 369 165 l 368 167 l 365 165 z m 303 156 l 301 156 l 297 157 l 293 157 l 290 158 l 288 157 l 288 153 l 292 150 l 293 149 l 296 143 l 297 138 l 300 138 l 303 136 l 308 140 l 311 146 l 314 150 l 311 153 z m 354 126 l 350 126 l 351 124 l 357 124 z m 499 99 l 490 100 l 483 100 l 488 92 l 490 90 l 497 89 l 500 90 l 503 93 l 500 96 z m 236 75 l 231 83 l 228 85 l 226 86 l 225 89 l 224 93 l 218 94 l 217 88 l 221 85 l 222 83 l 225 79 l 226 76 l 226 74 l 228 69 l 231 67 l 232 64 l 236 64 z m 293 81 l 296 82 l 299 88 l 296 92 l 294 92 l 292 93 l 288 92 l 288 89 l 286 86 l 288 83 l 288 81 z m 369 49 l 364 51 l 360 53 l 351 49 l 350 49 l 364 47 l 369 43 l 376 42 l 376 46 z "},"F":{"ha":565,"x_min":0,"x_max":0,"o":"m 472 28 b 389 69 444 33 415 49 b 376 119 372 85 368 104 b 414 479 414 193 456 314 b 354 471 407 504 346 493 b 347 186 392 347 371 251 b 296 181 336 160 310 156 b 201 396 257 243 224 317 b 206 435 197 410 200 425 l 211 446 l 222 469 b 272 761 279 578 338 699 b 117 640 199 832 117 769 b 138 446 117 576 124 511 b 132 406 140 431 139 418 b 103 63 74 286 42 163 b 294 26 140 4 214 -26 b 343 25 313 38 329 38 b 476 -28 385 -11 428 -29 b 494 17 490 -26 499 -1 b 472 28 493 24 485 25 z m 172 672 b 224 725 176 715 197 738 b 194 518 268 703 229 581 l 193 517 b 179 518 192 514 185 507 b 171 571 175 529 172 551 b 172 672 168 606 169 639 z m 214 63 b 136 231 149 67 126 143 b 188 269 142 279 174 306 b 265 114 210 211 235 158 b 253 65 278 96 275 72 b 214 63 240 63 228 63 z "},"G":{"ha":572,"x_min":0,"x_max":0,"o":"m 414 526 b 408 486 394 528 392 486 b 476 399 478 479 488 428 b 297 336 460 358 401 351 b 208 240 240 324 214 281 b 261 222 206 217 260 207 b 319 289 267 244 282 283 l 332 292 b 358 265 343 293 353 282 b 283 60 393 157 376 67 b 222 467 126 49 79 447 b 221 522 251 472 263 518 b 233 760 133 536 149 753 b 261 597 286 764 313 721 b 324 585 250 571 310 561 b 219 819 389 690 376 829 b 135 518 97 813 60 594 b 135 479 146 504 149 493 b 296 4 1 358 82 -42 b 426 274 465 39 454 179 b 447 311 422 290 428 304 b 532 375 488 322 517 338 b 414 526 572 463 511 522 z "},"H":{"ha":1153,"x_min":0,"x_max":0,"o":"m 429 250 b 454 222 440 242 447 235 b 861 204 517 103 728 125 b 900 204 875 213 886 213 b 1083 404 1021 138 1083 258 b 899 626 1083 575 1011 657 b 861 638 883 622 872 625 b 576 751 765 735 649 751 b 447 660 506 751 422 715 b 436 640 454 646 453 640 b 151 613 343 639 228 635 b 69 535 92 596 64 569 b 306 450 76 481 176 457 b 335 424 322 449 331 440 b 368 364 340 399 353 378 b 385 324 379 353 383 342 b 429 250 389 290 404 267 z m 1028 404 b 938 249 1028 286 1000 224 b 917 269 924 253 921 261 b 896 288 917 269 907 285 b 869 279 888 289 879 286 b 528 221 779 203 604 167 b 594 221 550 219 572 219 b 621 250 614 221 622 232 b 590 275 619 268 608 276 b 478 286 542 272 503 275 b 499 321 453 297 472 322 b 576 321 522 319 549 319 b 604 350 596 322 606 332 b 574 376 603 368 593 378 b 400 414 478 372 425 379 b 424 447 389 432 403 447 b 564 449 471 446 518 446 b 592 476 582 449 592 458 b 563 504 592 494 581 504 b 165 558 278 499 28 522 b 567 583 281 592 492 586 b 596 610 585 582 594 592 b 569 639 597 628 588 638 b 538 649 558 639 550 642 b 576 696 476 685 500 696 b 869 535 657 696 785 675 b 908 524 879 519 892 515 b 924 546 918 529 924 536 b 914 567 924 558 917 563 b 911 572 913 568 911 571 b 1028 404 986 592 1028 540 z "},"I":{"ha":1388,"x_min":0,"x_max":0,"o":"m 1301 417 b 1288 489 1328 435 1324 486 b 940 729 1147 499 1047 583 b 914 750 932 740 926 750 b 876 707 894 750 876 725 b 892 679 876 694 885 689 b 1186 461 967 576 1092 460 b 554 433 946 439 851 435 b 519 451 538 433 528 439 b 317 701 479 522 421 614 b 254 669 278 735 226 689 b 443 467 351 603 403 529 b 424 433 456 447 447 433 l 385 435 b 350 450 369 435 360 439 b 143 639 300 501 235 569 b 101 596 110 664 83 608 b 249 479 163 551 210 514 b 231 444 268 461 258 442 b 113 463 185 450 144 457 b 89 400 86 463 79 418 b 118 389 94 389 106 390 b 239 381 151 383 193 382 b 251 343 267 379 274 358 b 82 240 206 311 151 275 b 125 201 49 224 86 182 b 356 361 208 242 294 314 b 390 372 367 369 376 374 l 411 372 b 421 338 433 372 438 356 b 264 204 383 299 333 256 b 307 163 225 175 271 136 b 513 354 403 232 471 300 b 547 369 522 365 532 369 b 1114 400 832 361 929 374 b 1126 367 1142 404 1150 382 b 854 201 1044 311 940 243 b 896 142 818 183 865 128 b 1301 417 1069 246 1203 347 z "},"J":{"ha":1388,"x_min":0,"x_max":0,"o":"m 86 417 b 492 142 185 347 318 246 b 533 201 522 128 569 183 b 261 367 447 243 343 311 b 274 400 238 382 246 404 b 840 369 458 374 556 361 b 875 354 856 369 865 365 b 1081 163 917 300 985 232 b 1124 204 1117 136 1163 175 b 967 338 1054 256 1004 299 b 976 372 950 356 954 372 l 997 372 b 1032 361 1011 374 1021 369 b 1263 201 1093 314 1179 242 b 1306 240 1301 182 1339 224 b 1136 343 1236 275 1182 311 b 1149 381 1114 358 1121 379 b 1269 389 1194 382 1236 383 b 1299 400 1282 390 1293 389 b 1275 463 1308 418 1301 463 b 1157 444 1243 457 1203 450 b 1139 479 1129 442 1119 461 b 1286 596 1178 514 1225 551 b 1244 639 1304 608 1278 664 b 1038 450 1153 569 1088 501 b 1003 435 1028 439 1018 435 l 964 433 b 944 467 940 433 932 447 b 1133 669 985 529 1036 603 b 1071 701 1161 689 1110 735 b 868 451 967 614 908 522 b 833 433 860 439 850 433 b 201 461 536 435 442 439 b 496 679 296 460 421 576 b 511 707 503 689 511 694 b 474 750 511 725 493 750 b 447 729 461 750 456 740 b 100 489 340 583 240 499 b 86 417 64 486 60 435 z "},"K":{"ha":1328,"x_min":0,"x_max":0,"o":"m 1254 246 b 1208 282 1271 272 1231 318 b 940 229 1149 208 1032 178 b 938 260 928 238 928 250 b 890 585 1053 393 1067 621 b 825 264 744 557 746 386 b 819 233 833 251 831 240 b 501 260 715 168 585 193 b 507 292 489 271 492 283 b 524 721 733 408 797 743 b 376 331 353 708 313 476 b 361 301 382 315 376 304 b 199 550 182 275 47 410 b 153 590 215 564 185 622 b 404 251 -54 389 158 190 b 433 243 415 254 425 251 b 861 193 535 138 715 97 b 892 192 871 200 881 200 b 1254 246 1006 108 1174 140 z m 536 667 b 467 338 721 672 647 425 b 435 346 453 329 440 332 b 536 667 383 457 410 664 z m 867 306 b 890 533 819 386 806 508 b 897 304 999 564 976 407 b 867 306 888 292 875 292 z "},"L":{"ha":1328,"x_min":0,"x_max":0,"o":"m 74 246 b 436 192 154 140 322 108 b 467 193 447 200 457 200 b 894 243 613 97 793 138 b 924 251 903 251 913 254 b 1175 590 1169 190 1382 389 b 1129 550 1143 622 1113 564 b 967 301 1281 410 1146 275 b 951 331 951 304 946 315 b 804 721 1015 476 975 708 b 821 292 531 743 594 408 b 826 260 836 283 839 271 b 508 233 743 193 613 168 b 503 264 497 240 494 251 b 438 585 582 386 583 557 b 390 260 261 621 275 393 b 388 229 400 250 400 238 b 119 282 296 178 179 208 b 74 246 97 318 57 272 z m 792 667 b 893 346 918 664 944 457 b 861 338 888 332 875 329 b 792 667 681 425 607 672 z m 461 306 b 431 304 453 292 440 292 b 438 533 351 407 329 564 b 461 306 522 508 508 386 z "},"M":{"ha":1208,"x_min":0,"x_max":0,"o":"m 901 344 b 928 358 910 349 919 353 b 958 372 939 364 947 368 b 1125 669 1056 410 1181 467 b 1111 693 1121 685 1115 692 b 1094 672 1107 694 1104 686 b 900 432 1053 611 893 639 b 881 396 900 415 894 403 b 642 386 778 347 701 356 b 649 411 619 397 625 407 b 763 476 683 418 721 436 b 764 511 779 492 779 506 b 735 525 751 515 743 515 b 497 558 706 560 628 663 b 457 558 482 546 469 546 l 456 558 b 88 626 344 658 169 649 b 72 592 71 622 65 608 b 108 576 79 576 92 572 b 239 586 140 583 188 589 b 258 551 258 585 265 571 b 383 278 208 399 335 325 b 418 264 394 268 404 263 l 424 264 b 456 286 439 265 449 271 b 479 424 479 340 485 385 b 497 433 476 447 481 450 b 658 319 539 389 592 343 b 686 290 674 315 682 307 b 956 122 738 96 894 175 b 976 131 974 106 978 106 b 899 311 969 225 939 279 b 901 344 882 324 882 335 z m 1079 543 b 988 444 1067 493 1032 465 b 953 467 968 435 953 446 b 1042 567 954 542 988 542 b 1079 543 1065 576 1085 567 z m 651 469 b 554 492 614 460 583 471 b 554 532 536 503 536 521 b 661 510 610 569 635 542 b 651 469 675 493 672 475 z m 386 356 b 303 507 339 394 290 432 b 343 531 308 535 328 544 b 422 368 396 490 435 444 b 386 356 419 347 403 342 z m 775 297 b 886 244 819 293 858 281 b 867 208 903 222 890 206 b 751 264 808 215 774 208 b 775 297 743 285 754 299 z "},"N":{"ha":1208,"x_min":0,"x_max":0,"o":"m 307 344 b 310 311 326 335 326 324 b 232 131 269 279 239 225 b 253 122 231 106 235 106 b 522 290 314 175 471 96 b 550 319 526 307 535 315 b 711 433 617 343 669 389 b 729 424 728 450 732 447 b 753 286 724 385 729 340 b 785 264 760 271 769 265 l 790 264 b 825 278 804 263 814 268 b 950 551 874 325 1000 399 b 969 586 943 571 950 585 b 1100 576 1021 589 1068 583 b 1136 592 1117 572 1129 576 b 1121 626 1143 608 1138 622 b 753 558 1039 649 864 658 l 751 558 b 711 558 739 546 726 546 b 474 525 581 663 503 560 b 444 511 465 515 457 515 b 446 476 429 506 429 492 b 560 411 488 436 525 418 b 567 386 583 407 589 397 b 328 396 507 356 431 347 b 308 432 314 403 308 415 b 114 672 315 639 156 611 b 97 693 104 686 101 694 b 83 669 93 692 88 685 b 250 372 28 467 153 410 b 281 358 261 368 269 364 b 307 344 289 353 299 349 z m 129 543 b 167 567 124 567 143 576 b 256 467 221 542 254 542 b 221 444 256 446 240 435 b 129 543 176 465 142 493 z m 557 469 b 547 510 536 475 533 493 b 654 532 574 542 599 569 b 654 492 672 521 672 503 b 557 469 625 471 594 460 z m 822 356 b 786 368 806 342 789 347 b 865 531 774 444 813 490 b 906 507 881 544 900 535 b 822 356 918 432 869 394 z m 433 297 b 457 264 454 299 465 285 b 342 208 435 208 400 215 b 322 244 318 206 306 222 b 433 297 350 281 389 293 z "},"O":{"ha":1154,"x_min":0,"x_max":0,"o":"m 546 582 b 575 475 526 547 540 494 l 593 467 b 621 446 606 464 617 460 b 624 419 624 436 625 428 b 586 411 622 399 603 396 b 460 493 550 447 510 478 b 429 514 446 497 439 503 b 263 579 393 558 328 589 b 226 592 247 576 238 581 b 172 615 211 606 192 615 b 92 535 132 615 92 575 b 107 490 92 519 97 504 b 104 457 118 476 117 468 b 69 386 83 439 69 413 b 165 290 69 338 117 290 b 261 386 214 290 261 338 b 260 399 261 390 261 394 b 279 422 258 408 264 415 b 450 439 351 453 404 454 b 467 408 472 431 467 408 b 428 406 453 401 442 400 b 404 408 419 407 413 408 b 308 313 356 408 308 361 b 404 217 308 264 356 217 b 500 313 453 217 500 264 b 496 336 500 321 499 328 b 513 368 492 351 494 364 b 529 371 518 369 524 371 b 563 356 543 371 553 365 b 664 254 593 324 625 288 b 1067 183 788 146 976 158 b 1082 219 1083 189 1089 203 b 1046 235 1075 235 1063 239 b 978 222 1028 229 1004 225 b 949 249 960 221 951 231 b 906 329 943 278 931 308 b 893 365 894 340 892 351 l 893 369 b 815 447 893 411 854 447 b 738 369 776 447 738 411 b 815 292 738 331 776 292 b 832 294 821 292 826 293 b 867 290 844 297 854 300 b 892 251 879 281 888 267 b 864 225 897 233 883 222 b 700 296 807 233 747 254 b 668 326 689 306 679 315 b 664 365 657 338 657 350 b 672 463 678 394 682 429 b 679 501 668 478 671 489 b 681 504 679 501 681 503 b 653 610 701 540 686 590 b 546 582 618 629 567 618 z m 625 563 b 633 532 636 556 639 543 b 603 522 626 519 614 517 b 590 538 596 526 592 532 b 606 565 589 550 594 561 b 625 563 611 567 618 567 z m 147 535 b 172 560 147 549 158 560 b 197 535 186 560 197 549 b 172 510 197 521 186 510 b 147 535 158 510 147 521 z m 310 490 b 250 469 292 485 271 478 b 219 463 233 461 224 460 b 235 488 215 465 222 472 l 243 500 b 271 525 250 513 257 522 b 314 524 286 528 300 526 b 310 490 340 518 336 499 z m 165 346 b 125 386 142 346 125 363 b 165 426 125 410 142 426 b 206 386 189 426 206 410 b 165 346 206 363 189 346 z m 793 369 b 815 392 793 383 801 392 b 838 369 829 392 838 383 b 815 347 838 357 828 347 b 793 369 803 347 793 357 z m 404 272 b 364 313 381 272 364 289 b 404 353 364 336 381 353 l 408 353 b 422 347 411 353 415 351 b 442 329 429 344 436 340 b 444 313 443 324 444 318 b 404 272 444 289 428 272 z "},"P":{"ha":1154,"x_min":0,"x_max":0,"o":"m 608 582 b 501 610 588 618 536 629 b 474 504 468 590 453 540 b 475 501 474 503 475 501 b 482 463 483 489 486 478 b 490 365 472 429 476 394 b 486 326 497 350 497 338 b 454 296 475 315 465 306 b 290 225 407 254 347 233 b 263 251 271 222 257 233 b 288 290 267 267 275 281 b 322 294 300 300 310 297 b 339 292 328 293 333 292 b 417 369 378 292 417 331 b 339 447 417 411 378 447 b 261 369 300 447 261 411 l 261 365 b 249 329 263 351 260 340 b 206 249 224 308 211 278 b 176 222 203 231 194 221 b 108 235 150 225 126 229 b 72 219 92 239 79 235 b 88 183 65 203 71 189 b 490 254 178 158 367 146 b 592 356 529 288 561 324 b 625 371 601 365 611 371 b 642 368 631 371 636 369 b 658 336 660 364 663 351 b 654 313 656 328 654 321 b 750 217 654 264 701 217 b 846 313 799 217 846 264 b 750 408 846 361 799 408 b 726 406 742 408 735 407 b 688 408 713 400 701 401 b 704 439 688 408 682 431 b 875 422 750 454 803 453 b 894 399 890 415 896 408 b 893 386 893 394 893 390 b 989 290 893 338 940 290 b 1085 386 1038 290 1085 338 b 1050 457 1085 413 1071 439 b 1047 490 1038 468 1036 476 b 1063 535 1057 504 1063 519 b 982 615 1063 575 1022 615 b 928 592 963 615 943 606 b 892 579 917 581 907 576 b 725 514 826 589 761 558 b 694 493 715 503 708 497 b 568 411 644 478 604 447 b 531 419 551 396 532 399 b 533 446 529 428 531 436 b 561 467 538 460 549 464 l 579 475 b 608 582 614 494 628 547 z m 529 563 b 549 565 536 567 543 567 b 564 538 560 561 565 550 b 551 522 563 532 558 526 b 521 532 540 517 528 519 b 529 563 515 543 518 556 z m 1007 535 b 982 510 1007 521 996 510 b 957 535 968 510 957 521 b 982 560 957 549 968 560 b 1007 535 996 560 1007 549 z m 844 490 b 840 524 818 499 814 518 b 883 525 854 526 868 528 b 911 500 897 522 904 513 l 919 488 b 935 463 932 472 939 465 b 904 469 931 460 921 461 b 844 490 883 478 863 485 z m 989 346 b 949 386 965 346 949 363 b 989 426 949 410 965 426 b 1029 386 1013 426 1029 410 b 989 346 1029 363 1013 346 z m 361 369 b 339 347 361 357 351 347 b 317 369 326 347 317 357 b 339 392 317 383 325 392 b 361 369 353 392 361 383 z m 750 272 b 710 313 726 272 710 289 b 713 329 710 318 711 324 b 732 347 718 340 725 344 b 746 353 739 351 743 353 l 750 353 b 790 313 774 353 790 336 b 750 272 790 289 774 272 z "},"Q":{"ha":565,"x_min":0,"x_max":0,"o":"m 472 28 b 389 69 444 33 415 49 b 376 119 372 85 368 104 b 414 479 414 193 456 314 b 354 471 407 504 346 493 b 347 186 392 347 371 251 b 296 181 336 160 310 156 b 201 396 257 243 224 317 b 206 435 197 410 200 425 l 211 446 l 222 469 b 272 761 279 578 338 699 b 117 640 199 832 117 769 b 138 446 117 576 124 511 b 132 406 140 431 139 418 b 103 63 74 286 42 163 b 294 26 140 4 214 -26 b 343 25 313 38 329 38 b 476 -28 385 -11 428 -29 b 494 17 490 -26 499 -1 b 472 28 493 24 485 25 z m 172 672 b 224 725 176 715 197 738 b 194 518 268 703 229 581 l 193 517 b 179 518 192 514 185 507 b 171 571 175 529 172 551 b 172 672 168 606 169 639 z m 214 63 b 136 231 149 67 126 143 b 188 269 142 279 174 306 b 265 114 210 211 235 158 b 253 65 278 96 275 72 b 214 63 240 63 228 63 z "},"R":{"ha":571,"x_min":0,"x_max":0,"o":"m 476 65 b 407 99 456 67 431 79 b 392 149 389 114 385 132 b 307 419 460 310 442 485 b 329 368 290 411 307 361 b 367 238 374 383 381 311 b 315 229 360 204 329 200 b 233 417 286 288 258 353 b 238 460 228 432 228 446 b 275 790 308 586 356 722 b 149 469 150 896 67 693 b 146 425 154 453 154 439 b 106 75 75 304 38 179 b 325 40 146 11 244 -39 b 374 43 339 54 357 57 b 461 7 401 22 433 7 b 476 65 511 7 513 65 z m 239 749 b 244 615 261 732 257 672 b 181 593 233 571 188 553 b 239 749 168 693 188 792 z m 226 54 b 143 283 156 64 114 165 b 207 325 157 335 193 358 b 299 129 235 254 265 183 b 294 83 307 114 307 96 b 226 54 275 63 251 51 z "},"S":{"ha":614,"x_min":0,"x_max":0,"o":"m 414 526 b 408 486 394 528 392 486 b 476 399 478 479 488 428 b 297 336 460 358 401 351 b 208 240 240 324 214 281 b 261 222 206 217 260 207 b 319 289 267 244 282 283 l 332 292 b 358 265 343 293 353 282 b 283 60 393 157 376 67 b 222 467 126 49 79 447 b 221 522 251 472 263 518 b 233 760 133 536 149 753 b 261 597 286 764 313 721 b 324 585 250 571 310 561 b 219 819 389 690 376 829 b 135 518 97 813 60 594 b 135 479 146 504 149 493 b 296 4 1 358 82 -42 b 426 274 465 39 454 179 b 447 311 422 290 428 304 b 532 375 488 322 517 338 b 414 526 572 463 511 522 z "},"T":{"ha":594,"x_min":0,"x_max":0,"o":"m 354 544 b 361 499 338 532 351 492 b 468 471 432 563 469 503 b 336 349 468 429 458 403 b 239 218 264 317 243 261 b 290 213 238 194 285 193 b 347 293 299 246 303 267 b 371 304 358 300 365 303 b 386 278 375 307 381 297 b 283 63 411 174 379 90 b 215 463 131 17 75 404 b 214 521 232 469 239 507 b 231 753 169 547 154 731 b 246 593 276 765 294 715 b 301 582 235 567 288 558 b 219 817 378 710 338 839 b 132 503 100 796 86 579 b 131 465 142 488 143 478 b 294 4 -4 321 97 -44 b 442 315 443 40 479 197 b 456 354 436 332 440 344 b 525 465 501 385 521 413 b 354 544 533 564 449 615 z "},"U":{"ha":794,"x_min":0,"x_max":0,"o":"m 667 503 b 444 719 829 751 622 857 b 408 725 433 711 422 713 b 72 553 278 844 40 788 b 444 -18 97 375 315 114 b 476 -4 460 -35 475 -28 b 667 503 494 178 586 379 z m 618 542 b 443 143 556 446 483 296 b 403 121 436 114 418 103 b 131 564 283 257 147 440 b 403 633 107 738 326 767 b 440 628 414 615 425 613 b 618 542 583 782 735 722 z "},"V":{"ha":1011,"x_min":0,"x_max":0,"o":"m 874 644 b 782 693 868 685 849 700 b 121 632 506 642 282 622 b 71 563 74 626 65 599 l 136 143 b 215 72 140 107 144 57 b 899 188 424 144 664 160 b 938 275 953 196 942 257 z m 150 540 b 157 583 132 551 119 579 b 746 632 329 569 529 593 b 779 569 803 639 808 610 l 614 340 b 535 324 593 304 567 301 z m 868 381 b 819 378 875 349 854 360 l 757 418 b 753 444 747 424 746 436 l 797 504 b 843 494 825 542 836 528 z m 147 436 b 183 461 144 458 164 472 l 326 379 b 329 347 338 372 340 358 l 215 231 b 178 236 201 215 182 215 z m 867 243 b 213 132 654 215 442 206 b 193 142 201 129 193 133 b 196 156 192 147 193 151 l 379 335 b 399 338 383 340 392 342 l 538 260 b 638 290 581 232 608 249 l 706 382 b 728 386 711 389 721 392 l 871 304 b 876 293 874 301 876 297 l 882 265 b 867 243 883 254 878 246 z "},"W":{"ha":915,"x_min":0,"x_max":0,"o":"m 692 607 b 704 639 696 619 700 628 b 708 669 707 649 710 658 b 388 786 708 767 549 790 b 69 654 224 783 65 751 b 74 629 69 646 71 638 b 85 597 78 618 82 610 b 161 101 126 432 157 268 b 167 69 161 89 161 81 b 396 0 194 10 292 -3 b 617 72 494 3 586 17 b 622 106 622 83 622 93 b 625 146 624 119 624 132 b 654 171 626 164 636 171 b 836 411 742 175 797 301 b 715 571 875 526 797 576 b 689 594 694 569 685 578 z m 133 651 b 140 674 132 657 131 664 b 389 725 169 700 269 722 b 638 686 506 728 606 711 b 644 663 647 678 646 668 b 628 642 643 656 640 649 b 392 600 590 619 499 601 b 149 633 281 597 186 611 b 133 651 138 640 135 647 z m 190 553 b 393 538 249 539 321 536 b 585 560 463 539 529 546 b 611 533 606 565 617 556 b 585 382 600 483 592 432 b 561 353 582 367 575 357 b 214 358 476 326 308 317 b 192 388 201 364 194 374 b 164 526 183 435 175 481 b 190 553 160 547 169 557 z m 774 413 b 651 231 736 326 713 239 b 635 261 639 229 632 242 b 661 472 642 331 647 401 b 683 501 664 486 669 496 b 774 413 747 529 813 499 z m 549 238 b 233 239 468 214 328 203 b 210 271 218 244 211 256 l 208 279 b 239 296 206 297 218 303 b 543 294 325 267 456 274 b 572 269 563 300 574 290 l 572 268 b 549 238 571 251 564 242 z m 394 63 b 224 94 300 60 238 72 b 221 117 222 97 221 103 b 219 165 221 132 221 149 b 249 186 218 186 229 193 b 535 190 338 157 460 167 b 565 168 556 197 567 189 b 564 122 564 153 564 138 b 551 92 563 108 561 99 b 394 63 526 75 471 64 z "},"X":{"ha":847,"x_min":0,"x_max":0,"o":"m 758 517 b 778 582 771 536 778 560 b 651 708 778 647 717 708 b 586 689 629 708 606 701 b 547 685 572 681 563 679 b 424 708 508 700 467 708 b 299 685 379 708 338 700 b 260 689 283 679 272 681 b 194 708 240 700 218 708 b 69 582 129 708 69 647 b 89 517 69 560 76 536 b 93 478 96 503 99 493 b 69 354 78 439 69 397 b 138 149 69 279 94 207 b 140 111 146 136 147 125 l 107 51 b 117 14 97 36 101 24 b 154 25 132 6 144 8 l 176 64 b 214 71 185 81 199 82 b 424 0 274 26 346 0 b 631 69 500 0 572 26 b 669 63 647 82 660 79 l 690 24 b 729 13 700 8 713 4 l 731 14 b 742 25 731 14 736 15 b 740 51 747 32 747 42 l 707 113 b 711 150 700 126 701 138 b 778 354 753 208 778 279 b 754 478 778 397 769 439 b 758 517 749 493 750 503 z m 424 56 b 125 354 257 56 125 188 b 424 653 125 521 257 653 b 722 354 589 653 722 521 b 424 56 722 188 589 56 z m 125 582 b 194 653 125 622 156 653 b 210 651 200 653 206 653 b 193 619 219 649 210 635 b 158 586 181 610 168 599 b 125 582 143 568 125 582 z m 651 653 b 722 582 692 653 722 622 b 721 567 722 576 722 571 b 689 585 718 558 704 567 b 656 619 679 597 668 608 b 651 653 638 635 651 653 z m 451 565 b 424 593 451 583 442 593 b 396 565 406 593 396 583 l 396 439 b 378 406 396 425 389 415 b 353 354 363 392 353 372 b 354 340 353 350 353 346 b 343 313 357 332 354 324 l 331 300 b 331 261 318 288 318 274 b 369 261 343 249 357 249 l 383 275 b 419 283 393 285 404 285 l 424 283 b 493 354 460 283 493 319 b 469 406 493 372 483 392 b 451 439 458 415 451 425 z m 424 339 b 408 354 415 339 408 346 b 424 369 408 363 415 369 b 438 354 432 369 438 364 b 424 339 438 344 432 339 z "},"Y":{"ha":939,"x_min":0,"x_max":0,"o":"m 831 600 b 810 625 840 619 831 632 l 583 547 b 551 557 569 543 560 546 l 424 726 b 390 718 410 742 394 739 l 342 494 b 318 471 339 482 332 474 l 88 418 b 81 386 67 413 63 399 l 275 256 b 289 224 288 247 292 236 l 240 -4 b 267 -22 236 -25 249 -35 l 525 138 b 557 143 536 144 544 146 l 846 68 b 864 93 867 63 876 75 l 715 338 b 714 369 708 349 708 358 z m 732 192 b 714 165 744 174 735 160 l 547 208 b 514 204 535 213 525 211 l 356 104 b 329 124 338 93 325 103 l 356 251 b 343 283 360 265 356 275 l 232 358 b 239 389 214 369 218 385 l 369 421 b 394 443 383 422 390 431 l 422 575 b 454 583 426 596 442 600 l 529 485 b 561 475 538 474 547 471 l 686 518 b 708 493 707 525 718 513 l 643 368 b 646 333 639 356 639 346 z "},"Z":{"ha":940,"x_min":0,"x_max":0,"o":"m 779 581 b 571 688 789 685 686 774 b 539 658 560 679 549 669 b 511 653 524 642 511 639 b 322 728 513 829 379 839 b 288 708 315 713 304 707 b 182 501 185 718 94 617 b 210 469 190 490 200 479 b 217 442 225 454 229 442 b 142 254 40 443 31 311 b 161 219 157 247 163 236 b 368 113 151 115 253 25 b 400 140 379 121 390 131 b 428 147 415 157 428 161 b 615 72 426 -29 558 -39 b 650 92 622 88 633 93 b 757 299 754 82 844 183 b 729 331 749 310 739 321 b 724 358 713 346 710 358 b 799 546 900 357 908 490 b 779 581 783 553 778 564 z m 354 646 b 456 653 374 768 457 782 b 443 458 456 586 447 528 b 413 432 442 439 432 429 b 226 535 335 443 269 476 b 329 635 163 619 254 686 b 354 646 344 624 351 626 z m 604 643 b 692 528 696 711 767 604 b 697 513 681 517 681 513 b 724 414 836 506 861 413 b 528 426 656 414 600 422 b 503 457 510 428 499 438 b 604 643 514 529 549 601 z m 335 157 b 235 260 250 93 183 183 b 224 286 244 276 243 283 b 217 386 100 306 88 388 b 410 374 283 386 335 378 b 435 343 428 372 438 361 b 335 157 422 264 394 201 z m 583 154 b 483 147 564 31 482 18 b 494 363 483 221 488 285 l 494 367 b 522 368 494 369 504 371 b 713 265 600 357 669 324 b 608 165 776 181 686 114 b 583 154 593 176 586 174 z "},"a":{"ha":611,"x_min":0,"x_max":0,"o":"m 94 449 l 82 454 l 72 464 l 69 475 l 75 500 l 86 507 l 97 513 l 128 508 l 121 519 l 131 550 l 140 557 l 156 561 l 169 571 l 186 589 l 196 590 l 207 586 l 224 601 l 249 614 l 258 611 l 271 621 l 288 621 l 299 632 l 299 661 l 294 676 l 296 689 l 279 739 l 275 749 l 265 776 l 258 788 l 267 807 l 286 799 l 292 789 l 297 778 l 307 763 l 310 751 l 328 736 l 354 731 l 368 740 l 376 763 l 400 772 l 411 775 l 429 761 l 433 750 l 428 729 l 404 719 l 392 708 l 410 690 l 449 679 l 469 675 l 482 678 l 497 679 l 508 675 l 497 665 l 485 663 l 469 660 l 447 661 l 419 669 l 407 675 l 392 676 l 374 697 l 363 710 l 340 713 l 331 715 l 321 706 l 324 693 l 329 681 l 329 665 l 335 638 l 331 625 l 329 611 l 331 601 l 346 614 l 357 615 l 371 614 l 386 610 l 403 594 l 422 588 l 433 583 l 446 579 l 458 567 l 506 543 l 515 531 l 524 519 l 529 511 l 531 496 l 522 482 l 531 469 l 540 453 l 542 439 l 525 414 l 521 399 l 526 388 l 528 375 l 511 354 l 506 336 l 506 319 l 496 301 l 492 276 l 481 254 l 467 247 l 456 231 l 444 208 l 433 200 l 426 183 l 414 158 l 407 140 l 413 122 l 399 99 l 383 82 l 381 67 l 376 57 l 344 40 l 344 19 l 340 10 l 336 -1 l 328 -14 l 317 -22 l 294 -22 l 282 -11 l 276 -1 l 271 10 l 267 24 l 265 39 l 256 40 l 238 58 l 238 74 l 231 89 l 217 111 l 215 128 l 215 146 l 207 158 l 204 172 l 194 188 l 185 194 l 182 218 l 190 228 l 189 244 l 183 263 l 172 263 l 157 267 l 140 286 l 142 299 l 129 313 l 110 333 l 108 344 l 113 357 l 99 363 l 92 376 l 88 388 l 90 403 l 97 431 l 108 442 z m 392 731 l 407 738 l 407 749 l 394 743 l 388 732 z m 386 583 l 383 586 l 382 585 l 381 582 l 381 578 l 383 576 z m 285 550 l 292 550 l 296 549 l 297 549 l 299 550 l 300 556 l 304 564 l 301 568 l 297 567 l 292 565 l 285 563 l 282 563 l 282 560 l 281 554 l 281 546 z m 419 556 l 417 558 l 417 560 l 413 558 l 410 557 l 407 553 l 406 551 l 406 550 l 404 549 l 413 549 l 417 551 l 418 553 z m 224 521 l 235 521 l 236 522 l 242 525 l 247 529 l 249 531 l 250 533 l 250 540 l 251 547 l 253 550 l 250 549 l 242 546 l 239 546 l 238 544 l 233 543 l 228 542 l 226 540 l 219 536 l 218 531 l 218 526 z m 339 550 l 338 550 l 333 549 l 331 547 l 329 544 l 331 542 l 338 542 l 340 543 l 344 544 z m 197 531 l 203 536 l 203 540 l 200 540 l 197 539 l 193 536 l 190 533 l 189 529 l 193 529 z m 269 515 l 274 513 l 276 513 l 278 518 l 278 531 l 276 538 l 275 536 l 272 532 l 268 528 l 269 521 z m 374 522 l 368 528 l 357 526 l 351 525 l 350 519 l 356 513 l 364 515 l 378 515 l 382 519 l 376 522 z m 411 521 l 407 525 l 406 524 l 406 519 l 404 517 l 406 514 l 406 511 l 408 511 l 410 517 l 411 519 z m 260 490 l 268 493 l 272 496 l 275 494 l 278 492 l 281 493 l 283 496 l 282 499 l 279 501 l 276 501 l 275 500 l 267 503 l 264 501 l 260 499 l 249 507 l 242 517 l 235 519 l 232 517 l 231 513 l 229 511 l 229 507 l 228 501 l 231 494 l 231 490 l 232 488 l 239 488 l 242 490 l 244 492 l 249 490 l 253 488 l 257 489 z m 439 510 l 442 510 l 444 511 l 443 515 l 440 518 l 438 519 l 435 515 l 436 511 z m 193 517 l 192 514 l 189 510 l 193 510 l 196 511 l 197 513 l 200 517 z m 189 485 l 196 485 l 199 489 l 203 493 l 204 493 l 207 497 l 211 500 l 213 504 l 213 510 l 211 513 l 210 514 l 201 511 l 201 507 l 200 503 l 197 500 l 196 497 l 192 494 l 188 493 l 189 489 z m 169 488 l 172 486 l 175 486 l 176 492 l 178 496 l 178 501 l 176 507 l 172 501 l 168 497 l 168 492 z m 332 499 l 329 501 l 322 500 l 317 494 l 325 494 z m 207 489 l 206 489 l 204 488 l 203 483 l 200 479 l 197 474 l 196 468 l 196 465 l 200 460 l 208 457 l 211 457 l 214 456 l 217 456 l 224 453 l 218 458 l 218 467 l 217 472 l 217 478 l 218 481 l 219 485 l 215 492 l 210 490 z m 442 488 l 442 482 l 446 481 l 449 482 l 451 486 l 451 489 l 449 492 l 444 490 z m 164 467 l 186 467 l 186 472 l 185 474 l 182 474 l 176 476 l 172 479 l 165 478 l 161 476 l 160 476 l 160 471 z m 494 472 l 497 471 l 499 474 l 499 478 l 493 475 l 493 474 z m 290 469 l 288 474 l 285 474 l 282 475 l 282 465 l 286 464 l 288 465 z m 144 443 l 153 443 l 160 442 l 165 440 l 171 436 l 175 432 l 175 435 l 174 442 l 174 451 l 167 457 l 161 461 l 158 463 l 156 463 l 144 457 z m 206 449 l 203 451 l 200 453 l 199 454 l 193 454 l 189 453 l 192 447 l 194 444 l 197 443 l 206 443 l 207 444 l 207 446 z m 194 421 l 196 424 l 199 428 l 203 432 l 204 435 l 201 438 l 194 438 l 193 436 l 190 435 l 182 429 l 176 424 l 172 421 l 171 419 l 167 419 l 164 418 l 161 414 l 157 408 l 156 407 l 151 404 l 144 401 l 138 408 l 128 407 l 133 396 l 133 394 l 136 390 l 139 385 l 140 381 l 143 376 l 146 375 l 149 375 l 151 378 l 150 383 l 153 392 l 160 394 l 161 394 l 164 396 l 165 396 l 167 397 l 171 394 l 174 393 l 176 393 l 185 400 l 186 403 l 188 404 l 188 406 l 189 408 l 189 411 l 193 419 z m 286 417 l 289 417 l 292 422 l 296 424 l 296 426 l 292 431 l 288 431 l 285 426 l 286 422 l 285 419 z m 214 413 l 219 418 l 218 418 l 217 419 l 208 414 l 204 413 l 199 410 l 197 408 l 196 406 l 196 401 l 197 401 l 200 399 l 203 399 l 207 400 l 207 403 l 208 404 z m 278 394 l 281 400 l 279 403 l 276 403 l 274 401 l 275 399 l 275 396 z m 171 369 l 167 378 l 165 379 l 161 378 l 158 372 l 158 368 l 157 365 l 167 365 z m 263 363 l 267 363 l 269 367 l 272 369 l 265 376 l 260 378 l 257 379 l 256 379 l 254 376 l 257 374 l 258 371 l 258 364 z m 232 356 l 231 360 l 231 363 l 224 367 l 218 364 l 213 356 l 215 347 l 222 344 l 229 349 z m 197 358 l 194 360 l 193 356 l 194 351 l 196 350 l 196 349 l 201 349 l 203 351 l 200 356 z m 268 326 l 272 329 l 274 333 l 269 336 l 265 338 l 261 333 l 260 328 l 264 326 z m 233 319 l 233 325 l 229 325 l 225 324 l 225 318 l 231 317 z m 303 315 l 297 317 l 294 311 l 299 307 l 299 306 l 300 303 l 297 297 l 300 292 l 303 292 l 306 293 l 308 300 l 306 307 l 304 308 l 303 308 z m 236 314 l 229 308 l 235 303 l 238 301 l 239 299 l 243 300 l 243 304 l 244 308 z m 267 299 l 269 303 l 264 301 l 260 300 l 254 294 l 257 292 l 258 292 l 265 294 z m 301 265 l 294 265 l 288 263 l 283 261 l 283 254 l 289 250 l 301 257 z m 279 256 l 278 257 l 275 256 l 275 253 l 276 250 l 276 247 l 282 246 l 285 247 l 285 250 l 282 256 z m 240 246 l 236 249 l 233 246 l 232 243 l 236 242 l 239 243 z m 303 240 l 308 232 l 306 226 l 308 222 l 313 224 l 313 229 l 311 238 z m 274 207 l 272 210 l 269 211 l 265 211 l 265 210 l 264 207 l 264 204 l 265 203 l 268 201 l 269 200 l 274 200 l 275 203 l 274 206 z m 329 181 l 328 179 l 328 178 l 329 175 l 332 174 l 333 175 l 335 178 l 333 179 z m 310 153 l 307 151 l 303 147 l 300 143 l 304 144 l 308 144 l 314 149 l 314 154 z "},"b":{"ha":638,"x_min":0,"x_max":0,"o":"m 568 201 l 567 217 l 568 228 l 564 254 l 563 268 l 561 283 l 558 293 l 554 308 l 551 319 l 542 346 l 533 356 l 526 365 l 517 375 l 493 388 l 478 394 l 467 399 l 450 401 l 438 407 l 397 411 l 385 413 l 375 425 l 374 443 l 372 456 l 372 471 l 378 500 l 383 513 l 388 524 l 393 539 l 399 551 l 400 565 l 404 578 l 413 590 l 418 617 l 422 626 l 428 639 l 432 654 l 438 667 l 443 692 l 446 708 l 435 736 l 414 744 l 400 743 l 386 744 l 363 732 l 349 725 l 340 715 l 326 708 l 306 686 l 297 674 l 292 660 l 285 647 l 274 635 l 261 613 l 260 600 l 253 585 l 250 572 l 243 560 l 240 550 l 233 536 l 229 510 l 226 496 l 221 479 l 207 469 l 193 474 l 168 478 l 151 472 l 129 457 l 125 443 l 119 432 l 113 404 l 108 372 l 92 349 l 85 324 l 81 308 l 76 296 l 74 282 l 72 269 l 69 240 l 69 196 l 74 168 l 78 156 l 82 131 l 82 117 l 79 103 l 79 90 l 81 75 l 79 46 l 86 35 l 90 21 l 90 11 l 97 -3 l 113 -15 l 124 -17 l 139 -3 l 140 13 l 140 31 l 139 61 l 149 78 l 171 90 l 178 100 l 182 113 l 189 139 l 186 154 l 189 168 l 188 183 l 186 213 l 183 238 l 179 253 l 181 268 l 181 294 l 185 306 l 188 319 l 194 332 l 200 329 l 204 318 l 204 301 l 208 290 l 213 276 l 214 263 l 219 238 l 222 228 l 231 201 l 238 188 l 244 178 l 251 164 l 258 153 l 268 140 l 272 129 l 281 118 l 286 108 l 306 88 l 314 76 l 325 69 l 338 60 l 344 51 l 358 42 l 367 31 l 390 18 l 401 10 l 413 6 l 424 -4 l 435 -10 l 460 -11 l 486 8 l 490 32 l 489 47 l 481 57 l 478 74 l 471 85 l 464 111 l 456 125 l 453 138 l 460 146 l 474 140 l 485 136 l 497 131 l 518 138 l 521 150 l 525 163 l 524 186 l 521 199 l 514 214 l 508 224 l 503 239 l 497 249 l 492 264 l 488 276 l 479 289 l 476 300 l 471 313 l 457 339 l 453 354 l 458 358 l 468 354 l 478 346 l 494 326 l 497 315 l 504 300 l 510 288 l 515 278 l 521 264 l 525 250 l 532 226 l 533 211 l 539 199 l 542 171 l 558 154 l 568 160 l 567 176 l 567 189 z m 324 647 l 325 649 l 328 650 l 333 649 l 338 640 l 329 643 z m 322 579 l 321 576 l 317 578 l 315 582 l 315 585 l 317 588 l 318 589 l 321 588 l 324 583 z m 292 551 l 293 554 l 296 554 l 299 551 l 299 546 l 297 543 l 294 543 l 292 547 z m 338 542 l 338 539 l 336 538 l 335 538 l 332 536 l 329 539 l 329 540 l 331 542 z m 285 511 l 292 508 l 292 504 l 286 503 l 278 508 z m 288 488 l 294 492 l 297 489 l 297 485 l 296 478 l 289 479 z m 289 474 l 290 469 l 288 468 l 286 467 l 283 469 l 281 471 l 285 475 z m 260 454 l 267 457 l 272 454 l 274 450 l 275 447 l 269 442 l 261 440 l 256 443 l 254 450 z m 218 433 l 214 438 l 213 440 l 221 440 l 228 433 l 226 432 l 224 431 z m 276 432 l 278 435 l 282 436 l 283 433 l 283 431 l 281 428 l 278 426 l 276 428 z m 161 415 l 158 413 l 156 414 l 154 417 l 154 425 l 161 425 l 163 422 l 164 421 z m 286 401 l 288 407 l 293 407 l 296 406 l 299 403 l 290 397 l 286 399 z m 228 385 l 226 388 l 229 390 l 233 393 l 242 400 l 244 403 l 249 403 l 251 399 l 251 390 l 246 389 l 238 388 z m 257 388 l 261 392 l 271 393 l 276 388 l 279 388 l 282 386 l 283 388 l 292 388 l 297 390 l 297 394 l 300 396 l 304 392 l 304 386 l 306 381 l 307 374 l 300 374 l 294 379 l 282 376 l 278 374 l 272 369 l 268 371 l 264 367 l 258 363 l 250 354 l 247 350 l 242 349 l 239 351 l 239 356 l 251 381 z m 182 374 l 179 372 l 179 367 l 178 365 l 175 365 l 174 367 l 174 369 l 169 374 l 171 375 l 171 378 l 174 379 l 176 379 l 182 378 l 183 375 z m 288 339 l 286 339 l 285 338 l 268 342 l 265 350 l 264 358 l 268 356 l 274 353 l 285 353 l 292 351 l 293 349 l 294 344 z m 257 335 l 251 331 l 247 329 l 242 331 l 239 336 l 242 340 l 246 343 l 253 340 l 254 338 z m 282 322 l 271 321 l 268 318 l 265 324 l 274 329 l 282 333 l 288 333 l 289 329 z m 163 321 l 160 318 l 157 317 l 156 318 l 156 322 l 157 325 l 160 325 l 163 324 z m 243 301 l 240 306 l 239 310 l 238 311 l 231 311 l 238 315 l 243 319 l 257 321 l 260 314 l 265 297 l 264 288 l 256 288 l 251 296 z m 286 311 l 283 317 l 285 318 l 288 319 l 294 315 l 294 306 z m 122 300 l 125 303 l 125 306 l 126 310 l 125 313 l 126 315 l 129 314 l 131 311 l 135 307 l 138 300 l 136 296 l 133 296 l 128 294 l 124 296 z m 268 306 l 274 310 l 279 306 l 278 296 l 279 293 l 283 288 l 283 281 l 278 281 l 275 283 l 271 286 l 271 299 z m 293 292 l 292 289 l 289 288 l 288 290 l 286 292 l 288 294 l 290 297 l 292 293 z m 308 285 l 308 279 l 306 278 l 303 279 l 301 285 l 304 290 l 306 288 z m 257 235 l 256 231 l 254 228 l 254 226 l 256 221 l 253 219 l 251 218 l 249 218 l 247 219 l 247 226 l 250 229 l 249 236 l 247 244 l 247 251 l 246 253 l 253 260 l 250 268 l 253 275 l 258 272 l 265 272 l 269 269 l 279 260 l 282 268 l 289 271 l 297 268 l 300 260 l 300 239 l 285 244 l 283 247 l 281 257 l 279 260 l 274 254 l 264 251 l 256 242 l 256 238 z m 107 265 l 113 268 l 117 265 l 119 263 l 117 257 l 111 256 l 107 257 l 103 261 z m 140 221 l 139 213 l 133 207 l 129 207 l 128 214 l 132 219 l 133 222 l 133 224 l 132 231 l 136 235 l 140 231 l 139 224 l 139 222 z m 275 219 l 264 222 l 265 225 l 268 229 l 279 228 l 288 219 z m 299 203 l 299 214 l 297 215 l 294 217 l 308 217 l 310 215 l 311 213 l 315 208 l 314 206 l 307 204 l 301 203 z m 96 176 l 99 183 l 113 183 l 119 182 l 117 172 l 101 171 z m 319 175 l 319 167 l 314 169 l 311 172 l 310 175 l 311 178 l 314 178 z m 364 160 l 363 163 l 367 167 l 369 167 l 371 163 l 368 158 l 367 158 z m 108 135 l 108 139 l 114 143 l 111 154 l 118 149 l 117 140 l 114 135 z m 322 136 l 321 132 l 317 131 l 311 136 l 304 140 l 306 147 l 310 150 l 314 147 l 322 140 z m 361 114 l 360 113 l 353 111 l 347 117 l 354 119 l 361 117 z m 338 90 l 335 86 l 329 92 l 329 101 l 332 104 l 335 103 l 339 94 z m 119 78 l 118 76 l 115 78 l 114 79 l 114 82 l 115 82 l 117 83 l 119 82 l 121 82 z m 375 71 l 372 72 l 368 76 l 369 79 l 374 79 l 375 78 l 376 75 l 378 74 z m 388 53 l 386 49 l 383 47 l 379 47 l 379 51 l 382 56 l 385 57 l 386 57 l 388 56 z m 432 40 l 431 39 l 428 40 l 426 43 l 428 46 l 432 47 z "},"c":{"ha":933,"x_min":0,"x_max":0,"o":"m 128 621 l 143 617 l 146 596 l 147 563 l 157 536 l 165 528 l 172 517 l 182 506 l 188 493 l 197 485 l 214 461 l 224 454 l 233 444 l 246 433 l 254 426 l 263 417 l 272 404 l 281 396 l 304 379 l 315 372 l 329 369 l 343 364 l 356 356 l 371 350 l 396 344 l 408 340 l 424 339 l 449 339 l 464 338 l 476 335 l 501 336 l 517 340 l 529 343 l 543 347 l 556 353 l 568 357 l 578 360 l 592 367 l 618 375 l 632 381 l 644 390 l 656 397 l 681 408 l 694 417 l 731 438 l 743 442 l 754 447 l 768 450 l 779 456 l 794 461 l 806 468 l 833 468 l 857 453 l 864 431 l 860 418 l 857 386 l 851 375 l 850 358 l 840 333 l 829 321 l 825 307 l 814 299 l 799 275 l 785 267 l 776 260 l 764 247 l 751 239 l 742 233 l 731 221 l 719 213 l 697 200 l 685 196 l 671 188 l 658 182 l 649 176 l 638 172 l 625 167 l 613 160 l 599 154 l 574 146 l 560 146 l 546 144 l 535 144 l 519 142 l 508 139 l 493 140 l 481 136 l 454 136 l 440 139 l 415 139 l 403 143 l 388 142 l 375 146 l 360 146 l 336 151 l 321 158 l 307 161 l 297 168 l 283 176 l 269 181 l 257 185 l 244 193 l 219 207 l 207 217 l 199 225 l 188 233 l 168 253 l 157 263 l 146 268 l 136 281 l 117 299 l 110 313 l 107 321 l 99 333 l 93 346 l 86 357 l 78 367 l 69 394 l 69 406 l 71 418 l 72 433 l 69 443 l 76 471 l 81 483 l 83 496 l 88 510 l 94 535 l 96 547 l 92 572 l 81 597 l 69 610 l 85 615 l 114 618 z m 122 518 l 117 525 l 114 517 l 118 508 l 121 507 l 124 510 z m 803 440 l 800 439 l 796 438 l 797 435 l 799 433 l 803 433 l 806 436 l 806 439 z m 132 410 l 126 407 l 122 399 l 129 392 l 133 383 l 140 382 l 144 393 l 138 404 z m 817 392 l 814 393 l 810 394 l 807 393 l 807 389 l 810 388 l 814 386 l 818 389 z m 794 367 l 797 369 l 797 375 l 793 375 l 790 369 l 790 367 z m 182 368 l 174 364 l 182 358 l 190 360 l 192 364 l 192 367 z m 764 346 l 761 346 l 760 344 l 760 338 l 763 335 l 764 332 l 765 335 l 767 339 l 765 342 z m 156 343 l 153 339 l 154 329 l 164 322 l 167 333 l 161 343 z m 713 333 l 717 332 l 719 333 l 719 336 l 718 339 l 714 339 l 711 336 l 711 335 z m 786 319 l 794 322 l 796 326 l 797 332 l 789 332 l 782 325 l 782 321 z m 751 282 l 756 283 l 757 290 l 761 297 l 760 301 l 750 300 l 750 299 l 749 294 l 746 290 l 744 288 l 744 285 l 749 281 z m 226 292 l 222 289 l 219 285 l 219 279 l 224 278 l 228 281 l 231 285 l 231 289 z m 717 288 l 714 282 l 715 279 l 717 279 l 722 282 l 722 283 l 725 290 l 721 289 l 718 289 z m 675 260 l 676 263 l 678 267 l 683 267 l 689 268 l 688 275 l 688 282 l 683 285 l 678 279 l 674 276 l 672 275 l 674 268 z m 282 272 l 279 268 l 281 264 l 283 261 l 286 264 l 288 268 l 288 272 z m 249 258 l 246 254 l 249 249 l 254 253 l 257 263 l 253 261 z m 629 236 l 632 235 l 638 235 l 639 236 l 644 239 l 650 243 l 651 251 l 651 260 l 643 257 l 642 257 l 633 254 l 632 254 l 625 250 l 625 246 l 624 242 l 628 236 z m 606 251 l 608 251 l 614 254 l 614 257 l 613 258 l 608 258 l 606 257 l 604 256 l 603 253 z m 360 254 l 357 257 l 356 257 l 354 254 l 354 250 l 356 249 l 357 249 l 360 250 z m 675 229 l 678 229 l 678 242 l 674 253 l 668 242 l 671 231 z m 317 243 l 313 243 l 308 240 l 307 239 l 308 236 l 314 235 l 315 235 l 318 236 l 319 240 z m 547 189 l 546 189 l 543 192 l 538 196 l 533 199 l 531 201 l 528 203 l 529 206 l 529 208 l 521 217 l 518 222 l 517 229 l 518 232 l 521 235 l 519 243 l 517 242 l 515 240 l 514 240 l 507 238 l 506 238 l 503 236 l 500 232 l 501 229 l 504 229 l 507 226 l 510 225 l 510 217 l 511 215 l 510 213 l 510 210 l 508 207 l 507 206 l 506 203 l 508 194 l 511 192 l 531 182 l 539 181 l 546 178 l 553 178 l 556 181 l 553 186 z m 601 236 l 606 236 l 607 239 l 606 240 l 603 242 l 599 238 z m 579 228 l 586 232 l 589 240 l 585 239 l 579 239 l 578 235 l 576 232 l 578 229 z m 615 235 l 611 233 l 608 233 l 604 228 l 603 226 l 601 226 l 599 225 l 592 225 l 589 219 l 594 215 l 600 218 l 604 218 l 613 221 l 614 225 l 617 229 l 617 232 z m 558 226 l 554 231 l 550 233 l 546 232 l 543 231 l 543 226 l 544 222 l 546 211 l 543 207 l 542 201 l 544 201 l 556 207 l 557 208 l 558 217 z m 649 221 l 643 231 l 636 233 l 635 231 l 632 228 l 629 224 l 626 218 l 629 211 l 626 206 l 631 204 l 635 204 l 643 207 l 646 206 l 650 204 l 654 206 l 658 206 l 660 207 l 667 210 l 675 214 l 679 211 l 685 213 l 686 215 l 686 218 l 682 221 l 676 218 l 672 218 l 668 219 l 664 217 l 660 215 l 654 218 l 650 219 z m 578 215 l 574 225 l 571 228 l 567 231 l 563 229 l 564 224 l 572 211 l 575 208 l 581 213 z m 499 222 l 492 229 l 490 226 l 489 222 l 490 218 l 496 217 l 497 217 l 499 218 z m 413 219 l 407 219 l 406 215 l 410 210 l 414 210 l 418 211 l 419 218 l 415 218 z m 350 218 l 346 218 l 342 214 l 343 211 l 344 210 l 350 211 l 353 214 l 353 217 z m 614 206 l 613 213 l 607 214 l 603 214 l 599 211 l 596 210 l 594 208 l 588 204 l 586 204 l 583 203 l 579 200 l 579 201 l 576 201 l 581 194 l 583 188 l 593 178 l 596 176 l 594 181 l 594 183 l 601 190 l 603 190 l 604 196 l 607 200 l 610 203 z m 390 213 l 389 211 l 386 206 l 388 201 l 390 197 l 394 206 l 393 213 z m 428 213 l 424 211 l 424 208 l 425 206 l 426 204 l 429 207 l 431 210 z m 471 208 l 465 211 l 464 211 l 461 208 l 463 204 l 467 204 l 469 203 l 472 206 z m 293 203 l 290 201 l 289 197 l 296 192 l 304 189 l 301 199 z m 454 197 l 451 200 l 446 197 l 443 190 l 446 183 l 451 179 l 454 181 l 458 182 l 460 188 l 458 196 z m 567 197 l 564 196 l 561 193 l 560 185 l 568 179 l 571 182 l 574 183 l 574 190 z m 514 179 l 511 183 l 507 183 l 503 182 l 500 179 l 500 175 l 501 174 l 504 172 l 518 158 l 521 161 l 517 171 z "},"d":{"ha":1149,"x_min":0,"x_max":0,"o":"m 1076 386 l 1074 401 l 1060 421 l 1054 431 l 1033 436 l 1032 431 l 1039 407 l 1042 396 l 1040 383 l 1035 357 l 1026 349 l 1019 338 l 1013 324 l 994 306 l 982 300 l 968 293 l 957 286 l 918 267 l 894 256 l 878 256 l 867 253 l 854 247 l 839 247 l 826 243 l 817 242 l 800 240 l 776 238 l 735 238 l 721 236 l 693 236 l 667 240 l 654 242 l 640 244 l 626 246 l 614 246 l 597 247 l 544 263 l 532 268 l 507 282 l 492 285 l 478 290 l 467 297 l 453 303 l 438 311 l 419 319 l 403 329 l 393 339 l 372 354 l 360 364 l 336 367 l 310 364 l 282 376 l 272 383 l 261 392 l 229 418 l 217 426 l 207 438 l 186 453 l 176 463 l 165 472 l 154 479 l 142 490 l 131 496 l 124 507 l 111 514 l 96 536 l 92 544 l 88 568 l 97 583 l 99 596 l 83 604 l 69 582 l 71 554 l 78 539 l 83 528 l 101 506 l 114 493 l 125 483 l 135 475 l 147 467 l 168 444 l 189 429 l 199 419 l 210 410 l 222 401 l 232 392 l 253 369 l 258 358 l 267 336 l 267 319 l 265 294 l 267 269 l 279 249 l 290 243 l 303 231 l 315 224 l 325 215 l 336 207 l 350 197 l 361 188 l 371 181 l 382 168 l 407 158 l 424 156 l 439 151 l 453 147 l 464 146 l 479 140 l 493 139 l 506 135 l 522 133 l 538 128 l 564 124 l 575 125 l 590 126 l 604 124 l 629 122 l 644 125 l 656 124 l 669 125 l 685 124 l 699 124 l 711 122 l 725 124 l 753 128 l 765 128 l 778 132 l 790 135 l 804 136 l 819 140 l 832 144 l 847 147 l 860 150 l 886 161 l 900 165 l 914 174 l 924 179 l 938 183 l 951 189 l 964 196 l 988 214 l 994 221 l 1007 232 l 1018 242 l 1039 263 l 1050 269 l 1061 293 l 1068 306 l 1071 317 l 1075 332 l 1078 344 l 1079 372 z m 290 340 l 288 338 l 285 339 l 283 342 l 285 344 l 288 346 l 290 346 l 292 344 z m 317 311 l 318 314 l 321 317 l 325 318 l 328 317 l 326 313 l 324 310 l 319 308 z m 329 286 l 325 286 l 325 288 l 324 289 l 322 292 l 325 294 l 326 294 l 329 293 l 329 290 l 331 289 z m 365 271 l 363 269 l 360 272 l 358 276 l 361 285 l 367 281 l 367 276 l 368 274 z m 347 250 l 340 250 l 340 256 l 344 256 l 347 257 l 354 253 l 351 251 z m 385 243 l 382 251 l 386 254 l 386 253 l 389 253 l 392 251 l 396 253 l 399 253 l 401 246 l 400 242 l 390 242 z m 497 171 l 489 172 l 479 176 l 478 176 l 474 178 l 469 181 l 481 192 l 489 192 l 497 190 l 494 197 l 496 208 l 493 214 l 492 219 l 488 219 l 483 221 l 478 226 l 474 228 l 474 232 l 475 235 l 476 236 l 479 235 l 481 233 l 482 229 l 489 226 l 496 225 l 504 222 l 507 215 l 511 215 l 517 213 l 519 210 l 518 207 l 515 206 l 514 199 l 504 193 l 497 190 l 503 185 l 504 176 l 501 174 z m 414 218 l 411 217 l 406 217 l 403 219 l 401 222 l 400 224 l 407 224 l 414 221 z m 549 193 l 544 192 l 540 192 l 535 190 l 528 196 l 529 203 l 538 204 l 544 211 l 550 213 l 554 215 l 554 218 l 556 222 l 561 208 l 563 192 l 560 194 l 553 193 z m 622 221 l 628 214 l 631 210 l 638 203 l 636 199 l 631 196 l 626 196 l 625 200 l 622 210 l 619 218 z m 458 201 l 464 211 l 467 215 l 471 219 l 472 217 l 475 214 l 469 204 z m 883 204 l 879 213 l 881 219 l 882 219 l 885 218 l 886 211 z m 568 203 l 571 208 l 576 211 l 581 207 l 582 203 l 578 196 l 572 193 l 569 199 z m 631 143 l 624 143 l 610 140 l 610 149 l 615 153 l 613 165 l 606 175 l 607 176 l 607 179 l 600 189 l 592 197 l 588 200 l 588 206 l 590 208 l 594 208 l 596 207 l 607 201 l 608 200 l 621 192 l 624 190 l 628 186 l 629 176 l 629 175 l 624 171 l 625 168 l 622 165 l 624 164 l 624 156 l 628 151 l 632 150 l 633 147 z m 361 200 l 360 199 l 357 199 l 354 201 l 353 201 l 353 206 l 354 207 l 358 207 l 361 204 z m 447 192 l 442 186 l 435 188 l 426 189 l 426 193 l 432 197 l 438 203 l 446 194 l 451 197 z m 689 183 l 683 181 l 676 183 l 674 192 l 675 197 l 681 200 l 686 196 l 690 190 z m 781 189 l 779 190 l 781 194 l 785 197 l 788 197 l 789 194 l 788 190 l 783 189 z m 746 181 l 744 179 l 742 179 l 739 185 l 740 194 l 746 188 z m 829 189 l 828 185 l 824 183 l 821 183 l 819 188 l 822 192 l 828 193 l 829 192 z m 535 181 l 532 179 l 529 179 l 525 178 l 522 176 l 515 179 l 515 182 l 517 185 l 524 189 l 528 188 l 532 188 l 535 186 l 543 186 l 546 181 l 540 176 l 538 178 z m 567 163 l 563 161 l 557 169 l 557 181 l 556 185 l 561 186 l 565 178 l 568 168 z m 589 175 l 588 164 l 588 157 l 579 154 l 574 161 l 572 164 l 572 165 l 578 181 l 581 181 l 586 182 l 596 183 z m 711 172 l 708 171 l 706 172 l 704 172 l 706 176 l 707 179 l 710 178 l 711 176 z m 731 169 l 725 168 l 718 167 l 717 175 l 725 178 l 731 172 z m 671 168 l 668 168 l 664 171 l 663 174 l 665 175 l 672 175 l 674 171 z m 525 167 l 524 167 l 521 169 l 521 171 l 522 172 l 525 172 l 529 168 z m 553 165 l 547 160 l 538 161 l 543 168 l 547 169 l 551 169 l 553 168 z m 644 153 l 642 150 l 638 154 l 635 158 l 636 163 l 639 163 l 644 161 l 646 156 z m 511 156 l 508 156 l 506 157 l 504 160 l 506 161 l 513 161 l 518 157 z m 796 151 l 794 151 l 790 153 l 788 154 l 789 157 l 790 158 l 793 158 l 796 156 z "},"e":{"ha":758,"x_min":0,"x_max":0,"o":"m 679 601 l 650 633 l 640 656 l 622 683 l 601 694 l 590 694 l 568 683 l 560 657 l 554 632 l 544 610 l 535 599 l 528 589 l 518 581 l 479 544 l 469 533 l 449 513 l 425 500 l 408 497 l 397 490 l 382 486 l 368 485 l 356 478 l 340 476 l 314 464 l 301 460 l 292 457 l 281 451 l 265 444 l 256 439 l 242 435 l 229 429 l 206 414 l 196 406 l 183 397 l 174 392 l 164 382 l 153 374 l 135 354 l 128 340 l 114 319 l 107 308 l 99 297 l 89 271 l 83 258 l 79 246 l 76 231 l 75 219 l 71 194 l 71 182 l 69 168 l 71 156 l 71 142 l 75 115 l 79 104 l 89 76 l 101 53 l 114 44 l 122 33 l 144 17 l 158 11 l 171 8 l 197 3 l 211 0 l 224 3 l 239 0 l 267 4 l 279 10 l 294 14 l 315 24 l 329 32 l 338 36 l 349 44 l 368 63 l 376 74 l 385 81 l 393 93 l 401 115 l 407 128 l 410 143 l 414 154 l 419 181 l 415 197 l 418 211 l 415 224 l 417 250 l 421 282 l 424 293 l 431 325 l 435 339 l 438 350 l 456 386 l 464 397 l 471 408 l 475 419 l 483 432 l 500 454 l 508 463 l 518 475 l 528 485 l 536 492 l 557 511 l 565 521 l 578 529 l 604 542 l 635 542 l 663 546 l 685 564 l 689 585 z m 494 518 l 490 519 l 488 522 l 486 525 l 488 526 l 490 526 l 496 524 l 499 515 z m 457 468 l 453 464 l 449 464 l 447 468 l 449 472 l 453 475 l 456 475 l 457 472 z m 410 454 l 407 453 l 406 454 l 406 460 l 408 464 l 411 464 l 413 463 l 414 457 z m 375 429 l 374 428 l 368 432 l 365 442 l 374 438 l 376 432 z m 436 421 l 432 421 l 428 422 l 428 426 l 432 428 l 436 425 l 438 422 z m 315 403 l 307 403 l 300 410 l 299 415 l 304 421 l 311 419 l 317 415 l 319 408 z m 365 413 l 361 410 l 354 406 l 350 413 l 357 419 l 365 417 z m 343 404 l 340 406 l 339 406 l 339 414 l 342 413 l 344 413 l 346 408 z m 233 406 l 244 403 l 254 400 l 258 400 l 261 396 l 260 393 l 260 392 l 257 389 l 251 386 l 249 389 l 232 403 z m 310 386 l 306 385 l 301 385 l 299 386 l 300 389 l 304 390 l 307 392 l 310 390 z m 286 342 l 282 338 l 279 336 l 272 328 l 268 335 l 269 342 l 260 351 l 254 353 l 247 356 l 246 360 l 233 363 l 232 363 l 228 364 l 215 364 l 210 368 l 211 372 l 215 375 l 218 375 l 225 376 l 235 378 l 238 379 l 253 379 l 260 378 l 267 371 l 267 363 l 268 361 l 268 357 l 269 357 l 271 356 l 274 350 l 281 347 l 285 349 l 288 347 z m 293 354 l 282 357 l 281 361 l 283 364 l 289 365 l 293 361 z m 196 360 l 197 364 l 208 361 l 210 354 l 207 347 l 201 349 l 197 350 l 194 357 z m 243 325 l 240 321 l 236 322 l 231 322 l 228 325 l 225 333 l 221 342 l 222 343 l 226 349 l 233 356 l 233 350 l 235 344 l 240 335 l 246 328 z m 169 353 l 178 350 l 186 349 l 193 343 l 196 338 l 192 331 l 189 326 l 185 318 l 182 315 l 182 314 l 172 310 l 167 315 l 171 324 l 171 335 l 172 340 l 174 344 l 175 346 z m 224 315 l 219 317 l 214 317 l 206 325 l 201 326 l 203 329 l 204 333 l 208 331 l 214 329 l 218 326 l 224 324 l 226 319 z m 188 301 l 188 293 l 182 289 l 179 290 l 176 293 l 176 301 l 188 313 l 190 317 l 197 317 l 197 308 l 190 306 l 190 304 z m 215 303 l 208 296 l 207 300 l 207 307 l 208 308 l 210 313 l 213 313 l 215 307 z m 168 249 l 167 246 l 165 249 l 161 253 l 156 261 l 157 263 l 158 268 l 163 276 l 154 275 l 144 281 l 138 279 l 131 279 l 126 269 l 125 268 l 122 267 l 118 264 l 115 258 l 111 257 l 108 258 l 108 263 l 111 268 l 114 268 l 117 269 l 119 274 l 121 278 l 132 294 l 138 296 l 142 296 l 143 297 l 144 300 l 147 304 l 151 307 l 156 308 l 156 306 l 157 301 l 161 297 l 163 290 l 163 276 l 167 278 l 171 281 l 175 279 l 178 278 l 181 274 l 182 269 l 181 265 l 178 263 l 175 258 l 172 256 z m 192 293 l 194 294 l 199 294 l 197 290 l 193 289 l 190 289 z m 201 272 l 199 269 l 196 269 l 194 272 l 197 278 l 203 279 z m 143 238 l 138 240 l 132 244 l 129 249 l 125 253 l 128 256 l 132 257 l 136 254 l 142 250 l 142 244 z m 143 215 l 144 217 l 146 219 l 150 224 l 149 228 l 147 231 l 154 226 l 161 221 l 160 214 l 160 207 l 156 206 l 149 211 z m 138 175 l 135 172 l 132 178 l 131 186 l 133 188 l 136 186 l 139 178 z m 125 135 l 119 135 l 115 143 l 115 144 l 113 146 l 110 150 l 111 154 l 114 158 l 118 160 l 121 157 l 125 149 l 126 144 l 128 143 l 126 139 l 125 136 z m 183 153 l 182 151 l 178 150 l 176 151 l 175 154 l 179 157 l 182 157 l 183 156 z m 164 108 l 163 107 l 154 107 l 151 110 l 149 114 l 157 114 l 161 113 l 164 111 z m 138 90 l 136 86 l 133 81 l 131 85 l 126 89 l 128 93 l 128 99 l 131 101 l 135 100 l 136 94 l 138 92 z m 178 64 l 175 64 l 171 67 l 171 72 l 175 72 l 181 67 z m 193 40 l 190 38 l 186 38 l 185 43 l 188 47 l 190 50 l 193 49 l 194 44 z m 242 42 l 239 42 l 236 44 l 236 49 l 239 49 l 242 50 l 242 47 l 243 43 z "},"f":{"ha":1260,"x_min":0,"x_max":0,"o":"m 371 478 l 392 486 l 403 493 l 414 501 l 424 510 l 435 515 l 446 524 l 461 540 l 475 553 l 494 561 l 510 563 l 528 564 l 549 564 l 563 565 l 582 560 l 597 549 l 606 536 l 599 522 l 589 514 l 578 507 l 567 497 l 558 489 l 554 481 l 572 486 l 583 496 l 596 503 l 608 511 l 619 517 l 629 525 l 646 539 l 653 546 l 669 558 l 700 568 l 721 571 l 743 567 l 758 558 l 772 549 l 782 536 l 778 521 l 757 507 l 744 497 l 735 489 l 735 481 l 756 485 l 767 492 l 778 500 l 790 507 l 803 513 l 815 521 l 831 533 l 850 540 l 871 543 l 885 540 l 899 540 l 921 535 l 938 532 l 956 525 l 972 515 l 986 510 l 994 503 l 1008 497 l 1022 489 l 1039 476 l 1054 465 l 1068 457 l 1079 451 l 1090 442 l 1106 431 l 1121 415 l 1133 397 l 1146 383 l 1154 374 l 1164 361 l 1175 344 l 1182 324 l 1185 313 l 1188 297 l 1190 283 l 1190 267 l 1189 247 l 1185 231 l 1176 214 l 1163 199 l 1150 189 l 1138 181 l 1117 171 l 1097 165 l 1085 161 l 1069 160 l 1047 157 l 985 157 l 969 156 l 940 156 l 926 157 l 911 156 l 883 156 l 871 157 l 815 157 l 801 156 l 788 157 l 744 157 l 725 156 l 706 157 l 685 154 l 663 157 l 649 156 l 635 157 l 607 156 l 594 156 l 572 157 l 560 160 l 539 158 l 525 156 l 511 157 l 497 157 l 468 160 l 428 161 l 413 160 l 400 161 l 386 161 l 372 163 l 358 160 l 339 160 l 304 163 l 282 161 l 261 168 l 250 172 l 239 172 l 224 175 l 211 179 l 199 179 l 185 182 l 171 189 l 142 199 l 125 210 l 115 221 l 104 229 l 90 246 l 81 265 l 79 278 l 74 292 l 68 310 l 69 329 l 68 344 l 75 364 l 88 393 l 99 401 l 106 413 l 111 425 l 125 439 l 143 450 l 153 457 l 167 463 l 178 471 l 190 479 l 201 486 l 214 492 l 228 499 l 244 510 l 264 518 l 278 522 l 293 529 l 307 533 l 326 538 l 343 540 l 363 544 l 376 544 l 396 540 l 413 535 l 408 522 l 389 506 l 371 486 z m 936 450 l 939 447 l 943 449 l 944 450 l 943 451 l 943 453 l 940 453 l 938 451 z m 994 429 l 1000 424 l 1006 425 l 1010 426 l 1007 428 l 1004 428 l 999 431 l 999 433 l 997 436 l 996 438 l 993 439 l 992 435 z m 1032 407 l 1036 414 l 1040 417 l 1039 421 l 1036 425 l 1028 425 l 1024 418 l 1021 411 l 1024 408 l 1026 404 z m 1049 407 l 1053 407 l 1057 410 l 1058 415 l 1061 421 l 1057 419 l 1051 417 l 1047 410 z m 1038 361 l 1039 363 l 1038 364 l 1036 367 l 1036 371 l 1038 372 l 1039 375 l 1035 379 l 1032 379 l 1031 378 l 1029 374 l 1028 371 l 1029 369 l 1029 367 l 1031 363 l 1033 360 z m 1118 369 l 1124 367 l 1126 367 l 1131 369 l 1129 372 l 1129 374 l 1125 378 l 1118 378 l 1115 375 z m 906 354 l 911 351 l 915 353 l 915 356 l 917 358 l 921 363 l 917 365 l 914 363 l 910 361 l 906 361 l 903 358 z m 974 360 l 975 360 l 976 358 l 979 357 l 982 360 l 981 363 l 978 364 l 976 365 l 974 364 l 972 363 l 972 361 z m 983 328 l 990 328 l 993 326 l 994 325 l 997 324 l 1000 326 l 1003 331 l 1001 332 l 1000 335 l 1000 338 l 999 338 l 996 339 l 982 332 l 981 329 z m 1049 321 l 1050 321 l 1050 325 l 1051 328 l 1050 331 l 1050 332 l 1044 335 l 1040 333 l 1036 329 l 1036 328 l 1035 325 l 1035 322 l 1038 321 l 1042 319 l 1046 319 z m 1114 335 l 1110 333 l 1108 332 l 1107 329 l 1107 324 l 1108 322 l 1111 321 l 1114 321 l 1114 324 l 1115 326 l 1115 333 z m 1129 325 l 1129 321 l 1132 319 l 1133 318 l 1136 317 l 1140 317 l 1142 318 l 1142 322 l 1139 324 l 1139 325 l 1135 326 l 1132 326 z m 897 307 l 900 306 l 900 310 l 901 313 l 901 314 l 899 317 l 893 314 l 894 310 z m 626 290 l 632 289 l 636 292 l 636 296 l 628 304 l 617 303 l 622 293 z m 546 296 l 544 297 l 540 296 l 540 286 l 544 283 l 546 283 l 549 285 l 549 294 z m 850 288 l 857 288 l 863 293 l 858 293 l 854 294 l 847 290 z m 699 281 l 692 288 l 682 283 l 674 283 l 669 278 l 678 271 l 690 272 l 697 274 z m 582 278 l 579 282 l 575 283 l 569 281 l 569 276 l 578 274 z m 1013 254 l 1013 260 l 1008 264 l 1008 265 l 1006 268 l 1003 272 l 997 278 l 992 282 l 986 279 l 992 268 l 993 263 l 997 254 l 997 251 l 1001 250 l 1003 250 l 1006 251 l 1008 251 z m 804 268 l 807 268 l 815 260 l 825 258 l 831 243 l 829 231 l 833 222 l 842 225 l 849 228 l 853 231 l 854 232 l 857 240 l 863 246 l 858 249 l 856 251 l 850 253 l 846 253 l 842 263 l 832 267 l 813 271 l 810 276 l 807 278 l 806 279 l 801 278 l 800 275 l 801 269 z m 1132 269 l 1140 267 l 1140 272 l 1133 276 l 1129 278 l 1124 278 z m 265 271 l 257 269 l 263 263 l 271 263 l 274 264 l 274 268 z m 876 226 l 881 225 l 882 224 l 883 224 l 892 226 l 893 226 l 897 228 l 903 229 l 907 231 l 911 233 l 911 240 l 908 250 l 904 258 l 900 264 l 899 267 l 899 257 l 897 256 l 894 254 l 892 251 l 890 251 l 888 246 l 882 240 l 879 240 l 874 239 l 872 229 l 874 228 z m 625 264 l 619 258 l 621 254 l 622 253 l 631 257 l 635 265 z m 493 263 l 490 261 l 490 258 l 493 254 l 496 251 l 500 256 l 499 261 z m 1004 192 l 1000 193 l 997 196 l 996 200 l 996 210 l 994 211 l 996 214 l 996 218 l 1000 222 l 1003 226 l 1000 238 l 994 243 l 990 244 l 988 247 l 983 249 l 976 251 l 974 253 l 961 257 l 949 260 l 943 260 l 940 256 l 943 249 l 950 246 l 956 242 l 963 238 l 968 232 l 974 228 l 974 221 l 979 215 l 983 210 l 986 203 l 988 194 l 985 192 l 983 188 l 983 178 l 990 181 l 996 183 l 1001 183 l 1004 186 l 1006 189 z m 803 250 l 800 256 l 797 258 l 789 247 l 783 233 l 797 238 z m 919 246 l 922 240 l 926 235 l 933 240 l 935 250 l 931 254 l 926 257 l 919 253 z m 1076 247 l 1074 251 l 1071 254 l 1065 257 l 1061 256 l 1058 253 l 1058 250 l 1057 247 l 1060 242 l 1061 236 l 1063 236 l 1067 235 l 1069 233 l 1071 233 l 1076 239 z m 450 246 l 449 250 l 446 253 l 438 247 l 432 239 l 443 240 z m 724 249 l 722 251 l 714 253 l 706 251 l 713 244 l 721 246 z m 1124 250 l 1119 246 l 1118 242 l 1117 240 l 1121 233 l 1125 236 l 1131 239 l 1136 244 l 1133 250 z m 579 240 l 576 239 l 575 238 l 575 232 l 581 229 l 583 231 l 585 233 l 582 238 z m 1101 232 l 1106 231 l 1108 232 l 1110 235 l 1108 239 l 1106 240 l 1101 240 z m 375 233 l 368 231 l 367 224 l 374 217 l 383 219 l 393 221 l 396 226 l 389 235 z m 764 213 l 775 228 l 767 225 l 756 233 l 743 219 l 744 214 z m 958 231 l 938 221 l 936 210 l 935 200 l 936 197 l 938 196 l 946 189 l 949 189 l 957 193 l 956 199 l 954 203 l 953 217 z m 1057 217 l 1058 218 l 1060 221 l 1057 224 l 1053 225 l 1049 225 l 1046 222 l 1047 218 l 1053 217 z m 838 218 l 832 222 l 813 224 l 799 207 l 824 199 l 833 197 l 838 200 l 842 204 l 842 214 z m 922 213 l 918 218 l 917 222 l 915 224 l 908 219 l 911 214 l 914 201 l 919 197 l 924 193 l 929 196 l 929 203 l 925 207 z m 857 210 l 857 207 l 865 204 l 867 204 l 871 206 l 875 208 l 879 208 l 882 210 l 883 208 l 886 207 l 890 206 l 894 208 l 897 213 l 892 218 l 888 218 l 883 217 l 881 218 l 878 218 l 874 219 l 867 219 l 864 217 l 858 214 z m 446 210 l 435 215 l 432 211 l 432 207 l 439 199 l 450 199 l 447 204 z m 525 215 l 521 214 l 519 210 l 519 204 l 524 200 l 528 203 l 529 207 l 529 213 z m 668 207 l 667 213 l 663 214 l 658 213 l 657 211 l 660 206 l 664 204 l 665 206 z m 1018 207 l 1010 207 l 1008 201 l 1018 192 l 1024 200 l 1021 206 z m 908 193 l 908 197 l 906 200 l 901 197 l 897 196 l 888 186 l 903 186 l 906 190 z m 633 194 l 632 192 l 633 189 l 643 189 l 651 193 l 642 199 z m 872 197 l 869 199 l 867 199 l 864 197 l 865 194 l 868 192 l 871 192 l 876 193 z m 858 182 l 854 185 l 844 183 l 843 182 l 844 179 l 853 176 l 861 178 l 863 179 l 861 179 z "},"g":{"ha":797,"x_min":0,"x_max":0,"o":"m 728 213 l 725 240 l 725 267 l 718 274 l 706 279 l 696 285 l 683 292 l 678 303 l 675 317 l 678 322 l 676 331 l 679 343 l 685 354 l 694 364 l 707 369 l 718 374 l 725 381 l 726 393 l 724 404 l 724 413 l 718 421 l 714 424 l 689 443 l 683 447 l 663 453 l 658 456 l 650 456 l 639 453 l 625 451 l 611 451 l 606 453 l 592 456 l 579 460 l 571 468 l 572 475 l 569 483 l 578 493 l 586 501 l 583 514 l 571 521 l 563 529 l 550 538 l 540 544 l 525 554 l 515 560 l 506 569 l 493 578 l 482 585 l 469 592 l 465 594 l 454 601 l 450 606 l 446 608 l 439 613 l 428 614 l 413 611 l 408 608 l 394 606 l 389 603 l 382 603 l 369 597 l 358 596 l 344 590 l 329 588 l 315 582 l 290 576 l 279 575 l 272 571 l 261 569 l 254 567 l 250 567 l 236 564 l 222 558 l 210 554 l 196 551 l 182 547 l 167 543 l 156 542 l 144 536 l 138 535 l 129 531 l 117 526 l 100 524 l 86 521 l 76 514 l 72 503 l 71 486 l 69 472 l 71 457 l 72 443 l 71 428 l 71 408 l 69 400 l 69 393 l 71 386 l 72 372 l 72 358 l 71 344 l 69 332 l 74 319 l 88 311 l 100 304 l 110 299 l 119 290 l 124 275 l 124 267 l 119 254 l 111 243 l 103 235 l 90 231 l 83 233 l 74 228 l 72 215 l 74 204 l 72 190 l 74 183 l 79 175 l 88 172 l 100 169 l 131 165 l 158 160 l 171 157 l 182 157 l 196 153 l 208 151 l 225 150 l 240 144 l 251 142 l 265 140 l 279 136 l 308 133 l 333 128 l 360 125 l 375 119 l 389 119 l 403 117 l 414 114 l 443 111 l 456 107 l 469 104 l 485 103 l 497 99 l 508 100 l 515 106 l 525 114 l 529 124 l 540 132 l 550 133 l 557 135 l 563 133 l 576 132 l 586 125 l 589 118 l 594 114 l 597 100 l 601 88 l 604 82 l 615 79 l 636 75 l 643 75 l 656 74 l 667 69 l 692 64 l 706 61 l 717 60 l 722 64 l 725 71 l 725 76 l 726 92 l 726 103 l 728 117 l 725 132 l 725 156 l 726 171 l 725 186 l 728 199 z m 307 531 l 303 531 l 301 533 l 301 536 l 303 538 l 304 536 l 306 536 l 308 533 z m 160 532 l 161 533 l 165 535 l 169 532 l 168 529 l 167 528 l 163 526 l 160 531 z m 419 439 l 407 439 l 392 440 l 364 446 l 346 454 l 339 454 l 333 458 l 326 471 l 328 489 l 335 503 l 350 514 l 372 519 l 390 521 l 404 521 l 424 517 l 446 506 l 460 486 l 467 469 l 457 456 l 447 447 z m 203 508 l 207 514 l 210 513 l 211 510 l 208 504 l 201 501 z m 249 503 l 246 503 l 243 506 l 246 508 l 251 508 l 253 506 l 251 504 z m 276 499 l 274 497 l 271 499 l 269 503 l 269 506 l 272 507 l 275 506 l 276 503 z m 138 482 l 140 485 l 142 488 l 146 486 l 150 486 l 146 482 l 140 479 l 138 479 z m 225 478 l 217 475 l 211 478 l 210 482 l 211 485 l 218 485 z m 179 482 l 182 481 l 182 476 l 176 474 l 174 471 l 172 468 l 169 469 l 165 469 l 164 474 l 165 476 l 167 478 l 175 483 z m 106 453 l 101 456 l 99 457 l 99 467 l 101 474 l 103 476 l 104 478 l 107 478 l 108 475 l 108 474 l 110 471 l 113 467 l 114 464 l 111 460 l 110 454 l 113 449 z m 119 422 l 124 422 l 126 421 l 129 418 l 129 415 l 131 410 l 132 407 l 138 413 l 147 414 l 150 417 l 151 419 l 154 424 l 156 425 l 153 432 l 151 436 l 151 446 l 154 446 l 158 447 l 157 446 l 156 443 l 158 439 l 158 438 l 160 435 l 160 433 l 161 432 l 163 425 l 163 422 l 164 418 l 164 410 l 158 404 l 158 396 l 156 389 l 150 392 l 143 393 l 140 397 l 135 401 l 132 407 l 129 404 l 128 400 l 121 397 l 117 400 l 114 401 l 113 406 l 113 418 l 111 424 z m 132 444 l 138 443 l 142 442 l 140 440 l 140 439 l 135 438 l 129 438 l 125 440 l 121 444 z m 104 381 l 103 385 l 101 388 l 101 393 l 106 393 l 107 386 z m 136 365 l 136 363 l 132 358 l 129 360 l 126 364 l 128 365 l 129 369 l 128 372 l 128 375 l 124 381 l 125 388 l 131 388 l 136 381 l 136 372 l 135 371 l 135 369 z m 121 378 l 119 375 l 117 372 l 115 376 l 115 378 l 117 381 l 118 382 l 119 379 z m 161 353 l 153 350 l 147 350 l 146 354 l 143 358 l 143 361 l 142 365 l 140 371 l 142 374 l 143 378 l 150 378 l 151 374 l 153 371 l 157 368 l 160 365 l 161 365 l 164 361 l 165 358 l 171 358 l 167 356 z m 421 364 l 414 357 l 413 367 l 415 375 l 418 375 l 421 372 z m 497 364 l 496 363 l 496 360 l 492 357 l 489 357 l 488 358 l 488 361 l 489 363 l 490 365 l 492 367 l 493 369 l 494 368 l 496 368 l 497 365 z m 118 349 l 115 350 l 111 354 l 111 364 l 115 361 l 119 357 l 122 351 l 121 349 z m 122 329 l 121 331 l 119 333 l 119 335 l 121 339 l 124 342 l 124 343 l 129 346 l 133 347 l 136 349 l 138 350 l 139 347 l 140 346 l 138 342 l 135 339 l 133 339 l 128 331 l 128 329 z m 165 350 l 165 349 l 163 346 l 161 343 l 158 342 l 154 340 l 150 340 l 153 346 l 156 347 l 157 349 l 160 349 z m 543 350 l 550 349 l 547 340 l 544 340 l 542 342 l 542 344 l 540 346 z m 183 300 l 182 299 l 176 299 l 175 296 l 172 296 l 172 294 l 171 293 l 167 288 l 167 282 l 168 279 l 167 276 l 164 276 l 163 275 l 160 278 l 157 279 l 156 279 l 151 281 l 149 281 l 153 288 l 157 288 l 160 289 l 165 300 l 165 306 l 164 311 l 168 314 l 167 321 l 164 332 l 164 338 l 163 339 l 163 340 l 164 343 l 167 346 l 169 344 l 175 338 l 178 333 l 188 314 l 188 310 l 189 308 z m 442 335 l 438 335 l 433 336 l 429 339 l 431 343 l 439 346 l 444 343 l 449 340 l 446 338 z m 288 328 l 286 326 l 285 326 l 282 328 l 281 329 l 278 333 l 278 340 l 281 338 l 285 336 l 286 333 l 288 329 z m 194 315 l 193 317 l 196 325 l 199 329 l 200 335 l 203 339 l 206 338 l 206 328 l 207 322 l 207 313 l 204 311 l 200 311 l 196 313 z m 143 310 l 142 307 l 139 304 l 138 306 l 129 308 l 126 310 l 126 322 l 128 324 l 131 324 l 136 326 l 139 326 l 144 329 l 146 328 l 151 326 l 160 324 l 156 321 l 150 318 l 147 314 z m 397 321 l 393 317 l 390 315 l 388 311 l 385 308 l 376 310 l 374 315 l 382 324 l 388 328 l 396 328 l 397 326 z m 182 279 l 179 276 l 176 275 l 175 275 l 174 274 l 174 279 l 175 281 l 175 283 l 178 285 l 181 283 l 182 282 z m 543 275 l 539 282 l 540 285 l 543 285 l 550 281 l 550 275 l 551 269 z m 206 269 l 206 267 l 204 265 l 204 264 l 201 265 l 200 265 l 199 268 l 200 271 l 203 274 l 204 274 z m 232 263 l 231 258 l 228 256 l 225 254 l 219 254 l 217 257 l 215 260 l 215 267 l 219 269 l 222 272 l 225 272 l 231 269 l 232 265 z m 214 233 l 213 231 l 208 233 l 207 236 l 210 239 l 211 238 l 213 238 l 214 236 l 217 235 l 215 235 z m 210 217 l 206 211 l 203 208 l 199 207 l 200 214 l 201 222 l 201 224 l 210 225 z m 229 210 l 228 207 l 224 203 l 217 203 l 219 206 l 221 208 l 226 211 l 231 214 z m 267 196 l 264 192 l 260 192 l 257 193 l 257 196 l 260 199 l 265 200 l 267 199 z m 494 163 l 490 154 l 485 147 l 478 144 l 465 144 l 457 147 l 447 156 l 446 163 l 446 175 l 447 182 l 457 193 l 478 193 l 483 192 l 493 185 l 494 175 z m 363 183 l 357 178 l 356 186 l 358 192 l 360 192 l 363 190 z m 303 176 l 300 174 l 296 172 l 293 175 l 293 178 l 294 179 l 297 181 l 301 181 l 304 179 z m 258 154 l 256 154 l 253 157 l 251 160 l 254 163 l 256 161 l 258 160 z "},"h":{"ha":854,"x_min":0,"x_max":0,"o":"m 781 314 l 775 300 l 774 282 l 775 271 l 772 257 l 772 213 l 774 186 l 774 171 l 772 157 l 774 144 l 775 129 l 774 117 l 778 103 l 776 90 l 768 71 l 756 65 l 744 58 l 721 53 l 704 53 l 694 54 l 667 60 l 650 61 l 636 61 l 624 63 l 611 65 l 597 67 l 585 71 l 568 71 l 554 72 l 540 72 l 526 75 l 515 78 l 499 81 l 475 82 l 460 83 l 444 86 l 432 86 l 417 92 l 403 90 l 390 92 l 376 94 l 364 94 l 349 97 l 338 101 l 321 101 l 293 104 l 283 106 l 269 107 l 239 111 l 228 114 l 213 114 l 185 118 l 171 119 l 160 121 l 118 128 l 93 140 l 82 149 l 69 178 l 81 211 l 86 236 l 82 261 l 78 272 l 71 297 l 76 325 l 85 336 l 89 347 l 92 372 l 83 382 l 81 396 l 74 406 l 78 433 l 88 443 l 92 458 l 110 485 l 126 503 l 142 511 l 154 515 l 164 524 l 178 529 l 190 538 l 203 543 l 217 551 l 226 558 l 242 565 l 253 569 l 264 579 l 276 583 l 289 590 l 303 597 l 329 603 l 344 603 l 361 601 l 375 601 l 390 600 l 415 593 l 426 588 l 436 586 l 461 575 l 472 567 l 486 558 l 496 550 l 510 540 l 519 535 l 532 524 l 542 519 l 554 511 l 565 503 l 579 492 l 589 485 l 599 479 l 614 468 l 625 461 l 635 453 l 649 447 l 657 439 l 668 432 l 682 422 l 694 415 l 704 406 l 718 400 l 728 389 l 739 382 l 750 372 l 761 365 l 782 344 l 785 324 z m 465 540 l 464 543 l 464 546 l 458 549 l 457 549 l 454 546 l 454 542 l 458 539 l 463 539 z m 375 544 l 365 543 l 356 543 l 354 540 l 353 535 l 350 526 l 353 529 l 356 531 l 363 529 l 368 526 l 376 540 l 376 542 z m 275 542 l 268 542 l 264 539 l 261 536 l 269 533 l 272 536 l 276 538 l 276 540 z m 296 514 l 300 513 l 317 518 l 321 528 l 322 533 l 324 536 l 311 535 l 299 535 l 290 532 l 288 526 l 286 522 l 290 515 z m 258 518 l 260 517 l 263 517 l 264 518 l 267 519 l 264 522 l 261 522 l 260 521 l 257 519 l 256 518 z m 242 511 l 243 517 l 244 521 l 239 519 l 235 518 l 233 517 l 231 508 l 232 506 l 235 504 l 238 508 l 240 510 z m 414 514 l 407 521 l 400 519 l 397 517 l 399 515 l 399 514 l 406 513 z m 336 513 l 335 511 l 335 506 l 333 500 l 338 496 l 340 494 l 340 497 l 342 500 l 344 507 l 344 519 l 340 515 z m 247 500 l 246 497 l 249 494 l 251 493 l 258 497 l 263 497 l 267 499 l 272 500 l 274 504 l 276 508 l 276 513 l 275 515 l 267 514 l 263 507 l 258 506 l 257 504 l 249 504 z m 340 485 l 336 483 l 332 486 l 328 488 l 319 486 l 310 496 l 307 507 l 300 511 l 297 510 l 294 507 l 290 501 l 288 496 l 289 489 l 286 482 l 294 479 l 299 481 l 301 482 l 310 476 l 318 476 l 325 479 l 333 481 l 335 478 l 338 475 l 342 475 l 343 478 l 343 481 l 342 482 z m 221 492 l 229 486 l 233 482 l 236 485 l 238 488 l 235 490 l 228 501 l 226 501 l 222 503 l 217 506 l 215 503 l 214 501 l 215 496 z m 193 496 l 189 492 l 193 485 l 200 475 l 201 468 l 203 463 l 204 465 l 208 469 l 213 475 l 214 478 l 214 481 l 213 486 l 210 496 l 207 499 l 206 499 l 201 500 l 196 500 z m 436 490 l 435 494 l 424 494 l 418 493 l 417 488 l 418 485 l 421 482 l 424 482 l 428 483 l 435 482 l 436 485 l 439 486 z m 486 488 l 486 492 l 485 493 l 476 493 l 474 490 l 469 488 l 478 485 z m 265 438 l 271 436 l 275 435 l 276 436 l 278 439 l 278 440 l 279 443 l 275 446 l 269 449 l 263 450 l 260 451 l 257 460 l 258 460 l 260 463 l 264 467 l 267 478 l 269 481 l 272 482 l 274 483 l 272 492 l 260 492 l 257 489 l 253 486 l 250 483 l 246 481 l 240 475 l 242 469 l 247 461 l 253 457 l 260 451 l 257 453 l 254 447 l 256 444 l 257 443 z m 225 449 l 219 453 l 214 453 l 213 454 l 208 454 l 204 456 l 196 456 l 192 457 l 189 457 l 188 458 l 186 461 l 172 461 l 165 464 l 161 467 l 158 467 l 158 468 l 160 472 l 160 476 l 153 483 l 150 478 l 150 476 l 147 474 l 147 471 l 144 468 l 143 461 l 142 460 l 140 457 l 139 453 l 139 450 l 140 446 l 142 446 l 144 447 l 146 449 l 147 451 l 151 453 l 154 454 l 163 451 l 164 450 l 165 451 l 167 449 l 167 447 l 169 446 l 169 443 l 171 439 l 172 438 l 182 435 l 188 435 l 189 436 l 192 436 l 197 439 l 203 440 l 207 440 l 218 443 l 221 443 l 225 444 z m 238 453 l 238 463 l 233 467 l 228 469 l 225 464 l 225 458 l 226 454 l 229 453 l 231 451 l 233 451 l 236 450 z m 464 468 l 463 467 l 461 467 l 458 463 l 461 454 l 469 451 l 469 457 l 471 461 z m 454 464 l 447 456 l 449 451 l 451 451 l 457 453 l 458 458 l 456 461 z m 515 451 l 514 456 l 511 457 l 507 457 l 507 453 l 501 453 l 508 446 l 517 444 l 518 447 l 518 450 z m 336 444 l 332 442 l 325 442 l 321 443 l 317 440 l 317 435 l 321 431 l 322 426 l 326 428 l 332 432 l 336 439 l 339 440 l 339 443 z m 140 428 l 143 425 l 150 425 l 151 429 l 153 431 l 153 436 l 151 438 l 150 440 l 147 438 l 139 433 l 139 431 z m 526 435 l 524 432 l 521 428 l 522 424 l 526 424 l 529 426 l 531 431 l 531 433 z m 218 418 l 217 421 l 213 422 l 208 425 l 203 426 l 199 429 l 196 429 l 193 431 l 190 428 l 190 425 l 192 424 l 192 422 l 193 421 l 197 418 l 199 419 l 210 419 l 214 418 z m 581 426 l 575 426 l 574 422 l 575 418 l 578 418 l 581 419 z m 422 421 l 417 419 l 414 414 l 410 410 l 413 407 l 419 408 l 425 407 l 426 410 l 426 415 z m 356 415 l 351 414 l 350 411 l 353 410 l 356 407 l 360 408 l 361 411 l 358 414 z m 293 399 l 293 401 l 290 404 l 288 406 l 285 406 l 282 404 l 286 400 l 286 396 l 283 389 l 286 382 l 288 382 l 290 383 l 296 390 z m 160 389 l 161 389 l 161 393 l 163 397 l 160 400 l 157 399 l 154 394 l 154 390 l 157 388 z m 189 376 l 188 378 l 188 381 l 186 385 l 181 386 l 175 386 l 171 385 l 171 383 l 168 381 l 167 376 l 168 374 l 168 371 l 172 368 l 175 367 l 179 368 l 182 368 l 186 372 z m 150 356 l 147 353 l 149 351 l 149 349 l 153 347 l 154 347 l 157 350 l 151 356 z m 282 351 l 275 351 l 265 349 l 260 349 l 258 339 l 265 335 l 282 342 z m 147 329 l 150 332 l 150 336 l 149 342 l 142 343 l 140 339 l 140 328 l 143 326 z m 281 321 l 282 318 l 283 317 l 285 311 l 281 310 l 278 310 l 275 307 l 278 306 l 279 304 l 283 306 l 286 307 l 289 310 l 290 314 l 285 318 z m 165 311 l 161 313 l 156 314 l 151 313 l 149 313 l 149 310 l 151 307 l 158 307 l 163 310 z m 690 292 l 689 288 l 688 285 l 688 281 l 689 278 l 692 276 l 693 278 l 694 281 l 694 285 l 693 288 z m 167 267 l 161 269 l 158 268 l 158 264 l 160 263 l 161 260 l 163 258 l 165 257 l 168 258 l 168 264 z m 124 258 l 121 263 l 117 261 l 115 260 l 115 258 z m 242 260 l 240 261 l 238 257 l 239 253 l 240 251 l 243 253 l 246 256 l 244 260 z m 143 226 l 140 224 l 140 218 l 142 217 l 143 214 l 146 214 l 149 215 l 149 221 l 146 226 z m 672 201 l 668 203 l 664 201 l 663 200 l 663 190 l 661 188 l 663 185 l 664 183 l 668 185 l 671 186 l 672 188 l 674 192 l 674 199 z m 188 192 l 186 188 l 185 185 l 185 174 l 188 178 l 190 181 l 192 188 z m 640 175 l 635 178 l 633 176 l 631 175 l 633 171 l 636 168 l 642 168 l 643 169 l 643 172 z m 578 160 l 575 161 l 572 158 l 572 154 l 574 150 l 576 149 l 579 150 l 581 150 l 581 154 l 579 158 z m 656 154 l 653 151 l 649 149 l 646 140 l 647 140 l 649 139 l 651 139 l 654 142 l 656 146 z m 483 147 l 478 143 l 485 139 l 492 143 l 492 146 l 490 147 z m 539 124 l 536 122 l 536 119 l 539 118 l 542 115 l 544 118 l 543 124 z "},"i":{"ha":1146,"x_min":0,"x_max":0,"o":"m 1072 969 l 1064 971 l 1064 961 l 1060 936 l 1056 921 l 1047 922 l 1047 931 l 1040 940 l 1040 924 l 1028 894 l 1015 886 l 1010 896 l 1019 925 l 1018 946 l 1014 949 l 1007 943 l 1004 925 l 1006 936 l 994 969 l 986 986 l 981 990 l 986 972 l 989 940 l 986 942 l 979 958 l 974 972 l 971 953 l 972 942 l 978 904 l 978 883 l 974 867 l 969 853 l 964 824 l 944 796 l 933 785 l 914 776 l 904 788 l 913 797 l 917 811 l 917 849 l 918 864 l 913 888 l 907 864 l 904 853 l 900 817 l 897 801 l 889 788 l 888 775 l 876 756 l 865 756 l 858 744 l 850 747 l 844 747 l 838 757 l 831 761 l 829 778 l 828 797 l 825 813 l 824 846 l 825 863 l 825 875 l 818 894 l 815 879 l 810 867 l 808 833 l 808 804 l 811 786 l 803 775 l 778 790 l 761 819 l 754 836 l 749 868 l 750 886 l 750 919 l 758 947 l 758 965 l 751 949 l 743 935 l 742 918 l 733 904 l 725 910 l 722 933 l 715 947 l 710 944 l 706 926 l 710 911 l 714 888 l 710 872 l 701 874 l 686 886 l 678 913 l 681 949 l 679 960 l 674 946 l 668 940 l 658 919 l 656 919 l 656 944 l 654 961 l 640 949 l 635 931 l 644 904 l 650 883 l 660 869 l 672 847 l 679 829 l 704 810 l 728 790 l 736 771 l 739 736 l 750 719 l 767 703 l 778 706 l 792 690 l 792 664 l 785 656 l 775 642 l 760 624 l 746 618 l 731 614 l 697 604 l 681 604 l 667 611 l 611 611 l 574 606 l 558 599 l 525 593 l 504 597 l 489 596 l 453 597 l 436 594 l 424 594 l 403 596 l 389 596 l 343 599 l 324 607 l 310 608 l 278 607 l 228 597 l 214 590 l 185 576 l 171 572 l 156 561 l 144 554 l 117 539 l 103 510 l 101 479 l 108 461 l 118 444 l 122 439 l 136 428 l 139 410 l 151 379 l 149 340 l 139 326 l 119 294 l 106 289 l 88 261 l 75 238 l 69 217 l 74 186 l 72 169 l 71 147 l 74 132 l 75 117 l 76 97 l 75 78 l 78 63 l 78 43 l 82 25 l 83 13 l 104 0 l 115 21 l 107 35 l 113 65 l 107 76 l 106 97 l 107 113 l 104 126 l 106 140 l 104 160 l 114 182 l 124 199 l 142 226 l 163 244 l 179 260 l 193 264 l 194 265 l 188 246 l 174 217 l 181 192 l 190 179 l 193 169 l 204 147 l 210 135 l 218 119 l 224 110 l 231 92 l 244 61 l 251 47 l 272 14 l 293 1 l 306 1 l 308 14 l 296 42 l 292 63 l 282 75 l 278 89 l 267 103 l 261 124 l 251 136 l 243 174 l 244 207 l 264 240 l 268 254 l 278 267 l 288 282 l 296 296 l 303 311 l 314 319 l 322 335 l 347 340 l 368 339 l 401 322 l 419 324 l 432 326 l 465 318 l 483 317 l 504 308 l 519 308 l 556 306 l 569 307 l 586 310 l 618 306 l 625 281 l 629 264 l 633 244 l 636 229 l 633 211 l 639 197 l 642 181 l 646 147 l 650 97 l 650 86 l 651 64 l 650 47 l 658 24 l 678 11 l 689 14 l 692 31 l 682 64 l 683 76 l 682 93 l 685 135 l 683 151 l 685 185 l 688 200 l 690 213 l 689 228 l 694 257 l 699 269 l 700 283 l 718 307 l 746 331 l 757 347 l 769 381 l 783 394 l 789 404 l 817 428 l 826 438 l 840 446 l 856 460 l 869 464 l 882 492 l 892 519 l 889 538 l 896 554 l 894 574 l 899 586 l 897 603 l 903 624 l 904 636 l 903 657 l 915 686 l 932 690 l 947 699 l 965 726 l 978 757 l 965 765 l 965 772 l 1000 797 l 1024 808 l 1036 835 l 1044 844 l 1049 858 l 1054 879 l 1050 886 l 1060 897 l 1075 931 l 1076 957 z m 1026 850 l 1007 819 l 1003 824 l 1015 854 l 1029 867 l 1031 861 z m 267 576 l 269 578 l 274 576 l 276 572 l 290 571 l 299 569 l 303 563 l 310 563 l 317 558 l 313 553 l 311 547 l 303 540 l 297 538 l 293 544 l 293 554 l 286 564 l 279 564 l 272 569 l 268 569 l 267 574 z m 326 553 l 333 554 l 340 561 l 350 565 l 350 572 l 357 560 l 357 546 l 333 542 l 325 546 z m 417 571 l 428 557 l 431 554 l 431 550 l 428 547 l 424 546 l 419 547 l 418 551 l 417 560 l 414 569 z m 367 560 l 372 563 l 378 554 l 374 549 l 368 546 l 365 550 l 364 554 z m 268 546 l 258 542 l 261 551 l 267 561 l 269 560 l 271 556 z m 385 560 l 389 560 l 403 551 l 417 542 l 421 538 l 422 529 l 421 526 l 417 524 l 417 521 l 415 518 l 417 517 l 417 510 l 419 504 l 424 504 l 424 501 l 421 497 l 415 497 l 403 494 l 403 503 l 408 507 l 407 518 l 400 528 l 400 529 l 401 532 l 388 549 l 383 553 l 382 557 z m 667 547 l 664 540 l 661 550 l 663 556 l 664 556 l 667 554 z m 478 531 l 474 528 l 467 532 l 465 540 l 467 544 l 474 547 l 478 543 l 481 536 z m 568 533 l 565 533 l 564 535 l 567 539 l 569 542 l 572 542 l 574 539 l 572 535 z m 328 531 l 321 528 l 315 529 l 315 535 l 322 539 l 331 539 l 333 536 l 340 538 l 343 532 l 339 528 l 332 532 l 331 531 z m 353 536 l 358 539 l 361 531 l 365 521 l 364 517 l 360 515 l 354 524 l 354 533 z m 532 526 l 531 525 l 529 525 l 526 531 l 528 539 l 532 533 z m 251 529 l 250 524 l 246 522 l 243 522 l 240 525 l 238 531 l 240 538 l 244 535 l 249 533 l 251 535 l 253 536 z m 292 519 l 282 522 l 272 524 l 281 538 l 296 538 l 303 533 l 304 526 l 299 519 z m 385 528 l 383 518 l 383 514 l 382 511 l 374 508 l 369 515 l 369 517 l 368 518 l 374 533 l 390 536 z m 613 531 l 610 526 l 606 525 l 603 526 l 603 531 l 606 533 l 610 535 l 613 533 z m 213 515 l 214 522 l 219 528 l 221 526 l 221 525 l 219 518 z m 461 518 l 457 518 l 454 521 l 453 524 l 456 525 l 458 525 l 463 524 l 464 521 z m 499 518 l 496 517 l 493 521 l 497 525 l 500 522 z m 325 519 l 322 518 l 321 521 l 319 522 l 322 524 l 324 524 l 326 522 l 328 519 z m 518 515 l 513 514 l 506 514 l 506 521 l 513 524 l 518 518 z m 350 518 l 344 513 l 336 514 l 342 521 l 349 522 l 350 521 z m 185 492 l 182 493 l 179 496 l 178 500 l 181 504 l 182 510 l 183 514 l 188 517 l 190 518 l 194 515 l 194 511 l 192 504 l 190 499 l 186 497 z m 435 506 l 432 503 l 426 511 l 428 514 l 431 515 l 435 514 l 436 508 z m 314 506 l 307 507 l 307 510 l 308 511 l 314 513 l 319 508 z m 578 499 l 576 497 l 574 499 l 571 501 l 574 504 l 576 504 l 578 500 z m 290 490 l 286 490 l 285 493 l 286 494 l 290 494 l 292 492 z m 375 486 l 371 485 l 367 488 l 363 488 l 358 486 l 356 489 l 358 493 l 371 493 l 375 489 z m 471 481 l 467 481 l 467 485 l 469 485 l 472 482 z m 313 474 l 310 471 l 307 472 l 303 472 l 300 471 l 299 471 l 299 472 l 300 474 l 303 478 l 307 481 l 310 482 l 310 479 l 313 476 z m 400 464 l 394 465 l 394 469 l 393 475 l 394 481 l 401 479 l 404 468 z m 429 475 l 425 475 l 422 478 l 414 476 l 418 481 l 425 481 l 429 479 z m 340 467 l 339 463 l 335 465 l 332 469 l 335 472 l 336 475 l 340 474 l 342 469 z m 250 461 l 246 460 l 242 461 l 242 464 l 244 467 l 246 471 l 249 469 l 249 467 l 251 464 z m 211 458 l 210 456 l 204 460 l 201 467 l 208 464 l 213 460 z m 185 451 l 178 447 l 175 454 l 179 461 l 182 461 l 185 460 z m 258 428 l 256 431 l 257 433 l 258 435 l 261 435 l 264 428 z m 204 418 l 201 417 l 200 418 l 199 421 l 199 424 l 201 426 l 204 424 z m 239 400 l 233 397 l 231 400 l 235 403 l 240 406 z m 200 396 l 196 394 l 193 394 l 190 397 l 193 401 l 200 401 l 201 399 z m 222 360 l 219 360 l 218 363 l 219 365 l 222 367 l 226 364 z "},"j":{"ha":1379,"x_min":0,"x_max":0,"o":"m 1304 194 l 1289 224 l 1281 257 l 1276 268 l 1271 285 l 1265 300 l 1256 333 l 1249 350 l 1244 363 l 1242 383 l 1235 399 l 1229 438 l 1233 450 l 1233 472 l 1235 483 l 1236 506 l 1229 531 l 1224 558 l 1225 589 l 1218 603 l 1194 622 l 1182 626 l 1163 617 l 1144 618 l 1131 632 l 1108 639 l 1096 629 l 1082 615 l 1072 626 l 1056 635 l 1040 643 l 1025 644 l 1013 656 l 997 658 l 979 669 l 968 671 l 951 682 l 936 686 l 921 696 l 907 703 l 889 703 l 878 713 l 864 722 l 832 726 l 813 728 l 793 725 l 779 724 l 761 717 l 744 718 l 724 721 l 708 719 l 690 717 l 674 718 l 647 706 l 619 694 l 600 696 l 583 699 l 565 696 l 550 703 l 535 697 l 515 703 l 499 703 l 482 707 l 468 703 l 447 707 l 417 710 l 382 703 l 363 693 l 333 676 l 322 667 l 310 658 l 296 651 l 268 631 l 260 621 l 242 614 l 225 613 l 219 626 l 229 644 l 239 657 l 250 675 l 265 697 l 274 711 l 296 736 l 319 760 l 335 781 l 326 785 l 300 781 l 265 765 l 232 736 l 218 718 l 211 708 l 189 678 l 185 661 l 175 631 l 178 611 l 183 586 l 192 567 l 196 542 l 189 528 l 185 511 l 182 497 l 181 465 l 181 446 l 176 436 l 172 406 l 168 388 l 165 375 l 164 361 l 160 333 l 160 314 l 151 289 l 142 276 l 133 265 l 122 232 l 124 224 l 114 190 l 107 169 l 88 140 l 74 106 l 74 89 l 69 75 l 69 58 l 76 51 l 85 38 l 101 13 l 113 0 l 131 4 l 136 18 l 135 35 l 132 47 l 140 79 l 147 90 l 154 103 l 164 118 l 174 129 l 185 142 l 192 156 l 201 168 l 222 192 l 239 197 l 251 206 l 264 210 l 289 231 l 300 246 l 315 260 l 340 258 l 349 233 l 342 215 l 333 192 l 333 165 l 343 157 l 357 125 l 360 107 l 368 97 l 385 64 l 386 47 l 408 22 l 439 15 l 457 10 l 485 10 l 479 25 l 469 38 l 456 60 l 451 82 l 442 94 l 440 107 l 435 122 l 436 154 l 443 169 l 456 193 l 468 211 l 474 218 l 488 217 l 504 211 l 517 214 l 561 236 l 582 242 l 618 240 l 638 235 l 654 231 l 689 235 l 729 219 l 728 190 l 722 174 l 729 146 l 733 111 l 732 76 l 728 56 l 728 40 l 750 17 l 782 8 l 800 28 l 793 46 l 792 61 l 790 93 l 796 107 l 799 115 l 803 136 l 817 167 l 821 179 l 828 197 l 833 215 l 850 219 l 876 197 l 892 188 l 911 178 l 940 167 l 960 160 l 993 160 l 1021 149 l 1025 128 l 1033 118 l 1051 78 l 1060 68 l 1071 69 l 1086 57 l 1097 58 l 1100 75 l 1100 121 l 1096 133 l 1086 161 l 1074 175 l 1065 192 l 1057 211 l 1044 233 l 1060 236 l 1075 232 l 1103 217 l 1121 214 l 1156 211 l 1169 206 l 1183 196 l 1200 190 l 1210 208 l 1211 226 l 1225 215 l 1228 203 l 1239 169 l 1261 164 l 1282 179 l 1300 176 l 1310 183 z m 731 675 l 726 686 l 728 693 l 731 693 l 733 692 l 735 683 z m 407 679 l 408 682 l 415 681 l 424 678 l 431 675 l 433 674 l 436 671 l 440 668 l 440 663 l 438 660 l 432 658 l 425 658 l 414 669 l 408 674 l 404 676 z m 611 668 l 615 671 l 618 671 l 619 668 l 618 664 l 614 661 l 610 661 l 608 664 z m 503 650 l 497 646 l 489 650 l 485 658 l 486 665 l 493 669 l 500 665 l 504 658 z m 564 667 l 569 658 l 569 651 l 568 649 l 565 649 l 563 656 z m 665 656 l 660 654 l 656 656 l 656 660 l 660 664 l 664 665 l 667 664 l 668 660 z m 443 599 l 443 596 l 442 593 l 439 590 l 433 599 l 436 606 l 435 608 l 433 610 l 426 618 l 414 622 l 413 625 l 413 628 l 399 632 l 386 636 l 381 638 l 375 642 l 376 646 l 382 649 l 401 650 l 411 649 l 424 650 l 425 649 l 428 649 l 431 646 l 436 636 l 432 628 l 433 626 l 433 622 l 435 619 l 438 613 l 440 610 l 442 607 l 443 607 l 444 603 z m 531 640 l 526 638 l 524 639 l 522 640 l 524 643 l 525 647 l 531 644 z m 551 636 l 546 635 l 538 633 l 538 643 l 546 646 l 553 640 z m 363 639 l 368 639 l 372 636 l 374 626 l 369 619 l 364 624 l 360 626 l 358 633 z m 476 639 l 485 639 l 488 635 l 485 632 l 481 632 l 476 633 l 474 636 z m 328 607 l 331 618 l 336 628 l 333 636 l 349 626 l 360 613 l 343 600 l 335 593 l 325 592 l 321 600 z m 888 628 l 886 625 l 876 625 l 869 632 l 879 633 l 888 632 z m 621 626 l 625 625 l 628 622 l 628 618 l 625 617 l 622 618 l 618 622 l 619 624 z m 388 593 l 383 611 l 397 625 l 397 613 l 403 601 l 407 594 l 400 586 l 390 590 z m 456 611 l 453 607 l 444 615 l 444 619 l 449 621 l 454 621 l 457 615 z m 381 583 l 369 588 l 363 597 l 360 600 l 363 606 l 372 600 l 382 593 l 383 588 z m 315 547 l 307 542 l 304 542 l 300 540 l 297 539 l 293 538 l 289 546 l 286 553 l 300 564 l 293 568 l 289 574 l 286 578 l 278 581 l 268 582 l 254 574 l 240 571 l 239 569 l 239 561 l 233 558 l 231 561 l 229 567 l 232 576 l 242 576 l 269 592 l 276 596 l 282 597 l 290 593 l 299 599 l 307 599 l 307 590 l 310 583 l 304 571 l 300 564 l 311 564 l 317 557 z m 324 569 l 322 574 l 326 582 l 335 588 l 339 588 l 346 593 l 353 590 l 350 583 l 342 582 l 340 579 l 338 578 l 333 569 l 325 568 z m 989 583 l 988 579 l 982 579 l 979 583 l 982 592 l 986 593 l 990 589 z m 596 575 l 594 579 l 601 588 l 603 585 l 606 582 l 604 576 l 600 575 z m 367 571 l 357 567 l 358 576 l 364 583 l 367 582 l 368 579 z m 1074 568 l 1069 565 l 1060 571 l 1057 582 l 1068 582 l 1074 572 z m 661 568 l 653 571 l 646 576 l 656 578 l 661 574 z m 929 569 l 924 567 l 921 575 l 922 578 l 926 578 l 931 575 z m 439 560 l 433 563 l 431 568 l 432 572 l 435 576 l 440 574 l 444 568 z m 346 567 l 343 564 l 340 563 l 338 563 l 335 564 l 336 567 l 339 568 l 342 568 z m 493 565 l 492 564 l 488 557 l 482 553 l 478 553 l 476 556 l 472 560 l 474 564 l 476 568 l 481 567 l 488 567 l 490 568 l 493 568 z m 265 536 l 258 540 l 253 546 l 249 553 l 250 557 l 253 558 l 254 560 l 265 549 l 268 540 l 271 533 z m 339 543 l 332 540 l 331 542 l 331 544 l 336 550 l 343 549 z m 574 533 l 571 535 l 563 533 l 560 536 l 564 540 l 567 544 l 571 546 l 575 542 l 576 536 z m 1126 521 l 1119 524 l 1108 531 l 1107 540 l 1113 543 l 1121 538 l 1129 535 l 1131 526 z m 1063 533 l 1054 531 l 1051 532 l 1051 536 l 1058 542 l 1069 540 z m 513 535 l 510 535 l 506 536 l 504 538 l 506 540 l 513 540 l 514 538 z m 414 529 l 407 522 l 399 524 l 396 525 l 394 526 l 399 532 l 406 532 l 408 535 l 411 535 l 413 538 l 415 539 l 418 539 l 418 532 l 415 532 z m 683 524 l 679 524 l 675 526 l 675 532 l 676 538 l 682 536 l 685 533 l 686 528 z m 364 514 l 361 513 l 360 511 l 351 514 l 344 517 l 344 524 l 347 528 l 349 529 l 356 533 l 360 528 l 365 522 l 368 515 z m 653 529 l 651 526 l 649 525 l 646 528 l 646 531 l 649 532 l 653 531 z m 293 501 l 289 499 l 275 510 l 281 519 l 279 524 l 278 526 l 279 525 l 285 522 l 293 519 z m 425 504 l 424 504 l 422 503 l 421 503 l 419 501 l 417 503 l 418 506 l 422 510 l 424 510 l 425 508 z m 349 479 l 344 474 l 340 475 l 340 479 l 346 483 l 347 489 l 347 496 l 353 486 z m 624 483 l 621 481 l 617 479 l 614 482 l 614 489 l 622 486 z m 264 461 l 261 469 l 263 476 l 264 478 l 268 476 l 269 469 z m 549 460 l 543 468 l 540 478 l 547 478 l 551 469 z m 629 464 l 622 461 l 618 460 l 613 457 l 606 454 l 604 454 l 603 456 l 603 460 l 604 461 l 604 464 l 608 468 l 621 468 l 628 467 l 629 465 z m 439 458 l 436 457 l 432 461 l 433 465 l 436 467 l 439 465 l 440 463 z m 244 428 l 239 429 l 238 438 l 233 446 l 239 451 l 244 453 l 247 446 l 250 435 z m 1183 440 l 1186 442 l 1193 436 l 1194 428 l 1186 431 l 1182 438 z m 310 425 l 306 422 l 301 426 l 303 431 l 307 432 l 310 431 l 311 429 z m 336 415 l 333 414 l 332 413 l 329 417 l 331 421 l 333 421 l 338 418 z m 401 408 l 399 407 l 394 408 l 390 414 l 399 414 l 403 410 z m 219 396 l 226 401 l 231 401 l 233 397 l 229 389 l 218 386 z m 263 383 l 260 383 l 254 389 l 254 399 l 261 393 l 264 385 z m 238 344 l 236 342 l 232 342 l 231 344 l 231 347 l 232 350 l 236 351 l 239 349 z m 224 321 l 221 318 l 217 318 l 213 321 l 211 324 l 215 328 l 224 325 z m 233 268 l 229 267 l 226 268 l 226 271 l 229 275 l 233 275 l 236 269 z "},"k":{"ha":910,"x_min":0,"x_max":0,"o":"m 775 475 l 761 444 l 750 426 l 738 403 l 732 385 l 722 364 l 719 347 l 701 321 l 689 308 l 682 292 l 668 281 l 647 253 l 635 239 l 607 213 l 594 204 l 583 176 l 579 157 l 589 138 l 613 118 l 625 108 l 653 94 l 672 90 l 683 93 l 701 86 l 708 76 l 725 58 l 733 40 l 729 42 l 708 54 l 692 46 l 671 42 l 635 50 l 596 47 l 586 36 l 588 24 l 579 22 l 568 51 l 556 53 l 533 47 l 522 26 l 513 25 l 510 50 l 508 56 l 508 65 l 511 71 l 496 83 l 478 92 l 465 94 l 446 108 l 428 114 l 411 114 l 388 96 l 379 79 l 375 68 l 367 50 l 356 17 l 335 1 l 315 7 l 297 26 l 267 67 l 258 57 l 251 38 l 249 26 l 239 11 l 238 -7 l 233 -29 l 225 -40 l 213 -54 l 183 -56 l 156 -54 l 128 -40 l 104 -22 l 81 -1 l 72 17 l 69 28 l 81 44 l 93 57 l 110 67 l 119 74 l 133 82 l 139 90 l 128 101 l 129 108 l 143 135 l 157 144 l 165 161 l 163 169 l 158 183 l 163 196 l 182 225 l 193 236 l 199 249 l 208 265 l 224 276 l 229 294 l 243 304 l 246 319 l 232 321 l 208 314 l 201 326 l 211 349 l 222 363 l 231 376 l 239 399 l 254 425 l 271 436 l 283 442 l 297 456 l 308 463 l 335 483 l 349 500 l 358 508 l 374 518 l 401 533 l 418 550 l 433 557 l 463 578 l 488 599 l 511 607 l 536 657 l 546 672 l 567 696 l 579 711 l 589 722 l 618 735 l 635 749 l 663 751 l 676 756 l 678 772 l 661 801 l 661 832 l 669 842 l 692 822 l 700 808 l 713 793 l 728 772 l 751 758 l 763 753 l 792 729 l 806 719 l 822 690 l 825 676 l 832 663 l 840 628 l 836 603 l 835 585 l 835 568 l 825 542 l 817 526 l 810 513 l 801 514 l 796 536 l 790 536 l 788 510 l 781 490 z m 672 651 l 668 654 l 665 658 l 665 646 l 668 643 l 669 640 l 671 640 l 674 643 z m 538 639 l 535 635 l 535 631 l 540 628 l 543 632 l 542 636 l 540 639 z m 590 636 l 589 632 l 592 629 l 597 628 l 601 631 l 603 633 l 601 636 l 596 639 z m 696 600 l 693 604 l 688 608 l 689 600 l 693 596 l 694 597 z m 565 599 l 560 597 l 557 594 l 558 592 l 564 590 l 568 590 l 571 593 l 569 596 z m 600 578 l 599 576 l 599 572 l 600 571 l 601 571 l 603 572 l 603 578 z m 515 569 l 519 563 l 528 556 l 526 565 l 522 571 l 518 571 z m 486 558 l 492 553 l 501 557 l 501 565 l 497 568 l 492 564 z m 643 564 l 639 563 l 638 561 l 639 558 l 642 557 l 646 558 l 647 560 z m 489 546 l 485 549 l 479 547 l 479 543 l 483 540 l 488 539 l 489 543 z m 468 518 l 464 508 l 469 500 l 475 496 l 482 500 l 483 503 l 483 507 l 482 515 l 475 519 z m 443 507 l 447 507 l 450 510 l 453 514 l 451 518 l 447 518 l 444 515 l 443 510 z m 414 496 l 417 499 l 418 501 l 415 507 l 411 508 l 406 510 l 407 503 l 407 496 l 411 494 z m 401 433 l 403 426 l 401 419 l 404 415 l 410 414 l 413 418 l 414 422 l 415 429 l 419 439 l 421 449 l 424 456 l 424 467 l 418 476 l 408 476 l 407 479 l 403 479 l 403 482 l 396 489 l 396 497 l 399 501 l 397 504 l 390 506 l 385 500 l 382 499 l 378 496 l 369 492 l 376 485 l 386 485 l 393 472 l 396 458 l 399 457 l 400 454 l 401 440 z m 519 485 l 525 476 l 535 475 l 529 483 l 524 490 l 521 489 z m 444 431 l 446 431 l 449 432 l 447 442 l 446 454 l 447 458 l 443 463 l 435 460 l 431 456 l 433 450 z m 367 435 l 376 429 l 393 440 l 381 444 l 371 453 l 368 456 l 364 458 l 356 453 l 356 442 l 358 439 z m 357 413 l 360 408 l 367 411 l 363 421 l 357 433 l 351 436 l 347 435 l 349 422 z m 511 432 l 508 431 l 506 428 l 506 426 l 507 424 l 508 422 l 507 421 l 507 419 l 508 415 l 510 407 l 514 407 l 514 415 l 515 417 l 515 422 l 517 422 l 517 429 l 514 432 z m 324 414 l 335 413 l 343 417 l 343 419 l 340 422 l 331 422 z m 432 419 l 426 414 l 426 407 l 428 404 l 432 406 l 435 413 z m 493 418 l 488 418 l 490 410 l 494 410 l 496 411 l 496 417 z m 397 413 l 389 415 l 385 415 l 382 414 l 383 407 l 386 403 l 393 399 l 399 401 l 399 407 z m 358 374 l 360 375 l 371 375 l 382 379 l 386 376 l 389 374 l 389 376 l 386 382 l 383 392 l 372 407 l 371 406 l 371 403 l 368 400 l 356 392 l 346 385 l 344 381 l 343 375 l 351 369 l 356 372 z m 342 389 l 342 390 l 349 396 l 347 404 l 339 403 l 336 394 l 333 393 l 331 390 l 322 388 l 321 385 l 319 383 l 319 382 l 318 381 l 322 376 l 325 376 l 329 378 l 335 378 l 340 386 z m 290 390 l 289 389 l 288 386 l 288 385 l 289 383 l 292 383 l 301 393 l 301 394 l 303 397 l 303 403 l 300 401 l 299 400 l 297 400 l 294 397 l 293 394 z m 315 394 l 317 390 l 322 393 l 322 401 l 318 399 l 315 397 z m 451 379 l 450 376 l 451 372 l 454 372 l 456 374 l 457 376 l 454 379 z m 293 363 l 292 357 l 290 350 l 290 347 l 293 336 l 296 331 l 297 324 l 301 317 l 307 325 l 311 331 l 314 333 l 314 336 l 313 339 l 313 346 l 314 350 l 314 354 l 313 356 l 313 358 l 311 361 l 311 364 l 308 367 l 304 369 l 293 364 z m 342 343 l 349 342 l 349 338 l 353 338 l 356 336 l 358 332 l 361 332 l 364 331 l 365 333 l 367 335 l 367 338 l 363 342 l 361 342 l 361 340 l 358 340 l 357 342 l 357 343 l 356 344 l 356 346 l 354 346 l 351 347 l 347 349 l 347 350 l 350 353 l 349 356 l 349 357 l 344 358 l 342 358 l 338 361 l 333 363 l 332 363 l 328 361 l 322 360 l 321 360 l 321 358 l 319 358 l 318 357 l 318 356 l 317 356 l 315 354 l 315 353 l 321 347 l 328 346 l 335 346 z m 453 343 l 456 340 l 461 340 l 465 343 l 464 347 l 461 351 l 456 350 l 450 347 z m 340 315 l 349 326 l 347 326 l 346 328 l 340 329 l 336 325 l 331 321 l 329 314 l 329 307 z m 410 317 l 404 306 l 406 304 l 408 299 l 408 297 l 414 299 l 417 304 l 417 306 l 419 308 l 424 311 l 421 315 l 419 318 l 414 321 l 413 318 z m 310 276 l 311 276 l 314 275 l 317 276 l 322 278 l 326 282 l 329 282 l 329 283 l 328 285 l 328 286 l 322 292 l 324 294 l 324 297 l 325 299 l 322 297 l 318 293 l 311 289 l 311 285 l 310 285 z m 382 265 l 381 263 l 378 258 l 381 256 l 383 254 l 386 257 l 388 260 l 389 261 l 389 265 l 390 269 l 382 267 z m 415 257 l 419 257 l 424 256 l 424 264 l 421 265 l 418 268 l 414 268 l 411 265 l 413 261 l 414 258 z m 335 247 l 333 249 l 333 250 l 331 249 l 329 249 l 324 243 l 325 238 l 325 233 l 326 233 l 332 239 z m 268 238 l 268 232 l 269 229 l 275 229 l 275 231 l 276 232 l 275 235 l 274 236 l 271 238 z m 321 190 l 326 188 l 335 196 l 338 197 l 342 199 l 343 200 l 343 210 l 338 214 l 335 211 l 332 210 l 326 204 l 321 200 z m 436 207 l 432 204 l 429 201 l 431 199 l 432 197 l 435 197 l 439 200 l 442 203 l 440 207 z m 278 182 l 269 181 l 269 175 l 278 174 l 286 178 z m 301 158 l 297 158 l 292 150 l 294 139 l 303 144 l 304 154 z m 515 158 l 513 158 l 513 153 l 517 149 l 518 149 l 521 150 l 525 150 l 524 153 l 521 154 l 521 156 z m 457 154 l 453 156 l 449 153 l 450 150 l 450 147 l 458 150 l 460 153 z m 246 133 l 244 132 l 247 129 l 250 129 l 253 131 l 254 132 l 254 139 l 250 139 l 247 136 z m 242 110 l 239 113 l 235 110 l 236 106 l 239 103 l 243 101 l 246 101 l 246 107 z m 193 79 l 190 76 l 193 74 l 194 71 l 196 69 l 199 71 l 200 74 l 200 78 l 197 79 l 196 81 z "},"l":{"ha":1411,"x_min":0,"x_max":0,"o":"m 1339 724 l 1339 710 l 1342 688 l 1336 660 l 1331 643 l 1326 622 l 1321 608 l 1313 599 l 1303 564 l 1292 551 l 1286 532 l 1279 517 l 1272 500 l 1265 486 l 1258 476 l 1238 449 l 1214 425 l 1204 408 l 1193 396 l 1182 389 l 1167 372 l 1150 350 l 1138 328 l 1132 315 l 1119 306 l 1111 288 l 1103 271 l 1096 260 l 1086 246 l 1076 228 l 1068 208 l 1061 199 l 1072 181 l 1101 171 l 1139 157 l 1164 140 l 1171 122 l 1172 104 l 1164 93 l 1164 99 l 1163 101 l 1146 108 l 1133 111 l 1107 103 l 1092 90 l 1069 81 l 1049 81 l 1024 72 l 997 63 l 985 53 l 971 40 l 929 19 l 896 8 l 878 8 l 860 6 l 843 1 l 826 0 l 811 0 l 775 4 l 760 8 l 747 13 l 728 13 l 717 15 l 699 17 l 671 15 l 657 14 l 631 18 l 601 29 l 586 24 l 567 15 l 551 7 l 536 8 l 500 6 l 485 6 l 464 7 l 431 22 l 436 29 l 453 36 l 471 36 l 485 43 l 518 54 l 533 57 l 550 58 l 569 67 l 585 71 l 600 81 l 615 83 l 624 104 l 615 118 l 597 139 l 586 154 l 575 161 l 560 172 l 549 185 l 536 194 l 525 210 l 515 219 l 504 232 l 493 240 l 479 251 l 469 265 l 442 286 l 429 297 l 413 311 l 401 321 l 386 333 l 368 353 l 360 374 l 347 386 l 339 400 l 333 413 l 321 426 l 303 454 l 289 463 l 279 467 l 267 479 l 243 496 l 238 510 l 213 533 l 203 542 l 174 561 l 160 575 l 157 583 l 164 593 l 147 596 l 133 604 l 118 606 l 108 611 l 92 624 l 110 621 l 126 619 l 147 617 l 163 614 l 176 606 l 197 604 l 214 599 l 214 604 l 200 613 l 165 624 l 153 632 l 119 649 l 104 656 l 88 664 l 69 669 l 74 667 l 88 661 l 103 660 l 136 649 l 186 633 l 199 629 l 214 625 l 233 625 l 249 622 l 263 617 l 250 628 l 233 639 l 219 646 l 201 650 l 186 663 l 160 674 l 146 685 l 131 696 l 117 703 l 103 714 l 89 722 l 76 729 l 78 732 l 97 726 l 108 721 l 126 710 l 140 704 l 156 696 l 175 689 l 188 681 l 207 672 l 221 667 l 233 663 l 250 658 l 268 650 l 283 638 l 285 642 l 269 650 l 256 664 l 244 674 l 226 681 l 217 686 l 200 701 l 186 708 l 171 718 l 149 742 l 136 746 l 124 764 l 111 769 l 100 782 l 103 783 l 119 775 l 133 764 l 144 757 l 161 751 l 175 740 l 190 728 l 200 725 l 215 710 l 229 703 l 243 693 l 257 688 l 272 675 l 299 657 l 311 646 l 311 647 l 299 660 l 285 671 l 274 686 l 263 694 l 247 710 l 222 729 l 214 740 l 203 757 l 193 768 l 188 783 l 178 790 l 182 797 l 194 783 l 207 775 l 218 763 l 235 754 l 244 744 l 260 731 l 272 722 l 297 703 l 314 692 l 328 681 l 342 667 l 346 674 l 335 683 l 329 697 l 318 714 l 310 725 l 300 740 l 292 756 l 296 756 l 308 742 l 317 731 l 328 713 l 351 693 l 365 679 l 376 664 l 386 658 l 394 643 l 410 631 l 432 611 l 446 600 l 463 586 l 476 582 l 490 571 l 518 551 l 531 542 l 547 532 l 561 518 l 572 513 l 586 503 l 603 492 l 613 481 l 631 471 l 640 463 l 656 453 l 682 431 l 690 417 l 701 407 l 715 390 l 722 383 l 736 371 l 744 354 l 771 329 l 778 317 l 789 308 l 803 296 l 815 286 l 824 268 l 844 269 l 856 288 l 864 297 l 874 311 l 883 322 l 906 349 l 915 357 l 924 371 l 935 379 l 947 396 l 954 404 l 969 435 l 981 444 l 993 464 l 1001 472 l 1011 492 l 1015 503 l 1026 515 l 1035 532 l 1058 550 l 1069 557 l 1081 576 l 1093 594 l 1103 614 l 1115 631 l 1122 649 l 1149 647 l 1161 639 l 1169 646 l 1160 672 l 1167 710 l 1188 706 l 1196 690 l 1206 675 l 1208 676 l 1204 699 l 1203 714 l 1204 751 l 1222 753 l 1229 764 l 1228 775 l 1240 810 l 1250 803 l 1257 793 l 1263 775 l 1268 778 l 1267 792 l 1271 822 l 1285 819 l 1290 800 l 1293 792 l 1300 774 l 1308 781 l 1319 783 l 1321 768 l 1331 758 z m 404 592 l 404 596 l 401 600 l 400 600 l 397 597 l 397 592 l 400 589 l 403 589 z m 350 586 l 356 590 l 356 594 l 351 597 l 346 596 l 342 588 l 344 586 z m 272 567 l 275 575 l 274 586 l 267 578 l 267 571 l 269 568 z m 388 561 l 393 561 l 397 564 l 399 567 l 396 569 l 390 569 l 385 567 l 385 564 z m 444 546 l 442 547 l 438 547 l 433 540 l 433 531 l 442 538 z m 471 529 l 476 536 l 469 542 l 464 544 l 460 543 l 461 533 z m 475 517 l 481 518 l 483 521 l 483 525 l 478 526 l 475 524 z m 490 497 l 483 492 l 482 483 l 485 476 l 492 474 l 497 478 l 501 486 l 499 496 z m 519 497 l 514 496 l 514 492 l 519 486 l 524 486 l 524 490 l 522 494 z m 1061 482 l 1063 481 l 1065 481 l 1069 486 l 1071 493 l 1064 489 z m 553 489 l 550 483 l 554 478 l 558 476 l 563 479 l 561 485 l 561 492 z m 565 399 l 568 396 l 569 396 l 572 397 l 575 403 l 576 404 l 574 422 l 574 438 l 578 440 l 578 456 l 585 469 l 593 471 l 600 478 l 583 486 l 578 490 l 572 489 l 571 485 l 574 481 l 574 472 l 569 467 l 568 464 l 568 463 l 564 461 l 563 458 l 556 458 l 553 457 l 547 446 l 549 443 l 549 439 l 556 418 z m 619 425 l 621 428 l 622 439 l 618 440 l 614 444 l 610 446 l 607 443 l 604 439 l 599 435 l 594 429 l 582 424 l 596 417 l 600 414 l 619 424 z m 533 440 l 528 440 l 525 436 l 525 431 l 526 419 l 526 407 l 531 407 l 539 429 l 542 435 l 538 439 z m 621 397 l 629 407 l 631 419 l 625 421 l 621 418 l 615 406 l 611 394 l 618 392 z m 1008 411 l 1001 408 l 1001 400 l 1000 392 l 1004 388 l 1013 392 l 1014 403 l 1014 410 z m 656 399 l 647 408 l 638 407 l 635 404 l 635 401 l 644 399 z m 594 390 l 596 397 l 588 400 l 578 396 l 576 390 l 578 385 l 585 382 l 592 385 z m 685 376 l 688 378 l 689 381 l 685 388 l 676 390 l 678 382 z m 638 372 l 639 371 l 646 363 l 657 361 l 660 364 l 663 365 l 657 374 l 649 375 l 646 378 l 643 379 l 639 388 l 631 388 l 629 379 l 638 375 z m 596 361 l 608 357 l 621 357 l 629 353 l 638 358 l 633 369 l 606 386 l 594 374 l 589 356 z m 664 381 l 664 383 l 661 385 l 657 386 l 657 382 l 658 379 l 660 378 l 663 376 z m 500 365 l 503 364 l 507 367 l 507 371 l 503 372 l 499 371 l 499 369 z m 979 364 l 971 360 l 968 351 l 978 351 l 985 358 l 983 363 z m 688 328 l 708 333 l 700 343 l 693 354 l 686 361 l 675 360 l 671 351 l 672 340 z m 1006 354 l 1003 346 l 1007 339 l 1010 339 l 1013 340 l 1011 347 z m 672 285 l 668 289 l 665 299 l 658 307 l 663 322 l 671 332 l 672 340 l 664 343 l 650 344 l 643 340 l 635 339 l 638 329 l 644 322 l 643 313 l 649 304 l 663 290 l 661 283 l 664 278 l 667 278 l 671 279 z m 578 324 l 565 329 l 564 336 l 560 339 l 557 335 l 560 329 l 567 322 z m 599 324 l 597 324 l 596 322 l 592 308 l 599 300 l 604 304 l 608 313 l 613 318 l 607 325 z m 728 289 l 746 294 l 747 299 l 733 311 l 717 304 l 724 301 z m 692 307 l 681 300 l 681 292 l 694 296 l 707 303 z m 953 294 l 949 292 l 949 288 l 951 286 l 956 285 l 960 286 l 960 290 l 957 292 z m 631 260 l 628 261 l 626 264 l 624 271 l 617 274 l 615 272 l 614 269 l 615 261 l 624 256 l 625 256 l 632 249 l 639 251 l 638 258 z m 688 261 l 685 268 l 679 265 l 675 263 l 672 257 l 675 251 l 681 251 l 685 253 z m 794 254 l 794 260 l 792 265 l 790 264 l 788 264 l 785 258 l 788 254 z m 761 249 l 758 258 l 750 261 l 747 260 l 747 257 l 753 251 z m 960 239 l 956 240 l 953 238 l 951 235 l 954 233 l 957 233 l 961 235 l 961 238 z m 722 217 l 725 217 l 726 218 l 725 221 l 721 222 l 715 226 l 713 231 l 707 229 l 703 226 l 704 221 l 703 217 l 707 214 l 714 214 z m 761 224 l 754 225 l 751 221 l 753 211 l 761 210 l 769 204 l 775 207 l 772 218 z m 900 213 l 897 206 l 897 197 l 906 203 l 906 210 l 904 213 z m 821 199 l 828 204 l 825 210 l 822 208 l 814 203 l 811 199 z m 721 182 l 722 183 l 718 188 l 715 186 l 715 182 l 717 179 l 718 178 l 721 181 z m 871 172 l 872 176 l 868 179 l 864 181 l 860 178 l 861 174 l 865 171 l 868 171 z m 807 175 l 804 175 l 803 172 l 803 169 l 808 165 l 813 161 l 822 160 l 819 171 l 814 174 l 810 176 z m 949 175 l 943 172 l 943 168 l 947 165 l 950 164 l 951 168 l 950 171 z m 896 156 l 896 160 l 893 164 l 889 164 l 888 160 l 886 154 l 889 150 l 893 151 z m 754 142 l 753 142 l 751 136 l 758 133 l 760 128 l 764 128 l 768 133 l 768 139 l 764 143 l 758 140 z m 817 133 l 822 136 l 824 140 l 824 143 l 813 143 l 811 140 l 813 136 z m 854 82 l 856 83 l 854 92 l 847 99 l 847 89 l 851 81 z "},"m":{"ha":1118,"x_min":0,"x_max":0,"o":"m 350 -15 l 336 -10 l 324 7 l 308 15 l 297 31 l 286 39 l 267 64 l 257 74 l 246 86 l 240 100 l 224 132 l 214 142 l 204 161 l 185 185 l 175 201 l 168 214 l 158 228 l 146 250 l 143 267 l 133 283 l 131 297 l 121 322 l 122 340 l 119 361 l 118 394 l 122 406 l 121 426 l 113 429 l 99 422 l 93 435 l 92 463 l 82 493 l 78 524 l 69 560 l 81 592 l 86 597 l 106 625 l 128 649 l 146 657 l 164 664 l 194 667 l 208 669 l 225 663 l 238 664 l 265 669 l 276 690 l 283 697 l 290 707 l 297 718 l 307 729 l 322 738 l 336 751 l 349 763 l 360 767 l 374 779 l 383 789 l 399 792 l 436 794 l 461 774 l 474 775 l 486 768 l 499 756 l 526 742 l 546 743 l 558 740 l 594 743 l 613 733 l 628 735 l 643 728 l 663 726 l 696 724 l 711 717 l 732 708 l 744 700 l 761 696 l 796 679 l 811 678 l 829 667 l 844 660 l 858 649 l 874 643 l 904 624 l 915 614 l 929 604 l 940 601 l 954 585 l 968 579 l 979 567 l 1003 550 l 1014 542 l 1026 532 l 1039 521 l 1046 497 l 1032 479 l 1021 472 l 1003 472 l 990 458 l 976 456 l 971 438 l 997 422 l 1032 425 l 1049 413 l 1039 399 l 1010 378 l 993 381 l 958 378 l 946 376 l 914 378 l 893 376 l 881 382 l 849 381 l 833 382 l 799 389 l 785 388 l 767 392 l 749 388 l 729 383 l 713 388 l 697 386 l 667 374 l 658 360 l 649 342 l 626 317 l 618 304 l 608 294 l 596 290 l 590 313 l 594 325 l 582 329 l 571 324 l 557 311 l 549 301 l 528 301 l 524 325 l 526 349 l 533 363 l 526 381 l 499 378 l 483 375 l 468 378 l 447 379 l 418 379 l 403 375 l 385 376 l 369 374 l 343 364 l 332 347 l 317 346 l 300 318 l 290 301 l 285 278 l 299 261 l 328 265 l 346 267 l 360 268 l 376 267 l 413 268 l 433 267 l 463 260 l 476 254 l 481 231 l 479 211 l 464 181 l 450 169 l 442 157 l 431 143 l 421 131 l 407 114 l 397 100 l 382 75 l 382 54 l 378 44 l 378 28 l 371 6 l 371 -8 l 361 -28 z m 511 717 l 514 719 l 513 722 l 504 725 l 494 722 l 503 717 z m 443 708 l 444 706 l 446 704 l 453 706 l 458 707 l 460 707 l 469 717 l 460 718 l 453 718 l 447 715 l 443 713 z m 414 704 l 415 697 l 418 696 l 426 688 l 432 683 l 436 678 l 440 683 l 442 683 l 439 689 l 438 697 l 435 704 l 421 710 l 417 707 z m 343 649 l 350 638 l 363 633 l 383 631 l 408 629 l 414 631 l 417 636 l 411 643 l 404 644 l 374 658 l 374 661 l 372 665 l 358 674 l 347 688 l 353 697 l 349 708 l 339 701 l 336 699 l 332 696 l 325 693 l 322 686 l 325 683 l 331 683 l 339 679 l 344 668 l 346 668 l 344 663 l 347 660 l 343 653 z m 411 675 l 408 699 l 407 700 l 406 703 l 394 708 l 385 700 l 389 690 l 393 676 l 392 660 z m 486 700 l 489 700 l 492 701 l 490 706 l 489 707 l 485 707 l 481 706 z m 515 694 l 517 683 l 526 675 l 549 675 l 564 694 l 549 697 l 535 703 l 524 703 z m 499 688 l 499 692 l 489 694 l 481 690 l 475 690 l 472 689 l 463 694 l 457 690 l 456 689 l 456 688 l 460 681 l 469 682 l 475 679 l 488 676 l 497 683 z m 629 688 l 626 688 l 624 689 l 615 692 l 601 692 l 592 674 l 600 678 l 604 675 l 606 674 l 611 672 l 613 668 l 615 671 l 618 672 l 622 675 l 631 682 z m 717 682 l 717 675 l 721 674 l 725 674 l 728 676 l 726 682 l 721 686 z m 326 672 l 313 679 l 311 674 l 311 669 l 315 663 l 322 664 l 326 665 z m 558 626 l 549 633 l 538 635 l 529 651 l 531 667 l 525 675 l 517 672 l 503 663 l 500 654 l 493 647 l 503 640 l 514 639 l 519 629 l 531 626 l 553 622 l 556 615 l 563 613 l 565 615 l 567 619 l 565 625 z m 444 649 l 446 646 l 449 629 l 449 639 l 450 642 l 457 644 l 467 654 l 479 656 l 482 667 l 471 674 l 454 672 l 451 671 l 447 671 l 442 669 l 440 668 l 440 658 z m 567 660 l 561 646 l 564 640 l 568 638 l 578 650 l 583 665 z m 433 638 l 439 644 l 439 649 l 438 653 l 436 656 l 433 658 l 431 660 l 426 663 l 422 654 l 421 644 l 426 640 z m 657 639 l 667 640 l 660 650 l 650 649 l 647 646 l 649 643 z m 288 642 l 283 640 l 281 636 l 285 632 l 290 633 l 294 635 l 297 639 l 293 640 z m 379 593 l 376 596 l 379 599 l 371 610 l 363 619 l 358 625 l 351 624 l 347 621 l 344 615 l 346 610 l 353 608 l 365 601 l 372 597 l 369 593 l 372 589 l 376 589 l 379 590 z m 235 624 l 229 618 l 231 614 l 232 613 l 235 611 l 239 611 l 239 615 l 240 621 z m 214 621 l 200 607 l 203 603 l 211 601 l 213 601 l 219 613 l 217 622 z m 751 610 l 760 617 l 760 619 l 757 622 l 749 619 l 740 611 z m 290 608 l 283 618 l 272 619 l 265 614 l 267 604 l 275 596 l 283 594 l 290 600 z m 679 615 l 671 614 l 669 607 l 675 599 l 686 600 l 696 599 l 700 604 l 693 614 z m 800 588 l 796 585 l 797 579 l 801 576 l 806 576 l 808 578 l 810 583 l 806 586 z m 194 586 l 193 583 l 193 579 l 199 572 l 210 569 l 203 581 z m 749 579 l 739 586 l 735 583 l 733 578 l 739 568 l 751 567 z m 897 576 l 890 574 l 890 568 l 893 564 l 897 564 l 900 567 l 899 572 z m 444 569 l 436 572 l 429 568 l 428 565 l 431 563 l 438 564 z m 588 569 l 583 572 l 582 571 l 581 565 l 582 561 l 586 560 l 590 564 l 593 564 l 594 565 l 593 569 z m 508 565 l 503 568 l 501 567 l 501 565 l 506 560 l 513 558 z m 828 567 l 825 563 l 824 556 l 828 550 l 832 551 l 835 557 l 836 561 l 833 567 z m 336 561 l 332 564 l 328 561 l 328 557 l 329 553 l 335 550 l 338 553 l 338 557 z m 638 546 l 639 549 l 639 550 l 636 553 l 633 553 l 632 551 l 632 549 z m 113 547 l 110 542 l 108 535 l 110 529 l 114 529 l 118 533 l 119 540 l 117 546 z m 546 536 l 553 540 l 554 544 l 551 546 l 547 546 l 544 542 l 546 539 z m 172 536 l 169 538 l 167 540 l 163 540 l 163 536 l 164 533 l 169 528 l 172 526 l 175 528 l 176 528 l 176 531 l 175 533 z m 256 536 l 260 528 l 267 522 l 267 532 l 261 539 z m 301 533 l 293 532 l 289 524 l 290 519 l 296 519 l 303 525 l 303 533 z m 657 529 l 653 529 l 647 528 l 643 524 l 640 522 l 640 521 l 642 519 l 644 519 l 650 518 l 653 515 l 657 518 l 658 522 l 657 525 z m 731 521 l 728 522 l 724 522 l 718 525 l 714 521 l 717 517 l 722 518 l 724 517 l 726 515 l 726 514 l 731 510 l 736 510 l 738 511 l 738 514 l 735 519 z m 686 511 l 682 510 l 679 507 l 681 500 l 685 496 l 688 500 l 690 503 l 690 508 z m 753 489 l 750 482 l 750 479 l 749 478 l 754 474 l 761 475 l 763 489 l 756 493 z m 281 486 l 275 490 l 268 483 l 268 471 l 269 464 l 276 464 l 282 469 l 281 478 z m 161 485 l 156 485 l 154 479 l 156 474 l 161 471 l 165 471 l 167 474 l 165 481 z m 790 481 l 785 485 l 776 481 l 788 479 l 789 474 l 793 472 l 794 476 z m 844 465 l 842 465 l 839 464 l 839 460 l 843 460 l 846 461 l 846 463 z m 179 393 l 189 388 l 199 389 l 201 394 l 192 397 z m 233 382 l 231 375 l 232 367 l 238 372 l 239 381 l 236 382 z "},"n":{"ha":731,"x_min":0,"x_max":0,"o":"m 660 -6 l 661 -24 l 633 -28 l 618 -15 l 606 -14 l 588 1 l 571 3 l 556 15 l 542 25 l 526 26 l 511 40 l 478 46 l 465 56 l 449 60 l 432 58 l 414 64 l 400 67 l 367 72 l 351 79 l 336 78 l 318 86 l 306 86 l 288 88 l 274 90 l 244 107 l 228 111 l 211 124 l 201 135 l 186 143 l 169 147 l 143 171 l 136 186 l 125 194 l 117 213 l 110 229 l 94 251 l 89 268 l 85 283 l 79 299 l 78 319 l 69 336 l 71 365 l 81 383 l 81 397 l 90 414 l 93 429 l 101 442 l 104 463 l 111 478 l 117 494 l 124 506 l 131 539 l 118 554 l 103 582 l 121 606 l 132 613 l 147 619 l 163 625 l 179 631 l 194 643 l 219 657 l 235 671 l 246 678 l 258 690 l 269 706 l 286 718 l 294 728 l 307 736 l 321 749 l 336 757 l 363 779 l 379 782 l 394 790 l 428 801 l 474 786 l 478 767 l 475 735 l 472 721 l 463 707 l 463 689 l 453 674 l 451 660 l 436 626 l 425 615 l 418 600 l 408 590 l 401 572 l 388 557 l 381 543 l 372 529 l 364 522 l 350 504 l 332 478 l 325 467 l 315 450 l 307 435 l 299 421 l 288 408 l 279 396 l 267 363 l 256 351 l 247 333 l 240 322 l 236 285 l 238 269 l 239 251 l 258 215 l 285 193 l 299 186 l 328 179 l 344 171 l 363 171 l 393 174 l 411 174 l 426 171 l 457 178 l 472 185 l 504 193 l 521 203 l 535 211 l 560 208 l 560 183 l 556 169 l 543 142 l 551 117 l 565 99 l 576 86 l 597 64 l 607 57 l 615 42 l 629 32 l 640 19 l 650 6 z m 389 731 l 386 729 l 383 725 l 386 721 l 392 721 l 390 725 l 390 729 z m 336 721 l 335 715 l 339 713 l 342 710 l 344 711 l 346 715 l 340 721 z m 326 696 l 324 692 l 325 689 l 328 688 l 333 693 l 331 696 z m 289 689 l 282 685 l 279 676 l 282 674 l 286 672 l 290 679 z m 361 664 l 357 664 l 356 661 l 356 660 l 357 658 l 360 658 l 361 661 z m 301 660 l 294 656 l 301 651 l 308 651 l 310 654 l 308 657 z m 260 651 l 246 646 l 244 639 l 247 635 l 253 636 l 263 640 l 264 649 z m 326 614 l 329 621 l 331 625 l 326 628 l 325 625 l 325 619 l 318 613 z m 251 615 l 244 613 l 239 608 l 239 606 l 242 604 l 249 607 z m 297 607 l 294 604 l 296 601 l 296 600 l 300 597 l 306 593 l 310 592 l 313 599 l 304 607 l 303 607 l 300 608 z m 226 569 l 221 565 l 236 565 l 243 576 l 240 579 l 233 581 l 226 581 z m 181 554 l 179 563 l 181 567 l 178 571 l 172 571 l 171 565 l 174 560 l 168 546 l 167 536 l 171 529 l 167 522 l 168 514 l 175 515 l 182 514 l 192 519 l 197 524 l 194 531 l 185 535 l 176 546 z m 294 553 l 294 547 l 300 549 l 301 553 l 303 554 l 304 554 l 308 560 l 307 567 l 304 569 l 300 565 l 300 560 l 299 557 l 299 556 z m 204 556 l 214 564 l 201 565 l 190 565 l 190 561 l 193 558 z m 260 547 l 260 542 l 263 536 l 267 536 l 269 538 l 271 543 l 267 546 l 264 547 z m 200 515 l 206 510 l 215 513 l 219 519 l 221 531 l 224 540 l 207 539 l 199 524 z m 247 506 l 246 504 l 244 501 l 246 500 l 249 501 l 254 501 l 260 504 l 261 507 l 258 513 l 254 514 l 251 514 l 250 510 z m 181 474 l 188 476 l 186 485 l 189 486 l 190 489 l 196 493 l 197 500 l 196 503 l 193 503 l 185 499 l 181 490 l 181 486 l 176 481 z m 163 494 l 153 492 l 144 485 l 138 486 l 147 474 l 160 468 l 169 481 l 176 489 l 176 499 l 168 501 z m 222 500 l 219 499 l 215 493 l 217 486 l 222 492 l 224 497 z m 199 489 l 199 486 l 200 483 l 204 488 l 204 490 l 201 493 l 200 490 z m 258 475 l 261 475 l 263 478 l 263 482 l 260 482 l 258 481 l 257 478 z m 192 461 l 199 463 l 203 472 l 193 469 l 188 464 l 189 463 z m 181 447 l 186 446 l 189 449 l 185 458 l 175 464 l 172 467 l 167 463 l 174 456 z m 142 451 l 150 451 l 156 456 l 151 461 l 149 464 l 142 464 l 138 460 l 139 456 z m 138 400 l 146 393 l 147 394 l 154 396 l 156 394 l 160 396 l 160 394 l 161 393 l 168 390 l 171 385 l 169 381 l 172 378 l 178 379 l 179 383 l 182 382 l 183 382 l 185 389 l 185 390 l 189 397 l 181 400 l 174 397 l 164 404 l 157 415 l 153 417 l 142 439 l 140 444 l 136 447 l 132 446 l 132 424 l 135 406 l 136 401 z m 183 424 l 189 432 l 185 440 l 183 442 l 182 442 l 164 444 l 154 429 l 165 431 l 176 428 z m 239 440 l 235 440 l 232 438 l 233 433 l 238 431 l 240 432 l 240 435 l 244 439 l 243 442 l 242 442 z m 194 426 l 199 425 l 201 428 l 201 431 l 200 433 l 192 432 z m 126 401 l 128 406 l 125 408 l 117 415 l 110 421 l 106 419 l 111 411 l 115 401 l 117 397 l 121 396 z m 157 382 l 156 379 l 154 374 l 158 369 l 163 371 l 167 371 l 161 381 z m 132 356 l 131 351 l 133 349 l 138 350 l 138 358 l 136 360 l 132 358 z m 113 357 l 107 357 l 103 351 l 104 346 l 108 340 l 115 339 l 121 343 l 119 351 z m 117 321 l 115 319 l 117 315 l 119 317 l 121 322 l 119 321 z m 129 303 l 132 306 l 131 308 l 129 314 l 121 313 l 121 304 l 125 304 z m 131 290 l 124 289 l 117 282 l 125 282 l 131 285 z m 176 264 l 175 261 l 179 260 l 182 260 l 185 261 l 185 263 l 182 265 l 178 265 z m 144 251 l 142 251 l 139 247 l 139 242 l 142 240 l 144 240 l 147 244 l 147 249 z m 174 221 l 169 218 l 169 214 l 171 210 l 174 208 l 175 210 l 178 214 l 176 218 z m 199 169 l 189 167 l 183 161 l 185 160 l 188 158 l 194 161 z "},"o":{"ha":882,"x_min":0,"x_max":0,"o":"m 69 11 l 85 24 l 97 38 l 108 49 l 119 58 l 132 74 l 140 85 l 149 100 l 160 114 l 171 125 l 185 135 l 194 153 l 208 158 l 218 169 l 235 182 l 247 194 l 257 215 l 265 226 l 294 250 l 322 278 l 333 285 l 344 296 l 360 313 l 369 325 l 382 336 l 396 346 l 403 358 l 419 374 l 428 385 l 440 392 l 454 406 l 467 415 l 475 432 l 490 443 l 503 450 l 511 464 l 526 476 l 539 488 l 551 503 l 564 517 l 571 526 l 582 542 l 593 549 l 604 565 l 626 588 l 628 594 l 618 601 l 600 617 l 582 642 l 599 657 l 608 664 l 618 683 l 640 693 l 651 688 l 665 669 l 678 642 l 707 643 l 724 661 l 739 668 l 749 664 l 750 654 l 740 643 l 729 631 l 714 611 l 703 600 l 700 582 l 717 579 l 740 563 l 751 553 l 769 531 l 779 517 l 796 500 l 813 478 l 801 482 l 790 494 l 781 503 l 764 514 l 740 533 l 738 532 l 744 526 l 760 494 l 785 467 l 783 461 l 778 475 l 767 485 l 757 497 l 746 507 l 735 521 l 731 526 l 732 513 l 732 500 l 740 488 l 749 468 l 749 436 l 746 406 l 736 390 l 728 376 l 717 369 l 713 361 l 704 338 l 694 319 l 675 319 l 669 335 l 660 354 l 653 378 l 654 399 l 660 424 l 653 429 l 653 450 l 660 482 l 664 488 l 649 488 l 656 515 l 660 528 l 664 544 l 669 563 l 665 564 l 654 551 l 646 544 l 635 532 l 625 521 l 611 511 l 597 497 l 585 490 l 572 474 l 563 465 l 549 453 l 538 440 l 525 429 l 513 413 l 501 406 l 489 394 l 476 376 l 468 371 l 456 353 l 446 349 l 433 336 l 410 307 l 397 297 l 381 282 l 371 271 l 361 261 l 346 249 l 333 235 l 326 222 l 317 215 l 314 197 l 325 183 l 339 176 l 351 167 l 369 140 l 369 129 l 354 139 l 336 151 l 326 164 l 318 181 l 307 188 l 308 178 l 318 164 l 318 128 l 317 110 l 313 92 l 306 72 l 304 90 l 304 129 l 303 161 l 300 179 l 293 189 l 283 186 l 272 169 l 257 157 l 249 146 l 233 135 l 222 124 l 208 107 l 200 100 l 188 89 l 172 74 l 157 61 l 147 58 l 136 47 l 125 33 l 113 26 l 101 10 l 82 0 z m 658 581 l 656 579 l 656 578 l 657 576 l 660 578 l 658 579 z m 678 564 l 681 564 l 681 567 l 679 568 l 678 567 l 675 565 l 675 564 l 676 563 z m 681 554 l 678 553 l 678 551 l 679 550 l 681 550 l 682 551 l 681 553 z m 697 533 l 700 535 l 700 539 l 697 543 l 694 539 l 696 535 z m 682 531 l 685 528 l 689 528 l 686 532 l 682 532 z m 704 510 l 706 508 l 708 510 l 710 514 l 708 515 l 706 517 l 704 519 l 701 519 l 700 515 l 703 513 z m 674 504 l 678 506 l 678 507 l 676 507 l 674 506 z m 703 493 l 703 497 l 700 500 l 699 496 l 701 493 z m 706 471 l 703 474 l 704 479 l 700 479 l 697 481 l 696 479 l 697 475 l 699 472 l 701 471 z m 714 464 l 719 464 l 721 465 l 721 467 l 715 469 l 710 469 l 711 467 z m 715 450 l 713 447 l 714 444 l 717 442 l 718 439 l 722 439 l 725 438 l 726 440 l 726 444 l 728 447 l 729 449 l 729 463 l 731 465 l 731 468 l 729 469 l 728 469 l 726 467 l 726 463 l 725 460 l 726 456 l 724 453 l 721 451 z m 701 451 l 701 450 l 703 444 l 706 442 l 710 443 l 711 446 l 713 447 l 710 456 l 701 458 l 701 456 l 700 456 z m 699 440 l 696 436 l 697 433 l 699 436 z m 713 426 l 714 431 l 714 433 l 710 438 l 708 436 l 707 433 l 710 431 l 708 424 l 710 421 l 711 422 l 714 422 z m 724 411 l 728 414 l 732 415 l 728 417 l 728 419 l 726 421 l 724 426 l 722 428 l 722 431 l 718 432 l 715 426 l 717 424 l 717 414 l 719 411 z m 701 418 l 703 418 l 703 422 l 700 425 l 700 424 l 699 421 z m 697 417 l 699 418 l 699 421 l 697 422 l 697 424 l 694 421 l 696 418 z m 700 411 l 708 411 l 710 413 l 713 413 l 713 414 l 704 415 l 701 415 l 700 414 z m 694 403 l 703 400 l 703 399 l 701 397 l 704 396 l 706 397 l 707 394 l 708 400 l 708 404 l 704 407 l 700 408 l 697 408 l 694 407 z m 724 404 l 721 407 l 717 407 l 715 406 l 717 403 l 719 400 l 722 400 l 724 401 z m 683 406 l 682 406 l 682 401 l 683 400 l 685 400 l 686 401 z m 717 396 l 715 394 l 711 393 l 710 392 l 706 390 l 703 390 l 701 392 l 697 390 l 692 390 l 689 392 l 688 393 l 688 396 l 683 397 l 682 394 l 682 386 l 683 386 l 685 388 l 688 388 l 692 386 l 696 382 l 696 381 l 701 378 l 704 379 l 717 388 l 718 390 l 719 392 l 721 394 l 719 396 z m 682 379 l 685 378 l 688 381 l 686 383 l 683 382 l 676 382 l 674 381 l 679 379 z m 719 372 l 717 375 l 714 375 l 708 376 l 707 376 l 704 372 l 704 371 l 706 369 l 708 369 l 711 371 l 717 371 z m 682 360 l 683 361 l 682 363 l 685 365 l 686 369 l 683 372 l 682 372 l 682 367 l 681 365 l 681 364 l 678 361 l 679 361 z m 685 358 l 681 356 l 679 353 l 682 350 l 685 349 l 689 350 l 690 353 l 689 356 z m 308 240 l 308 239 l 310 238 l 314 240 l 315 244 l 311 244 z m 263 208 l 261 203 l 258 199 l 260 196 l 265 197 l 268 203 l 269 207 l 267 210 z m 256 188 l 250 186 l 247 182 l 254 181 l 258 183 l 258 186 z m 253 172 l 254 168 l 257 168 l 257 172 l 256 178 z m 215 153 l 213 151 l 213 150 l 214 147 l 215 146 l 218 146 l 219 149 z m 206 121 l 206 117 l 210 117 l 211 118 l 211 119 l 208 121 z m 172 114 l 169 111 l 168 107 l 174 108 l 175 113 l 174 114 z "},"p":{"ha":874,"x_min":0,"x_max":0,"o":"m 797 538 l 771 554 l 749 572 l 728 600 l 711 626 l 700 639 l 685 650 l 676 664 l 644 679 l 629 681 l 615 685 l 581 688 l 564 690 l 546 685 l 515 683 l 493 678 l 475 674 l 463 663 l 481 656 l 499 656 l 513 657 l 549 661 l 568 661 l 597 644 l 607 626 l 600 608 l 585 597 l 578 579 l 568 565 l 556 557 l 544 546 l 524 531 l 513 513 l 504 499 l 493 488 l 472 464 l 457 453 l 449 440 l 436 428 l 419 417 l 407 401 l 397 389 l 383 379 l 374 365 l 349 343 l 336 329 l 325 324 l 313 306 l 303 301 l 290 289 l 278 275 l 267 263 l 256 253 l 243 239 l 233 225 l 219 215 l 208 201 l 188 182 l 175 169 l 160 157 l 150 147 l 136 131 l 125 119 l 114 106 l 99 99 l 72 64 l 69 31 l 90 7 l 118 0 l 146 25 l 168 54 l 183 61 l 193 81 l 201 93 l 217 104 l 226 113 l 240 128 l 251 135 l 263 147 l 272 161 l 286 172 l 299 188 l 306 194 l 318 206 l 332 222 l 342 238 l 351 242 l 364 258 l 376 272 l 399 294 l 410 307 l 422 319 l 433 329 l 447 338 l 457 354 l 469 364 l 482 379 l 490 388 l 506 404 l 513 410 l 542 436 l 550 449 l 568 464 l 581 472 l 600 492 l 607 511 l 614 518 l 632 535 l 647 542 l 665 554 l 690 546 l 713 532 l 722 513 l 740 490 l 768 481 l 788 494 l 804 519 z m 683 626 l 681 628 l 681 632 l 683 632 l 685 631 l 688 631 l 689 628 l 690 626 z m 660 600 l 658 599 l 656 597 l 653 597 l 653 600 l 656 603 l 658 603 l 660 601 z m 631 599 l 631 600 l 633 600 l 636 589 l 632 589 l 629 588 l 628 585 l 628 583 l 625 588 l 624 592 z m 676 592 l 672 590 l 671 588 l 669 589 l 669 590 l 668 592 l 669 594 l 671 596 l 672 596 l 675 597 l 676 594 z m 703 590 l 697 590 l 696 592 l 693 593 l 696 594 l 703 594 z m 688 572 l 686 574 l 683 575 l 683 579 l 685 582 l 688 582 l 689 581 l 690 578 z m 643 556 l 640 553 l 636 554 l 625 543 l 619 543 l 615 539 l 610 538 l 610 542 l 607 546 l 607 553 l 608 558 l 603 557 l 599 560 l 597 565 l 601 569 l 613 578 l 615 567 l 608 558 l 614 558 l 619 553 l 628 551 l 631 556 l 636 557 l 639 560 l 642 558 l 643 557 z m 635 564 l 631 564 l 626 569 l 626 574 l 628 578 l 632 571 z m 711 564 l 710 565 l 710 569 l 713 569 l 714 568 l 715 565 l 713 564 z m 585 564 l 588 567 l 589 565 l 589 564 l 586 561 l 585 561 l 583 560 z m 721 550 l 718 549 l 717 547 l 714 549 l 714 551 l 717 553 l 718 554 l 721 553 z m 583 542 l 588 543 l 592 547 l 592 550 l 593 551 l 596 553 l 597 551 l 597 543 l 594 542 l 593 540 l 590 539 l 588 536 l 582 538 z m 572 547 l 578 551 l 578 544 l 575 540 l 574 540 l 572 542 z m 747 539 l 744 542 l 746 544 l 747 544 l 749 540 z m 565 539 l 572 538 l 579 531 l 578 528 l 567 533 l 564 536 z m 599 529 l 597 522 l 594 517 l 597 513 l 588 517 l 582 524 l 585 528 l 589 532 l 593 538 l 599 539 l 601 533 z m 554 535 l 563 533 l 567 522 l 561 515 l 560 514 l 558 521 l 554 526 l 551 531 z m 574 503 l 571 501 l 560 499 l 554 499 l 549 497 l 544 497 l 539 501 l 539 507 l 538 508 l 536 511 l 533 514 l 528 515 l 526 514 l 524 514 l 524 518 l 532 526 l 533 529 l 536 525 l 536 519 l 542 515 l 550 513 l 551 511 l 551 510 l 560 508 l 571 508 l 574 506 z m 582 510 l 581 508 l 578 508 l 575 510 l 574 515 l 575 519 l 579 518 l 582 517 l 583 513 z m 528 504 l 525 503 l 522 504 l 521 507 l 521 508 l 528 508 l 529 506 z m 557 483 l 550 485 l 547 485 l 546 489 l 547 492 l 550 493 l 553 492 l 558 488 l 563 482 z m 515 486 l 517 488 l 519 489 l 521 488 l 521 486 l 519 485 l 517 483 l 515 483 z m 525 468 l 525 467 l 521 465 l 515 467 l 514 471 l 514 475 l 517 476 l 519 476 l 525 474 l 526 471 z m 499 464 l 497 465 l 497 468 l 500 468 l 501 467 l 503 464 z m 493 456 l 488 456 l 486 458 l 489 461 l 492 465 l 496 461 z m 489 442 l 485 444 l 486 447 l 490 446 l 493 442 z m 454 433 l 451 432 l 450 432 l 447 433 l 449 435 l 450 435 l 453 436 l 454 435 z m 475 418 l 474 417 l 472 417 l 471 419 l 471 422 l 472 424 l 475 424 l 476 421 z m 454 401 l 453 399 l 451 399 l 450 400 l 449 403 l 450 406 l 453 407 l 454 406 z m 438 360 l 435 360 l 432 363 l 431 368 l 436 365 l 439 361 z m 324 274 l 318 271 l 317 271 l 315 274 l 319 278 l 325 281 z m 263 222 l 258 213 l 251 211 l 250 215 l 253 221 l 254 228 l 260 229 l 264 226 z m 231 193 l 225 189 l 217 190 l 221 197 l 228 199 l 231 196 z m 249 172 l 244 172 l 242 179 l 246 185 l 249 179 z m 196 142 l 193 140 l 188 146 l 189 149 l 192 150 l 196 147 l 197 144 z m 188 101 l 181 101 l 179 103 l 181 106 l 183 107 l 188 106 z m 136 88 l 129 85 l 131 92 l 135 96 l 138 96 l 139 93 z "},"q":{"ha":838,"x_min":0,"x_max":0,"o":"m 633 619 l 647 613 l 656 606 l 668 594 l 679 582 l 715 546 l 725 533 l 736 526 l 747 513 l 756 503 l 768 482 l 740 458 l 731 444 l 722 429 l 711 424 l 697 413 l 679 396 l 658 390 l 643 407 l 631 419 l 617 426 l 606 443 l 581 439 l 572 426 l 558 419 l 547 404 l 535 396 l 525 379 l 511 368 l 503 354 l 489 343 l 479 335 l 468 318 l 456 311 l 446 301 l 433 286 l 419 274 l 408 265 l 396 250 l 386 240 l 361 217 l 351 207 l 342 189 l 331 182 l 314 172 l 304 157 l 293 146 l 282 138 l 268 124 l 260 110 l 249 96 l 233 86 l 224 75 l 197 54 l 190 35 l 175 22 l 167 10 l 147 0 l 124 6 l 110 18 l 86 35 l 79 50 l 69 67 l 83 89 l 97 99 l 106 108 l 119 119 l 140 144 l 156 154 l 167 165 l 179 179 l 192 188 l 199 200 l 214 213 l 225 225 l 238 240 l 244 253 l 260 265 l 268 272 l 281 289 l 292 297 l 306 307 l 315 319 l 326 336 l 340 350 l 350 356 l 365 369 l 376 385 l 385 399 l 399 407 l 421 429 l 431 442 l 446 457 l 453 465 l 469 476 l 476 490 l 488 504 l 501 517 l 504 539 l 493 549 l 479 563 l 471 575 l 458 593 l 463 613 l 493 643 l 503 658 l 517 667 l 528 681 l 549 690 l 567 679 l 583 665 l 596 653 l 611 644 z m 547 635 l 547 638 l 549 640 l 544 644 l 540 646 l 538 646 l 532 643 l 532 638 l 535 635 l 536 632 l 543 632 l 546 633 z m 565 629 l 563 631 l 561 629 l 561 628 l 560 626 l 563 624 l 564 625 l 565 625 z m 594 631 l 588 624 l 588 621 l 592 619 l 594 624 z m 576 624 l 576 625 l 572 626 l 569 625 l 568 619 l 574 619 l 576 618 l 576 619 l 578 621 z m 535 624 l 539 619 l 539 622 l 538 624 z m 535 604 l 538 601 l 539 603 l 542 603 l 543 604 l 544 604 l 538 606 l 536 607 z m 624 607 l 617 607 l 615 604 l 617 603 l 621 601 l 624 603 l 625 604 z m 492 592 l 488 590 l 489 586 l 493 588 l 496 589 l 500 592 l 503 592 l 507 593 l 507 600 l 506 601 l 506 603 l 504 606 l 501 606 l 500 604 l 499 601 l 496 597 l 493 594 l 493 593 z m 506 569 l 504 564 l 504 557 l 507 557 l 508 556 l 511 558 l 513 563 l 515 568 l 518 572 l 518 574 l 521 576 l 522 579 l 524 581 l 526 579 l 533 586 l 539 589 l 543 590 l 549 588 l 554 588 l 553 590 l 553 592 l 551 593 l 551 594 l 550 599 l 549 601 l 546 601 l 542 599 l 535 594 l 528 594 l 525 597 l 522 599 l 515 596 l 514 594 l 513 592 l 511 590 l 510 585 l 507 581 l 507 578 z m 600 583 l 599 582 l 597 579 l 599 576 l 600 576 l 601 578 l 603 581 l 601 583 z m 639 578 l 635 579 l 632 576 l 633 574 l 636 572 l 640 572 l 642 574 l 642 576 z m 546 571 l 540 569 l 532 567 l 526 568 l 522 569 l 526 563 l 531 557 l 544 558 l 550 567 z m 685 556 l 682 554 l 681 553 l 679 549 l 678 546 l 683 549 l 686 553 z m 550 553 l 549 554 l 543 554 l 536 549 l 535 546 l 531 543 l 535 539 l 538 542 l 546 544 l 547 549 z m 517 543 l 519 544 l 521 547 l 522 549 l 518 551 l 515 553 l 513 553 l 510 550 l 508 546 l 511 542 z m 557 528 l 557 533 l 556 539 l 550 542 l 549 542 l 547 539 l 549 536 z m 506 528 l 511 529 l 514 528 l 515 526 l 519 524 l 522 522 l 524 519 l 524 518 l 528 517 l 531 517 l 532 519 l 533 521 l 533 525 l 532 528 l 531 532 l 529 533 l 528 536 l 525 539 l 521 539 l 515 536 l 511 532 l 507 529 z m 539 524 l 538 521 l 538 517 l 536 514 l 539 508 l 542 506 l 544 506 l 546 508 l 546 515 l 544 517 l 543 522 l 544 526 l 544 528 l 543 531 l 540 532 l 538 529 l 538 526 z m 554 513 l 553 519 l 551 518 l 551 517 l 550 513 z m 532 492 l 532 494 l 529 503 l 528 506 l 522 508 l 519 511 l 517 510 l 515 508 l 515 507 l 514 506 l 511 504 l 507 504 l 506 501 l 504 500 l 501 494 l 499 490 l 494 490 l 492 488 l 492 485 l 493 483 l 497 483 l 499 486 l 504 489 l 508 494 l 518 494 l 526 492 z m 563 504 l 563 508 l 560 503 l 558 499 l 557 496 l 558 493 l 561 494 l 563 497 l 564 501 z m 544 496 l 538 496 l 535 494 l 533 492 l 531 490 l 528 482 l 526 479 l 531 474 l 533 467 l 539 475 l 542 478 l 543 481 l 544 482 l 547 488 z m 514 464 l 514 474 l 508 479 l 504 479 l 503 478 l 506 475 l 507 471 z m 515 458 l 515 453 l 508 449 l 510 442 l 513 436 l 515 436 l 517 438 l 522 447 l 519 453 z m 492 431 l 490 433 l 488 433 l 485 429 l 483 426 l 483 424 l 486 425 l 490 425 z m 460 426 l 458 421 l 456 415 l 457 413 l 461 414 l 464 414 l 467 422 l 468 424 l 468 426 l 465 428 z m 426 394 l 433 393 l 439 396 l 439 399 l 436 401 l 431 400 z m 450 383 l 450 378 l 456 378 l 456 383 l 453 389 z m 490 383 l 494 383 l 497 385 l 497 386 l 496 389 l 492 389 l 490 388 z m 426 367 l 424 367 l 421 365 l 419 364 l 419 361 l 422 360 l 425 361 l 426 364 z m 404 351 l 407 351 l 408 354 l 404 358 l 401 358 l 400 356 z m 399 315 l 399 319 l 396 321 l 393 319 l 392 318 l 393 315 z m 336 233 l 335 228 l 335 225 l 338 225 l 342 229 l 343 235 z m 292 215 l 293 218 l 292 219 l 286 219 l 286 215 l 289 214 z m 281 171 l 285 172 l 285 175 l 279 181 l 276 179 l 275 176 l 276 174 z m 229 149 l 224 149 l 224 142 l 226 136 l 231 142 z m 242 128 l 242 125 l 244 122 l 253 124 l 256 131 l 249 132 z m 214 108 l 210 99 l 208 94 l 213 92 l 218 93 l 219 100 l 224 106 l 221 110 z m 154 50 l 149 47 l 147 40 l 153 42 l 157 47 l 156 50 z "},"r":{"ha":831,"x_min":0,"x_max":0,"o":"m 756 700 l 761 694 l 750 640 l 740 640 l 731 657 l 717 640 l 694 621 l 685 604 l 675 593 l 663 579 l 647 569 l 636 557 l 625 551 l 617 536 l 601 525 l 592 510 l 582 499 l 569 492 l 554 479 l 544 465 l 535 458 l 521 443 l 508 429 l 500 422 l 476 399 l 464 388 l 453 371 l 440 364 l 428 347 l 406 325 l 392 314 l 382 303 l 371 294 l 356 282 l 346 267 l 321 242 l 308 231 l 299 217 l 288 211 l 278 196 l 263 164 l 263 150 l 246 149 l 228 97 l 207 115 l 204 113 l 199 60 l 178 72 l 167 64 l 160 54 l 135 32 l 121 0 l 113 1 l 107 24 l 97 25 l 93 26 l 97 35 l 90 44 l 69 44 l 79 57 l 107 74 l 119 83 l 146 93 l 149 100 l 124 110 l 165 124 l 154 149 l 214 176 l 231 186 l 228 193 l 235 197 l 269 208 l 278 215 l 290 226 l 303 244 l 315 253 l 324 267 l 338 275 l 349 288 l 363 303 l 369 311 l 385 322 l 393 333 l 407 349 l 421 357 l 429 374 l 440 379 l 456 397 l 468 407 l 478 419 l 490 428 l 501 439 l 511 451 l 522 467 l 535 474 l 549 488 l 561 496 l 569 510 l 583 521 l 607 544 l 618 554 l 631 571 l 653 596 l 663 603 l 676 619 l 686 625 l 697 635 l 713 651 l 721 663 l 706 669 l 708 682 z m 263 188 l 264 186 l 265 186 l 268 189 l 271 194 l 264 193 z m 239 182 l 236 182 l 236 178 l 239 176 l 242 178 l 242 179 z m 217 149 l 214 147 l 213 146 l 215 143 l 217 140 l 221 142 l 221 144 z m 172 122 l 171 121 l 169 117 l 172 111 l 175 117 l 174 121 z m 185 104 l 185 101 l 188 100 l 194 101 l 197 107 l 190 108 z m 161 88 l 158 81 l 157 76 l 160 74 l 165 75 l 167 81 l 169 86 l 168 89 z m 111 39 l 107 36 l 106 32 l 111 33 l 114 38 l 113 39 z "},"s":{"ha":794,"x_min":0,"x_max":0,"o":"m 729 157 l 736 139 l 740 124 l 744 106 l 746 97 l 753 76 l 756 64 l 763 32 l 757 10 l 756 -10 l 746 -43 l 719 -56 l 693 -47 l 681 -35 l 671 -18 l 657 -7 l 649 7 l 638 14 l 622 25 l 603 54 l 596 67 l 576 96 l 568 111 l 560 119 l 553 131 l 540 147 l 529 176 l 522 189 l 514 203 l 510 225 l 503 240 l 503 251 l 497 272 l 490 299 l 496 315 l 494 331 l 496 346 l 503 367 l 506 382 l 507 396 l 501 399 l 497 378 l 489 367 l 483 354 l 476 333 l 464 336 l 461 351 l 453 368 l 447 385 l 436 393 l 431 413 l 428 443 l 426 464 l 431 478 l 432 492 l 439 510 l 440 531 l 439 543 l 444 561 l 438 568 l 426 539 l 418 540 l 413 529 l 411 519 l 403 513 l 404 500 l 401 481 l 403 464 l 396 426 l 390 415 l 386 394 l 379 382 l 371 371 l 357 343 l 351 325 l 347 306 l 338 296 l 335 283 l 326 264 l 317 271 l 310 286 l 310 297 l 304 321 l 301 296 l 306 282 l 306 265 l 308 244 l 303 215 l 294 194 l 292 185 l 282 168 l 276 151 l 272 133 l 263 124 l 260 104 l 249 96 l 232 65 l 222 53 l 211 39 l 200 31 l 190 18 l 179 13 l 153 -12 l 136 -22 l 124 -29 l 90 -33 l 72 -8 l 74 7 l 69 18 l 75 58 l 75 72 l 76 93 l 82 106 l 83 125 l 83 136 l 88 154 l 89 172 l 93 193 l 93 208 l 104 236 l 107 254 l 118 267 l 122 289 l 132 299 l 136 318 l 142 329 l 149 351 l 154 365 l 171 393 l 179 414 l 193 438 l 197 451 l 206 465 l 214 486 l 221 494 l 231 511 l 235 521 l 244 540 l 254 550 l 274 572 l 290 581 l 303 590 l 317 600 l 331 606 l 357 611 l 381 629 l 390 639 l 399 660 l 401 676 l 400 700 l 394 717 l 394 743 l 407 739 l 417 731 l 431 732 l 435 747 l 443 760 l 456 764 l 456 747 l 447 732 l 444 708 l 446 678 l 458 664 l 467 650 l 490 631 l 503 615 l 518 613 l 522 603 l 529 592 l 533 579 l 538 568 l 554 561 l 575 539 l 578 522 l 593 493 l 606 479 l 614 465 l 618 451 l 628 438 l 640 407 l 646 392 l 651 378 l 657 357 l 660 347 l 669 325 l 672 314 l 678 296 l 686 281 l 692 268 l 699 250 l 704 239 l 708 218 l 713 201 z m 433 621 l 432 650 l 415 650 l 410 633 l 400 619 l 401 593 l 413 583 l 425 581 z m 381 582 l 378 576 l 378 572 l 379 568 l 381 571 l 383 574 l 385 579 l 382 582 z m 335 553 l 333 556 l 329 554 l 328 553 l 328 549 l 329 546 l 332 546 l 335 549 z m 299 538 l 297 536 l 297 533 l 296 532 l 299 528 l 300 528 l 303 529 l 303 533 l 301 538 z m 325 515 l 325 513 l 326 511 l 329 511 l 332 514 l 331 515 z m 286 496 l 288 497 l 286 500 l 282 503 l 278 503 l 275 501 l 281 496 z m 279 482 l 279 475 l 285 472 l 288 478 l 289 482 l 286 485 z m 275 464 l 276 465 l 278 465 l 278 469 l 275 471 l 272 471 l 271 469 l 272 467 z m 254 446 l 260 450 l 260 456 l 256 460 l 249 460 l 244 457 l 243 450 l 247 447 z m 257 433 l 258 432 l 261 432 l 264 433 l 265 436 l 264 439 l 261 439 l 258 438 z m 206 413 l 222 410 l 226 410 l 229 413 l 229 417 l 228 419 l 225 421 l 221 419 l 214 417 l 210 417 l 206 415 z m 258 408 l 258 406 l 261 404 l 269 407 l 268 410 l 267 411 l 261 413 z m 267 399 l 264 396 l 258 394 l 253 396 l 251 397 l 250 396 l 249 399 l 247 399 l 246 404 l 244 406 l 236 407 l 231 406 l 225 401 l 218 397 l 213 393 l 206 389 l 204 386 l 206 382 l 210 381 l 213 382 l 214 383 l 219 385 l 229 388 l 233 389 l 238 386 l 243 388 l 247 388 l 258 386 l 261 379 l 267 376 l 269 390 l 271 394 l 269 399 z m 243 356 l 244 358 l 244 363 l 239 367 l 232 372 l 226 381 l 224 374 l 222 368 l 222 365 l 228 360 l 233 356 l 235 354 l 236 354 z m 210 365 l 210 371 l 206 376 l 201 376 l 197 375 l 197 369 l 201 365 z m 186 356 l 185 346 l 186 344 l 188 342 l 189 338 l 188 331 l 194 328 l 200 333 l 201 338 l 201 340 l 203 349 l 204 356 l 193 360 l 186 360 l 179 358 z m 229 353 l 219 354 l 211 354 l 211 349 l 215 349 l 224 344 l 228 346 l 231 347 l 232 347 l 232 350 z m 224 340 l 222 340 l 222 333 l 224 329 l 225 328 l 229 333 l 226 339 z m 206 338 l 206 332 l 203 329 l 200 322 l 200 319 l 201 315 l 204 314 l 206 313 l 208 315 l 210 318 l 208 325 l 210 326 l 210 329 l 213 333 l 213 339 z m 167 297 l 178 300 l 186 297 l 193 300 l 192 306 l 189 315 l 183 318 l 181 322 l 175 318 l 174 311 l 165 310 l 157 289 l 153 288 l 150 283 l 151 282 l 154 281 l 157 281 l 158 285 l 161 288 l 165 290 z m 214 315 l 215 315 l 218 317 l 218 322 l 215 321 l 214 319 z m 226 308 l 225 311 l 222 308 l 219 301 l 221 300 l 224 300 l 226 306 z m 200 275 l 204 282 l 210 293 l 210 297 l 206 303 l 200 304 l 193 299 l 190 285 l 194 279 l 200 274 z m 178 275 l 171 281 l 167 279 l 165 278 l 172 271 l 181 265 z m 518 271 l 517 265 l 521 261 l 521 267 l 519 271 z m 192 239 l 194 251 l 185 260 l 186 254 l 179 247 l 189 238 z m 600 247 l 599 244 l 601 242 l 603 242 l 603 246 l 601 247 z m 567 233 l 565 238 l 563 238 l 558 233 l 557 229 l 561 226 l 565 226 l 571 224 l 571 229 z m 606 224 l 603 222 l 599 225 l 597 228 l 594 228 l 593 225 l 593 222 l 594 219 l 603 219 l 608 221 l 613 218 l 619 218 l 619 219 l 613 224 z m 168 225 l 165 224 l 164 218 l 165 213 l 171 218 l 169 224 z m 149 208 l 144 208 l 140 204 l 142 199 l 142 192 l 146 189 l 151 194 l 150 203 z m 190 185 l 189 181 l 192 178 l 194 179 l 197 182 l 194 185 z m 125 163 l 125 156 l 133 158 l 136 164 l 135 167 l 131 167 z m 153 165 l 153 158 l 157 153 l 160 156 l 158 161 z m 710 160 l 708 160 l 708 156 l 711 156 l 711 158 z m 658 157 l 651 157 l 649 158 l 647 157 l 647 154 l 651 153 l 654 147 l 656 143 l 660 143 l 665 144 l 665 150 l 667 153 l 664 156 z m 589 156 l 586 154 l 585 151 l 585 150 l 590 149 l 592 151 l 592 153 z m 136 129 l 135 126 l 135 124 l 136 122 l 139 121 l 140 124 l 140 126 l 139 129 z m 697 129 l 699 125 l 701 124 l 700 128 z m 129 108 l 126 110 l 122 111 l 119 108 l 121 106 l 124 104 l 126 104 l 129 106 z m 649 111 l 647 107 l 647 103 l 651 103 l 656 107 l 654 111 z m 610 101 l 606 107 l 601 107 l 601 103 l 606 101 l 606 100 l 607 99 l 607 94 l 610 92 l 611 92 l 613 93 l 613 99 z m 643 76 l 639 72 l 635 69 l 638 65 l 643 64 l 650 74 l 646 82 z m 135 71 l 132 71 l 129 68 l 129 65 l 135 65 l 138 67 l 136 68 z m 696 33 l 694 29 l 694 26 l 696 21 l 700 21 l 703 25 l 700 29 z m 665 26 l 663 31 l 656 32 l 663 26 l 661 22 l 664 21 l 665 22 z "},"t":{"ha":696,"x_min":0,"x_max":0,"o":"m 624 249 l 618 281 l 610 293 l 599 290 l 590 279 l 568 235 l 543 217 l 532 210 l 536 197 l 553 197 l 551 179 l 531 153 l 515 147 l 485 129 l 465 125 l 428 121 l 403 133 l 396 165 l 390 181 l 393 199 l 389 208 l 389 242 l 388 260 l 386 276 l 388 294 l 389 308 l 389 324 l 388 338 l 386 356 l 385 372 l 388 388 l 388 460 l 383 472 l 385 493 l 386 504 l 385 525 l 393 540 l 422 538 l 440 543 l 469 542 l 482 544 l 500 554 l 515 571 l 513 586 l 511 599 l 497 614 l 485 621 l 469 618 l 439 624 l 419 622 l 394 626 l 386 639 l 393 651 l 404 672 l 410 689 l 418 704 l 421 735 l 417 750 l 399 771 l 367 792 l 328 789 l 294 778 l 279 749 l 272 729 l 275 697 l 283 688 l 290 672 l 301 649 l 314 638 l 301 629 l 274 622 l 256 626 l 228 625 l 211 614 l 200 615 l 186 597 l 182 579 l 182 564 l 199 553 l 211 547 l 258 542 l 274 543 l 301 538 l 308 521 l 308 511 l 311 490 l 313 476 l 310 457 l 313 443 l 310 426 l 307 404 l 310 390 l 310 360 l 308 344 l 311 325 l 307 307 l 308 288 l 307 271 l 308 261 l 310 244 l 306 211 l 304 197 l 304 182 l 301 167 l 294 139 l 268 122 l 233 126 l 182 142 l 168 157 l 144 175 l 144 194 l 158 192 l 164 208 l 153 217 l 129 236 l 119 249 l 106 275 l 100 296 l 82 290 l 81 281 l 74 249 l 69 232 l 74 213 l 78 178 l 86 163 l 96 161 l 108 167 l 126 150 l 135 139 l 157 111 l 169 103 l 179 92 l 194 83 l 206 69 l 218 63 l 246 39 l 263 35 l 274 25 l 292 19 l 319 -4 l 329 -15 l 336 -22 l 358 -28 l 367 -15 l 379 -6 l 406 17 l 422 25 l 436 31 l 450 44 l 479 63 l 490 68 l 503 81 l 518 89 l 529 103 l 543 107 l 560 135 l 572 157 l 585 167 l 596 158 l 610 163 l 619 181 l 626 215 l 626 229 z m 310 708 l 307 735 l 321 754 l 335 764 l 361 764 l 381 747 l 388 733 l 388 707 l 372 699 l 360 703 l 336 697 l 319 699 z m 379 658 l 376 657 l 375 658 l 372 664 l 376 671 l 379 664 z m 349 622 l 347 619 l 343 618 l 340 622 l 346 625 l 349 625 z m 367 581 l 360 581 l 358 585 l 364 588 l 368 586 l 369 583 z m 367 519 l 364 522 l 367 529 l 374 533 l 375 526 l 369 521 z m 342 531 l 346 526 l 347 518 l 342 522 l 338 526 l 339 529 z m 364 475 l 358 475 l 357 479 l 354 489 l 360 494 l 364 493 l 365 486 l 368 481 z m 346 390 l 342 392 l 342 393 l 344 396 l 342 401 l 343 407 l 346 407 l 347 406 l 349 400 l 344 396 l 349 394 l 354 392 z m 356 346 l 358 344 l 360 340 l 358 338 l 354 338 l 353 342 l 353 344 l 354 347 z m 349 310 l 347 307 l 346 307 l 343 308 l 340 313 l 343 315 l 347 313 z m 379 311 l 375 307 l 372 310 l 374 313 l 376 314 l 379 314 z m 338 276 l 343 279 l 349 279 l 350 276 l 350 275 l 344 274 z m 350 254 l 349 261 l 354 265 l 356 264 l 357 260 l 356 254 z m 350 244 l 347 246 l 346 247 l 349 250 l 351 250 l 351 246 z m 343 228 l 342 225 l 339 222 l 333 221 l 329 221 l 326 226 l 329 232 l 335 235 l 340 232 z m 346 217 l 347 219 l 350 219 l 351 218 l 351 215 l 350 213 l 349 211 l 346 213 z m 358 197 l 363 199 l 368 196 l 364 193 l 361 190 l 358 190 l 357 193 z m 371 171 l 367 175 l 358 172 l 350 165 l 346 167 l 340 160 l 331 150 l 326 149 l 324 150 l 325 153 l 331 167 l 336 179 l 339 182 l 347 185 l 349 185 l 353 181 l 354 182 l 358 181 l 364 182 l 368 186 l 368 189 l 369 190 l 374 188 l 374 183 l 376 178 l 378 172 z m 325 189 l 328 189 l 331 186 l 332 183 l 331 181 l 328 179 l 314 174 l 311 175 z m 367 143 l 361 139 l 354 142 l 347 143 l 344 157 l 351 153 l 367 153 l 368 149 l 369 146 z m 540 140 l 539 138 l 536 138 l 535 140 l 535 144 l 540 150 z m 335 135 l 331 133 l 326 135 l 325 138 l 324 139 l 329 144 l 335 142 l 339 138 z m 344 129 l 347 131 l 351 132 l 356 135 l 358 136 l 363 135 l 364 133 l 364 132 l 358 126 l 349 126 l 346 125 l 346 126 z m 164 125 l 160 124 l 160 129 l 163 131 l 164 131 l 165 128 z m 188 124 l 186 122 l 182 125 l 183 128 l 188 131 l 189 128 z m 342 108 l 339 106 l 338 103 l 331 106 l 331 110 l 325 115 l 324 118 l 322 122 l 315 122 l 326 128 l 338 128 l 339 125 l 339 122 l 340 119 l 340 113 z m 500 119 l 497 119 l 494 121 l 494 124 l 500 124 l 501 122 z m 360 115 l 360 118 l 358 121 l 360 122 l 363 122 l 364 121 l 367 117 l 367 114 l 365 111 l 363 113 z m 238 110 l 235 108 l 229 113 l 228 119 l 235 118 l 238 113 z m 344 114 l 350 117 l 351 115 l 353 113 l 351 110 l 350 106 l 350 103 l 351 100 l 353 96 l 351 94 l 350 92 l 349 92 l 346 93 l 343 99 l 343 103 l 344 106 l 344 107 l 346 108 l 346 111 z m 203 110 l 200 108 l 197 110 l 197 111 l 196 111 l 196 114 l 199 115 l 200 114 l 203 113 z m 360 97 l 358 96 l 356 97 l 357 101 l 360 103 z m 264 90 l 260 92 l 257 97 l 260 100 l 265 99 l 268 100 l 271 100 l 275 94 l 274 90 z m 353 71 l 351 65 l 347 61 l 344 57 l 336 49 l 336 57 l 335 63 l 335 67 l 338 75 l 339 78 l 333 78 l 329 79 l 325 82 l 321 83 l 317 82 l 315 83 l 313 85 l 311 86 l 311 88 l 310 92 l 311 89 l 314 89 l 315 90 l 318 89 l 321 90 l 322 94 l 324 96 l 326 97 l 329 94 l 335 90 l 336 88 l 338 83 l 338 81 l 339 78 l 342 79 l 344 82 l 350 82 l 353 78 l 354 74 z m 229 89 l 224 88 l 222 89 l 222 92 l 228 94 l 233 93 z m 369 86 l 367 81 l 365 79 l 364 82 l 364 88 l 367 90 l 368 93 l 369 89 z m 489 82 l 485 82 l 482 85 l 481 88 l 483 90 l 486 90 l 489 88 z m 425 83 l 429 88 l 431 88 l 432 86 l 432 82 l 431 81 l 424 78 z m 283 69 l 278 69 l 275 75 l 281 75 l 283 74 l 286 71 z m 317 65 l 317 75 l 319 72 l 321 68 l 324 63 l 322 61 l 322 60 l 321 58 l 319 56 l 318 54 l 318 64 z m 404 57 l 399 56 l 394 51 l 389 54 l 388 58 l 392 61 l 399 64 l 406 61 z m 438 54 l 431 57 l 429 61 l 432 64 l 435 63 l 439 63 l 444 57 z m 246 54 l 243 51 l 240 54 l 240 57 l 242 58 l 243 58 l 246 57 z m 322 49 l 319 47 l 315 47 l 314 43 l 313 40 l 311 39 l 303 40 l 296 43 l 294 44 l 294 47 l 296 49 l 299 50 l 303 54 l 307 50 l 310 49 l 311 47 l 314 49 l 318 53 l 324 53 l 325 51 z "},"u":{"ha":975,"x_min":0,"x_max":0,"o":"m 901 378 l 896 379 l 869 388 l 829 376 l 801 383 l 774 382 l 760 401 l 760 417 l 758 435 l 750 447 l 746 465 l 739 479 l 731 492 l 725 503 l 714 519 l 707 529 l 706 557 l 717 574 l 743 593 l 771 619 l 788 642 l 789 654 l 788 650 l 788 654 l 776 663 l 776 667 l 775 669 l 764 660 l 742 647 l 718 618 l 696 596 l 678 581 l 657 583 l 642 594 l 629 600 l 601 614 l 586 621 l 571 629 l 557 636 l 539 632 l 525 636 l 510 654 l 504 678 l 504 704 l 508 744 l 503 772 l 500 782 l 497 781 l 492 785 l 481 785 l 479 782 l 469 768 l 469 742 l 471 706 l 474 679 l 465 656 l 453 638 l 438 635 l 419 633 l 404 631 l 392 622 l 375 615 l 358 610 l 349 603 l 331 590 l 319 588 l 297 581 l 281 594 l 254 619 l 236 644 l 208 661 l 203 669 l 200 663 l 196 660 l 188 657 l 185 653 l 188 656 l 190 638 l 271 557 l 269 536 l 257 519 l 251 508 l 243 494 l 238 481 l 229 464 l 222 446 l 222 432 l 217 419 l 215 399 l 203 385 l 176 383 l 144 378 l 106 386 l 79 376 l 69 379 l 74 375 l 72 369 l 71 363 l 74 351 l 79 349 l 106 342 l 146 351 l 176 347 l 203 347 l 215 329 l 217 310 l 221 296 l 222 285 l 228 265 l 238 254 l 242 240 l 250 219 l 258 213 l 271 197 l 271 178 l 256 153 l 233 138 l 203 111 l 186 86 l 183 79 l 183 76 l 189 75 l 196 64 l 201 64 l 200 67 l 210 67 l 235 85 l 276 135 l 301 146 l 319 142 l 331 132 l 344 124 l 360 117 l 403 99 l 421 100 l 436 90 l 451 93 l 467 76 l 474 51 l 474 25 l 469 -14 l 471 -40 l 476 -56 l 479 -49 l 481 -56 l 492 -53 l 500 -53 l 500 -51 l 501 -42 l 507 -17 l 501 24 l 506 57 l 510 81 l 526 93 l 538 96 l 571 103 l 585 108 l 601 108 l 617 119 l 631 124 l 640 139 l 654 147 l 675 150 l 699 129 l 717 108 l 742 85 l 767 67 l 772 63 l 778 64 l 783 71 l 790 74 l 792 74 l 788 85 l 772 113 l 742 132 l 719 153 l 707 179 l 710 197 l 715 210 l 728 219 l 735 233 l 742 250 l 744 269 l 749 278 l 756 300 l 758 311 l 764 328 l 772 342 l 800 353 l 829 346 l 869 342 l 896 351 l 904 356 l 906 368 l 906 372 z m 467 610 l 468 611 l 471 608 l 471 606 l 467 606 z m 369 603 l 374 604 l 375 601 l 375 600 l 374 599 l 372 599 l 369 600 z m 400 589 l 403 593 l 406 590 l 404 586 l 401 585 l 400 583 z m 428 590 l 431 592 l 432 592 l 433 590 l 431 588 l 429 588 l 426 589 z m 444 590 l 446 592 l 447 590 l 449 588 l 449 586 l 447 585 l 444 585 z m 572 589 l 576 590 l 582 588 l 582 586 l 581 583 l 578 585 l 575 585 l 575 583 l 572 586 l 569 588 z m 382 547 l 401 557 l 415 560 l 432 567 l 451 575 l 467 561 l 469 536 l 476 514 l 471 489 l 465 458 l 460 432 l 435 444 l 390 476 l 376 497 l 364 518 l 369 538 z m 411 574 l 415 571 l 411 568 l 407 569 l 406 572 l 407 574 z m 504 538 l 506 560 l 525 574 l 542 571 l 558 560 l 578 554 l 594 544 l 610 540 l 613 514 l 599 499 l 588 475 l 565 464 l 538 449 l 518 438 l 508 456 l 506 488 l 500 514 z m 333 569 l 336 571 l 338 572 l 340 571 l 340 561 l 336 561 l 333 560 l 331 557 l 331 561 l 329 565 z m 357 568 l 360 571 l 365 571 l 360 565 l 357 567 z m 378 567 l 381 568 l 383 571 l 388 569 l 388 567 l 385 564 l 382 560 l 378 561 l 375 564 z m 301 543 l 303 546 l 306 547 l 308 550 l 310 550 l 313 551 l 315 554 l 315 549 l 317 543 l 315 542 l 314 539 l 310 535 l 315 533 l 319 529 l 324 528 l 328 528 l 331 531 l 336 531 l 338 532 l 340 531 l 342 529 l 342 528 l 339 526 l 336 528 l 332 525 l 328 521 l 325 519 l 324 521 l 321 521 l 317 517 l 315 517 l 314 515 l 313 518 l 313 519 l 308 524 l 308 531 l 310 532 l 310 535 l 307 535 l 304 533 l 300 535 l 300 538 l 299 540 z m 329 547 l 331 551 l 332 547 l 333 544 l 335 540 l 335 538 l 331 538 l 329 542 l 328 544 z m 638 544 l 643 544 l 647 542 l 651 540 l 651 536 l 653 532 l 649 531 l 643 533 l 639 533 l 636 535 l 635 540 z m 283 535 l 285 538 l 288 540 l 289 540 l 290 539 l 288 535 l 286 533 l 283 533 z m 292 525 l 290 524 l 286 524 l 288 525 l 288 526 l 289 528 l 292 528 z m 293 525 l 296 526 l 297 528 l 300 525 l 300 519 l 297 517 l 297 515 l 296 515 l 294 514 l 293 510 l 289 510 l 289 511 l 288 514 l 292 517 l 293 518 z m 686 525 l 689 525 l 693 524 l 693 521 l 692 518 l 685 518 l 679 524 z m 279 519 l 281 519 l 281 517 l 282 514 l 282 510 l 279 508 l 278 510 l 276 514 z m 308 501 l 308 500 l 307 499 l 307 496 l 310 494 l 311 493 l 301 493 l 297 494 l 292 496 l 292 497 l 293 497 l 294 500 l 294 501 l 296 507 l 297 508 l 297 510 l 299 513 l 301 514 l 303 515 l 307 513 l 307 510 l 306 507 z m 663 506 l 665 508 l 668 508 l 672 501 l 669 497 l 668 494 l 667 494 l 663 499 z m 274 504 l 276 504 l 279 506 l 286 503 l 289 503 l 289 499 l 275 499 l 274 501 z m 265 496 l 268 497 l 272 497 l 276 493 l 281 490 l 279 485 l 279 479 l 274 485 l 265 489 l 264 490 z m 296 490 l 300 488 l 299 483 l 296 482 l 293 482 l 290 486 l 290 490 z m 642 489 l 660 485 l 669 471 l 676 453 l 692 417 l 693 403 l 681 382 l 664 382 l 638 374 l 611 376 l 582 388 l 556 394 l 568 417 l 585 438 l 603 463 l 625 478 z m 353 478 l 372 461 l 390 440 l 408 415 l 417 397 l 394 383 l 363 382 l 335 379 l 314 383 l 294 386 l 282 399 l 285 422 l 288 438 l 297 450 l 303 465 l 314 486 l 336 486 z m 275 460 l 272 458 l 267 460 l 265 460 l 264 464 l 263 464 l 261 465 l 260 465 l 256 467 l 251 465 l 250 464 l 250 463 l 247 463 l 246 467 l 247 468 l 247 475 l 249 478 l 249 479 l 253 478 l 256 474 l 263 472 l 267 474 l 272 474 l 274 472 l 276 474 l 281 475 l 283 476 l 288 478 l 289 478 l 290 479 l 294 478 l 296 476 l 293 474 l 289 471 l 285 467 l 281 464 l 276 460 z m 710 457 l 707 456 l 703 454 l 700 456 l 701 460 l 704 463 l 708 464 l 710 461 z m 256 454 l 254 453 l 250 453 l 249 456 l 247 457 l 251 458 l 254 460 l 256 458 z m 278 453 l 278 454 l 279 456 l 279 457 l 289 457 l 294 456 l 296 454 l 290 453 l 282 449 l 279 450 z m 257 435 l 257 433 l 254 432 l 253 435 l 254 438 l 256 439 l 258 439 l 258 435 z m 743 429 l 742 428 l 739 426 l 738 429 l 738 433 l 740 435 l 743 435 l 744 433 z m 271 422 l 268 419 l 264 419 l 260 421 l 258 424 l 258 425 l 263 429 l 267 429 l 271 426 z m 426 415 l 426 411 l 424 414 l 424 418 l 425 418 l 425 419 z m 249 413 l 250 413 l 251 411 l 254 410 l 251 407 l 249 408 l 247 411 z m 243 400 l 244 406 l 249 404 l 250 399 l 247 397 l 246 396 l 243 397 z m 471 401 l 471 404 l 472 406 l 474 404 l 474 401 z m 451 390 l 451 388 l 449 388 l 447 389 l 443 388 l 442 390 l 442 393 l 444 396 l 446 396 l 447 394 l 447 393 z m 482 389 l 486 386 l 486 385 l 482 385 l 478 386 l 475 386 l 471 385 l 468 385 l 467 388 l 467 389 l 468 390 l 471 390 l 474 388 l 476 389 z m 258 386 l 253 385 l 249 385 l 249 388 l 253 389 z m 725 381 l 724 378 l 721 375 l 718 381 l 718 386 l 719 388 l 722 386 l 724 383 l 725 382 z m 253 356 l 250 357 l 249 360 l 251 363 l 254 361 l 256 358 l 254 356 z m 229 357 l 226 356 l 225 356 l 224 357 l 225 358 l 228 360 l 229 358 z m 490 358 l 493 351 l 489 346 l 488 344 l 485 344 l 483 349 l 483 350 l 485 350 l 489 354 z m 689 308 l 685 290 l 681 276 l 669 261 l 663 249 l 640 238 l 622 256 l 603 268 l 585 290 l 567 310 l 554 339 l 578 344 l 608 353 l 639 357 l 663 350 l 682 340 l 697 326 z m 336 240 l 314 249 l 307 258 l 299 279 l 288 294 l 285 310 l 281 331 l 294 346 l 311 347 l 338 350 l 363 349 l 397 347 l 418 333 l 408 313 l 388 290 l 372 263 z m 543 346 l 543 343 l 540 343 l 539 344 l 539 346 l 540 346 l 542 347 z m 517 332 l 515 335 l 514 336 l 513 339 l 510 339 l 510 342 l 513 342 l 518 343 l 522 342 l 525 339 l 524 338 l 524 333 l 519 332 z m 469 336 l 469 333 l 464 333 l 465 335 l 465 336 l 467 338 z m 247 329 l 246 329 l 243 331 l 243 336 l 246 336 l 249 331 z m 551 321 l 549 321 l 547 324 l 550 322 z m 518 306 l 515 303 l 513 303 l 511 306 l 513 308 l 517 308 z m 482 299 l 479 300 l 479 303 l 482 304 l 483 301 l 483 300 l 485 300 l 488 297 l 488 294 l 486 293 l 486 292 l 483 294 l 483 297 z m 264 293 l 258 293 l 256 294 l 261 297 l 265 296 z m 417 168 l 401 171 l 382 178 l 368 194 l 364 214 l 376 231 l 389 250 l 413 264 l 436 286 l 460 294 l 468 272 l 472 239 l 479 215 l 471 192 l 469 171 l 447 154 l 431 164 z m 593 181 l 579 175 l 560 165 l 543 158 l 524 157 l 507 171 l 506 192 l 497 211 l 501 242 l 510 271 l 515 293 l 540 283 l 563 267 l 586 251 l 599 231 l 614 208 l 607 188 z m 294 217 l 292 215 l 288 215 l 288 219 l 292 221 l 294 219 l 297 219 z m 682 210 l 679 208 l 678 210 l 678 213 l 682 213 l 683 211 z m 325 185 l 322 183 l 319 183 l 318 186 l 317 188 l 319 189 l 322 189 l 325 186 z m 351 183 l 350 182 l 349 182 l 349 186 l 350 188 l 351 188 z m 674 178 l 671 178 l 668 179 l 667 182 l 668 183 l 671 185 l 672 182 l 674 181 z m 599 174 l 596 172 l 594 175 l 594 178 l 597 178 l 599 176 z m 657 175 l 654 172 l 651 174 l 651 176 l 654 178 l 656 178 l 657 176 z m 629 164 l 625 160 l 625 165 l 626 169 l 628 169 l 629 168 z m 339 161 l 336 160 l 333 161 l 332 161 l 332 164 l 335 165 l 336 165 l 339 163 z m 379 147 l 374 147 l 372 153 l 374 154 l 376 153 l 379 153 l 381 151 z m 642 147 l 636 147 l 633 150 l 635 151 l 640 154 l 646 151 z m 363 149 l 361 146 l 358 143 l 358 149 l 361 153 l 364 153 z m 463 107 l 461 104 l 460 106 l 458 106 l 447 111 l 446 113 l 442 115 l 435 122 l 435 129 l 439 132 l 439 133 l 440 135 l 439 136 l 439 138 l 440 142 l 438 146 l 435 146 l 435 149 l 438 151 l 440 150 l 443 150 l 446 151 l 450 151 l 449 146 l 444 143 l 446 135 l 449 132 l 450 128 l 450 126 l 449 125 l 454 119 l 457 115 l 463 110 z m 564 143 l 564 139 l 560 139 l 557 140 l 553 136 l 554 142 l 554 147 l 556 147 l 560 149 l 563 150 l 564 150 l 565 149 z m 508 143 l 504 146 l 508 149 l 510 147 l 513 147 l 513 144 l 511 144 z m 388 144 l 383 140 l 382 143 l 382 144 l 383 146 l 386 147 l 388 146 z m 433 142 l 432 139 l 428 139 l 426 140 l 426 143 l 428 146 l 429 147 l 432 144 z m 589 143 l 588 142 l 583 139 l 582 140 l 582 143 l 586 146 l 589 144 l 592 144 z m 615 140 l 611 138 l 610 135 l 608 133 l 603 133 l 601 136 l 604 140 l 607 142 l 610 144 l 615 143 z m 463 122 l 457 122 l 460 125 l 461 128 l 463 135 l 463 140 l 468 142 l 469 139 l 472 138 l 472 135 l 469 124 z m 551 107 l 550 106 l 547 106 l 544 107 l 539 107 l 533 106 l 526 106 l 525 108 l 522 110 l 518 108 l 513 111 l 515 114 l 515 119 l 519 125 l 522 126 l 524 128 l 518 131 l 517 135 l 519 140 l 525 142 l 528 142 l 531 140 l 535 142 l 539 142 l 536 136 l 535 131 l 524 128 l 528 124 l 529 117 l 535 111 l 538 111 l 540 113 l 546 110 l 549 110 l 550 111 l 551 108 z m 485 136 l 488 140 l 494 140 l 490 135 l 486 133 l 485 135 z m 410 135 l 407 136 l 407 138 l 408 139 l 411 139 l 413 138 l 414 135 z m 476 129 l 475 133 l 475 136 l 476 138 l 478 138 l 482 132 l 483 125 l 485 122 l 482 122 l 481 121 z m 500 136 l 501 138 l 504 138 l 506 136 l 504 135 l 501 135 z m 403 125 l 400 122 l 396 122 l 393 125 l 392 129 l 394 133 l 399 135 l 403 131 z m 510 128 l 506 124 l 497 124 l 493 122 l 490 126 l 493 129 l 497 128 l 500 129 l 501 129 l 506 132 l 510 132 z m 551 124 l 550 121 l 549 117 l 547 118 l 544 119 l 544 126 l 551 132 z m 504 113 l 501 113 l 499 111 l 494 106 l 489 103 l 488 100 l 488 97 l 485 101 l 482 107 l 481 117 l 482 117 l 482 115 l 485 117 l 488 117 l 490 118 l 492 118 l 499 121 l 504 118 z m 438 99 l 436 99 l 432 104 l 431 107 l 426 111 l 428 114 l 429 115 l 435 115 l 436 113 l 438 106 z m 475 106 l 471 104 l 468 106 l 467 108 l 469 114 l 474 115 l 476 110 z "},"v":{"ha":796,"x_min":0,"x_max":0,"o":"m 717 764 l 706 779 l 700 761 l 697 739 l 693 719 l 690 710 l 682 731 l 679 751 l 675 767 l 663 779 l 658 757 l 664 743 l 667 713 l 668 699 l 660 671 l 649 657 l 629 640 l 617 651 l 614 672 l 617 700 l 619 732 l 615 750 l 603 751 l 601 733 l 594 699 l 585 689 l 574 713 l 572 724 l 565 738 l 557 749 l 553 765 l 542 783 l 543 767 l 547 750 l 547 733 l 549 721 l 553 708 l 557 672 l 560 657 l 564 642 l 564 626 l 558 590 l 550 579 l 543 558 l 524 533 l 508 518 l 479 501 l 468 514 l 464 528 l 468 547 l 468 582 l 465 601 l 467 632 l 461 650 l 461 668 l 456 681 l 447 658 l 446 649 l 450 632 l 447 608 l 447 558 l 444 542 l 447 522 l 446 510 l 444 489 l 436 472 l 425 464 l 418 457 l 394 457 l 386 467 l 368 467 l 357 490 l 353 507 l 349 515 l 340 539 l 335 556 l 333 565 l 324 599 l 325 618 l 321 626 l 319 649 l 311 661 l 306 644 l 306 633 l 304 617 l 306 594 l 307 565 l 313 546 l 319 526 l 325 513 l 311 496 l 283 513 l 271 525 l 263 540 l 244 565 l 239 575 l 229 610 l 224 619 l 218 642 l 217 664 l 213 681 l 221 693 l 221 713 l 228 743 l 229 756 l 231 771 l 225 790 l 217 776 l 214 765 l 207 749 l 207 735 l 204 739 l 201 756 l 210 785 l 208 806 l 210 824 l 199 818 l 190 794 l 183 772 l 179 749 l 178 732 l 172 721 l 171 749 l 167 760 l 153 750 l 153 721 l 160 714 l 165 686 l 165 669 l 164 656 l 139 675 l 124 706 l 124 724 l 119 749 l 114 731 l 107 718 l 104 719 l 94 744 l 93 774 l 89 796 l 75 785 l 69 767 l 75 729 l 79 721 l 92 683 l 108 667 l 107 654 l 110 633 l 115 619 l 119 603 l 126 590 l 132 572 l 150 550 l 179 535 l 189 522 l 203 517 l 235 496 l 231 486 l 221 471 l 229 435 l 235 414 l 260 386 l 285 378 l 306 365 l 315 351 l 326 326 l 313 311 l 297 318 l 282 315 l 263 311 l 247 313 l 232 315 l 218 301 l 217 283 l 215 267 l 218 249 l 219 232 l 225 217 l 228 197 l 231 182 l 235 164 l 239 149 l 244 135 l 251 124 l 260 110 l 272 92 l 279 78 l 288 69 l 301 53 l 314 40 l 326 35 l 342 26 l 351 13 l 369 4 l 379 0 l 414 1 l 428 8 l 446 19 l 458 26 l 469 33 l 486 43 l 494 60 l 517 82 l 529 101 l 535 117 l 546 128 l 550 144 l 558 156 l 563 179 l 565 194 l 571 208 l 571 224 l 578 242 l 575 261 l 578 275 l 576 296 l 575 303 l 561 311 l 546 318 l 529 311 l 513 313 l 493 317 l 482 331 l 492 367 l 515 388 l 531 394 l 551 411 l 568 435 l 574 451 l 572 488 l 590 513 l 615 532 l 624 549 l 657 582 l 668 592 l 674 608 l 686 631 l 700 657 l 721 690 l 726 726 z m 182 563 l 165 576 l 146 599 l 143 615 l 135 629 l 140 639 l 164 610 l 181 583 l 185 569 z m 289 435 l 285 438 l 286 443 l 288 444 l 289 440 z m 368 419 l 369 419 l 372 417 l 371 414 l 369 414 l 368 415 l 367 418 z m 325 401 l 326 407 l 331 411 l 333 410 l 335 406 l 339 403 l 339 397 l 333 400 l 329 399 z m 361 399 l 363 400 l 365 400 l 368 397 l 371 396 l 374 397 l 382 397 l 388 392 l 388 390 l 382 390 l 376 394 l 371 393 l 367 392 l 363 393 l 361 396 z m 479 329 l 478 329 l 476 332 l 479 333 l 481 332 z m 433 322 l 433 318 l 429 315 l 424 317 l 424 321 l 419 325 l 415 326 l 415 329 l 417 331 l 426 331 l 433 328 l 436 326 z m 353 325 l 354 326 l 357 328 l 360 326 l 360 324 l 358 322 l 353 322 z m 467 299 l 465 301 l 468 300 l 471 297 z m 344 292 l 347 290 l 350 290 l 351 289 l 350 288 l 347 286 l 344 289 z m 415 281 l 417 285 l 419 285 l 422 283 l 424 281 l 419 276 l 415 276 z m 369 276 l 371 281 l 374 281 l 378 275 l 381 271 l 381 267 l 378 264 l 375 267 l 375 271 l 374 272 l 374 274 z m 336 253 l 335 250 l 331 250 l 329 254 l 328 257 l 329 257 l 331 258 l 333 258 z m 308 256 l 310 256 l 313 257 l 314 254 l 314 253 l 311 251 l 308 251 l 307 253 z m 407 244 l 411 250 l 414 256 l 418 246 l 411 238 l 406 238 l 404 243 z m 276 243 l 281 247 l 281 244 l 282 239 l 281 235 l 279 238 l 276 240 z m 508 243 l 510 244 l 515 244 l 521 242 l 517 240 l 514 240 l 508 242 z m 299 235 l 301 233 l 304 229 l 299 229 l 296 232 z m 250 210 l 246 208 l 244 208 l 243 210 l 246 214 l 247 215 l 249 215 l 250 213 z m 293 200 l 290 203 l 289 207 l 288 210 l 289 214 l 290 215 l 294 215 l 296 210 l 297 207 l 299 206 l 297 204 l 296 201 z m 468 194 l 464 194 l 463 199 l 463 201 l 465 206 l 468 203 l 471 199 z m 425 204 l 431 204 l 433 200 l 435 196 l 432 193 l 431 196 l 431 200 z m 525 193 l 525 190 l 524 189 l 524 188 l 521 188 l 519 190 l 518 192 l 519 196 l 521 197 z m 285 188 l 285 185 l 286 182 l 285 181 l 282 181 l 281 182 l 279 185 l 279 188 l 281 192 l 282 189 z m 501 168 l 504 168 l 507 165 l 507 161 l 506 160 l 504 160 l 501 163 z m 289 146 l 283 144 l 282 146 l 276 154 l 275 156 l 278 158 l 289 158 l 290 153 l 290 149 l 294 146 z m 324 118 l 321 119 l 321 115 l 322 113 l 319 107 l 317 106 l 311 106 l 307 111 l 306 111 l 303 117 l 301 118 l 297 125 l 297 126 l 304 126 l 311 128 l 315 124 l 319 121 l 321 119 l 322 125 l 328 131 l 329 136 l 331 140 l 329 143 l 326 144 l 326 151 l 325 154 l 326 156 l 326 157 l 331 157 l 332 154 l 331 150 l 333 146 l 339 140 l 340 138 l 339 135 l 339 132 l 340 131 l 343 125 l 343 122 l 342 122 l 339 121 l 335 118 z m 533 157 l 538 157 l 538 154 l 535 151 l 533 151 l 531 154 z m 314 150 l 319 147 l 318 144 l 310 142 l 306 143 l 301 146 z m 488 136 l 490 135 l 494 131 l 494 129 l 489 131 l 488 133 l 485 136 z m 361 100 l 356 101 l 347 104 l 344 110 l 349 115 l 354 113 l 363 115 l 368 115 l 371 118 l 372 121 l 372 118 l 371 114 l 371 108 l 369 103 l 365 99 z m 485 114 l 486 118 l 492 118 l 494 115 l 489 110 l 488 107 l 483 111 z m 411 100 l 408 108 l 410 114 l 413 108 l 415 106 l 417 103 l 419 100 l 421 97 l 417 93 l 414 93 l 413 96 l 413 97 z m 460 99 l 458 97 l 456 96 l 451 96 l 449 99 l 447 101 l 446 106 l 447 107 l 449 110 l 453 110 l 458 107 l 460 104 z m 481 104 l 479 103 l 476 103 l 475 104 l 475 108 l 479 108 l 481 107 z m 347 100 l 349 99 l 351 97 l 351 92 l 346 92 l 344 93 l 343 96 l 340 97 l 339 99 l 332 99 l 329 103 l 332 106 l 339 107 l 344 103 l 344 101 z m 375 103 l 376 104 l 378 107 l 382 107 l 382 106 l 383 104 l 383 100 l 378 94 l 375 94 z m 425 53 l 424 51 l 419 51 l 417 50 l 414 50 l 406 47 l 401 47 l 403 54 l 406 56 l 408 58 l 406 67 l 401 71 l 399 75 l 399 78 l 400 79 l 397 83 l 396 86 l 392 90 l 390 93 l 390 94 l 388 99 l 388 103 l 389 103 l 390 104 l 393 101 l 397 99 l 400 97 l 403 94 l 407 92 l 410 89 l 413 89 l 415 85 l 418 78 l 418 76 l 414 72 l 415 71 l 415 61 l 418 60 l 421 57 l 425 57 l 426 56 z m 332 90 l 329 92 l 329 96 l 332 96 l 333 94 l 333 93 l 335 90 z m 317 88 l 313 92 l 313 93 l 315 94 l 319 92 l 322 86 z m 365 76 l 364 72 l 360 74 l 358 76 l 357 81 l 360 89 l 360 92 l 365 92 z m 454 85 l 454 83 l 453 83 l 451 82 l 449 82 l 446 83 l 447 86 l 449 86 l 450 88 l 453 88 l 456 86 z m 353 81 l 351 79 l 346 76 l 338 82 l 342 82 l 346 83 l 353 83 z m 388 81 l 385 76 l 382 68 l 382 65 l 379 63 l 372 63 l 371 67 l 368 72 l 372 78 l 375 82 l 376 83 l 390 83 z m 435 63 l 435 61 l 433 60 l 432 61 l 429 61 l 428 63 l 425 64 l 426 67 l 428 68 l 432 68 l 433 69 l 436 65 z "},"w":{"ha":922,"x_min":0,"x_max":0,"o":"m 719 531 l 731 515 l 736 506 l 751 490 l 757 476 l 768 463 l 778 451 l 789 433 l 803 422 l 810 407 l 824 394 l 829 386 l 840 375 l 853 361 l 847 336 l 839 319 l 824 314 l 810 299 l 799 286 l 785 281 l 772 267 l 761 260 l 751 247 l 735 238 l 724 219 l 713 211 l 697 199 l 688 188 l 676 179 l 661 168 l 649 154 l 638 143 l 621 131 l 611 122 l 599 108 l 585 99 l 575 83 l 561 78 l 546 61 l 538 51 l 525 44 l 513 29 l 496 22 l 488 10 l 475 0 l 447 0 l 435 10 l 421 17 l 408 32 l 397 42 l 385 53 l 371 68 l 358 79 l 333 96 l 324 113 l 308 122 l 294 132 l 285 147 l 272 156 l 247 178 l 233 189 l 221 199 l 207 213 l 194 219 l 183 233 l 171 249 l 161 254 l 146 269 l 136 282 l 124 289 l 111 303 l 99 315 l 83 324 l 72 338 l 69 356 l 79 368 l 90 383 l 97 401 l 111 411 l 122 428 l 133 439 l 140 447 l 153 463 l 163 474 l 174 488 l 181 501 l 194 518 l 206 526 l 228 544 l 244 540 l 263 538 l 278 539 l 297 542 l 328 542 l 344 543 l 360 542 l 376 538 l 392 539 l 413 542 l 429 542 l 444 539 l 475 538 l 496 540 l 508 538 l 528 542 l 542 540 l 560 543 l 575 540 l 593 543 l 607 543 l 625 539 l 640 538 l 656 540 l 672 544 l 693 539 z m 450 453 l 440 461 l 432 471 l 433 476 l 425 486 l 422 499 l 428 504 l 428 513 l 414 508 l 407 508 l 404 504 l 406 501 l 410 500 l 414 496 l 414 486 l 415 485 l 414 482 l 414 481 l 410 475 l 408 474 l 411 464 l 415 458 l 432 449 l 440 446 l 449 442 l 454 440 l 457 444 l 454 450 z m 532 513 l 525 513 l 518 510 l 525 506 l 532 508 l 533 511 z m 617 492 l 619 496 l 625 503 l 622 507 l 619 507 l 614 506 l 606 506 l 601 497 l 599 490 l 604 493 l 610 492 l 614 490 l 615 489 z m 551 482 l 560 483 l 567 485 l 575 501 l 564 501 l 553 503 l 543 501 l 539 493 l 542 486 z m 403 493 l 396 501 l 393 499 l 392 494 l 393 489 l 401 489 z m 707 492 l 711 490 l 714 490 l 714 493 l 711 499 l 708 501 l 706 501 l 704 500 l 703 497 l 703 494 l 706 493 z m 446 467 l 454 469 l 464 472 l 465 481 l 468 489 l 467 492 l 467 493 l 460 500 l 451 497 l 451 478 z m 490 488 l 497 492 l 501 500 l 497 499 l 492 499 l 488 492 l 489 489 z m 514 492 l 517 490 l 518 492 l 521 493 l 519 496 l 517 497 l 515 496 l 511 494 z m 488 471 l 486 475 l 483 486 l 476 494 l 472 492 l 472 486 l 476 476 l 482 468 z m 521 488 l 514 482 l 511 482 l 508 481 l 506 482 l 501 483 l 497 478 l 501 472 l 508 475 l 511 474 l 513 474 l 522 475 l 528 482 l 529 485 l 528 488 z m 226 486 l 222 486 l 221 485 l 222 482 l 225 479 l 229 479 l 231 482 l 231 485 z m 310 483 l 306 482 l 300 481 l 299 478 l 303 475 l 306 472 l 310 474 l 313 475 l 314 476 l 314 483 z m 589 481 l 583 476 l 582 465 l 586 461 l 588 461 l 589 467 l 592 472 l 593 478 l 593 483 l 592 483 z m 368 482 l 364 482 l 361 479 l 363 476 l 367 475 l 371 475 l 374 478 l 371 479 z m 658 476 l 653 482 l 646 482 l 643 479 l 644 476 l 649 476 l 650 475 l 656 475 z m 324 481 l 319 478 l 319 474 l 325 471 l 326 474 l 328 478 l 326 479 z m 586 451 l 582 451 l 578 453 l 575 456 l 567 454 l 563 460 l 558 464 l 556 475 l 550 481 l 544 476 l 536 468 l 536 461 l 533 454 l 540 451 l 549 453 l 551 450 l 554 446 l 564 446 l 571 447 l 578 447 l 582 443 l 586 442 l 589 444 l 589 447 z m 285 468 l 283 467 l 285 460 l 288 457 l 290 453 l 290 464 l 288 469 z m 358 467 l 350 469 l 344 467 l 343 460 l 347 453 l 353 449 l 360 451 l 361 457 z m 511 469 l 506 467 l 485 460 l 483 453 l 486 446 l 492 439 l 496 432 l 496 440 l 504 444 l 510 450 l 513 454 l 521 458 l 521 467 z m 471 460 l 468 457 l 465 456 l 461 447 l 464 443 l 468 440 l 475 443 l 476 450 l 475 454 z m 672 444 l 674 446 l 676 447 l 675 451 l 675 454 l 669 457 l 660 457 l 658 451 l 660 449 l 660 446 l 669 446 z m 414 447 l 413 453 l 408 453 l 404 451 l 401 449 l 400 444 l 404 442 l 411 433 l 417 426 l 419 428 z m 244 451 l 242 447 l 242 443 l 243 440 l 246 442 l 247 443 l 250 444 l 250 450 l 249 451 z m 201 442 l 199 438 l 199 432 l 200 431 l 203 431 l 207 433 l 207 436 l 208 439 l 206 442 z m 715 440 l 711 442 l 707 440 l 704 440 l 710 435 l 714 433 l 717 433 l 718 436 z m 692 421 l 692 425 l 688 425 l 685 422 l 683 418 l 683 415 l 689 410 l 690 414 l 693 417 z m 722 389 l 725 389 l 728 390 l 726 394 l 725 397 l 722 399 l 719 396 l 721 392 z m 158 388 l 161 379 l 167 375 l 169 375 l 171 376 l 168 383 z m 701 388 l 696 388 l 693 382 l 699 383 l 701 386 z m 725 371 l 721 368 l 719 364 l 722 363 l 731 365 l 731 369 l 729 372 z m 765 343 l 763 340 l 763 336 l 764 335 l 767 335 l 769 338 l 769 342 z m 669 324 l 675 325 l 676 331 l 681 333 l 681 336 l 676 339 l 671 339 l 669 335 l 671 331 l 671 326 z m 676 293 l 678 297 l 679 299 l 679 303 l 674 303 l 672 300 l 672 296 l 674 292 l 676 288 l 675 282 l 676 276 l 678 275 l 681 283 l 679 290 z m 697 303 l 696 301 l 694 299 l 694 297 l 697 297 l 700 300 l 699 303 z m 606 292 l 601 292 l 603 289 l 603 286 l 604 285 l 607 286 l 608 289 z m 561 263 l 560 258 l 558 258 l 557 257 l 553 256 l 551 251 l 553 250 l 554 250 l 560 251 l 565 260 l 565 264 z m 626 232 l 624 233 l 622 232 l 621 228 l 618 224 l 614 221 l 614 217 l 618 213 l 622 214 l 626 213 l 628 215 l 628 222 l 626 229 z m 540 219 l 538 222 l 533 218 l 535 214 l 544 208 l 553 215 l 546 215 z m 581 219 l 576 221 l 574 219 l 574 215 l 575 214 l 579 213 l 582 214 l 582 217 z m 507 186 l 506 192 l 503 185 l 499 185 l 497 182 l 500 181 l 503 182 z m 607 171 l 610 174 l 611 178 l 608 175 z m 643 175 l 639 174 l 640 171 l 643 171 l 644 172 z m 514 154 l 510 153 l 507 150 l 508 146 l 513 146 l 515 150 l 518 153 z "},"x":{"ha":735,"x_min":0,"x_max":0,"o":"m 521 539 l 535 542 l 553 536 l 581 525 l 593 514 l 608 506 l 619 496 l 629 485 l 640 471 l 647 453 l 653 439 l 658 421 l 661 410 l 664 392 l 665 360 l 664 339 l 663 321 l 656 310 l 649 293 l 643 275 l 631 260 l 622 247 l 614 236 l 601 225 l 592 210 l 576 200 l 564 186 l 549 175 l 522 160 l 511 144 l 500 136 l 486 125 l 472 117 l 460 99 l 446 93 l 433 76 l 422 69 l 411 51 l 401 43 l 390 28 l 381 13 l 375 3 l 358 0 l 349 13 l 343 28 l 328 40 l 322 54 l 310 64 l 297 76 l 283 94 l 275 104 l 261 110 l 250 122 l 235 133 l 224 143 l 210 157 l 183 179 l 171 188 l 158 194 l 143 207 l 133 219 l 122 231 l 111 244 l 101 263 l 92 275 l 82 290 l 74 326 l 71 342 l 69 354 l 69 390 l 71 406 l 71 424 l 79 442 l 85 456 l 92 471 l 103 482 l 115 497 l 126 508 l 136 517 l 154 526 l 167 532 l 182 540 l 200 539 l 250 543 l 278 532 l 296 529 l 313 519 l 326 514 l 338 500 l 347 490 l 357 476 l 374 469 l 382 488 l 390 499 l 404 506 l 433 525 l 453 536 l 467 538 l 483 543 z m 528 501 l 525 506 l 522 508 l 519 507 l 517 504 l 514 503 l 515 500 l 515 497 l 519 494 l 522 494 l 526 493 l 529 492 l 531 494 l 532 496 l 531 499 z m 533 440 l 533 438 l 535 435 l 535 432 l 536 429 l 536 426 l 538 424 l 538 419 l 539 418 l 542 417 l 543 418 l 546 419 l 547 422 l 547 426 l 549 435 l 549 440 l 550 447 l 550 454 l 553 456 l 554 457 l 556 460 l 556 472 l 558 478 l 561 485 l 567 485 l 571 483 l 578 490 l 576 492 l 572 493 l 568 496 l 567 497 l 557 501 l 556 503 l 551 504 l 546 507 l 542 507 l 539 506 l 539 501 l 542 500 l 546 499 l 547 493 l 549 489 l 546 482 l 544 481 l 544 478 l 540 478 l 540 475 l 536 475 l 533 474 l 528 461 l 528 456 l 529 453 l 531 446 z m 481 483 l 479 482 l 478 479 l 478 476 l 479 476 l 481 475 l 482 475 l 485 476 l 486 478 l 489 478 l 490 481 l 490 482 l 489 483 l 485 483 l 483 485 z m 478 447 l 486 444 l 490 444 l 492 447 l 492 449 l 490 453 l 489 456 l 486 460 l 482 463 l 478 461 l 475 461 l 474 460 l 474 457 l 472 453 z m 567 443 l 563 442 l 557 440 l 561 438 l 564 435 l 569 431 l 572 429 l 575 429 l 582 432 l 592 433 l 592 436 l 593 438 l 593 439 l 594 443 l 596 449 l 593 450 l 586 456 l 579 450 l 569 443 z m 517 438 l 518 439 l 518 440 l 521 446 l 522 447 l 524 450 l 521 453 l 518 453 l 515 450 l 515 449 l 514 446 l 514 438 l 511 429 l 510 426 l 511 426 l 514 431 l 517 436 z m 453 444 l 450 444 l 447 443 l 447 438 l 450 436 l 454 436 l 457 438 l 454 442 z m 124 440 l 122 435 l 126 432 l 126 438 l 125 442 z m 444 421 l 444 426 l 446 431 l 439 435 l 435 428 l 433 422 l 436 418 z m 601 425 l 596 429 l 590 428 l 588 422 l 583 418 l 583 417 l 581 414 l 578 410 l 579 407 l 582 406 l 583 407 l 592 411 l 596 414 l 599 419 l 600 424 z m 549 415 l 549 414 l 546 408 l 546 407 l 550 404 l 554 406 l 557 406 l 561 410 l 564 415 l 558 418 l 553 417 z m 207 411 l 208 411 l 208 415 l 207 417 l 206 417 l 204 415 l 206 413 z m 322 411 l 314 410 l 313 407 l 315 403 l 319 403 l 325 404 l 329 406 l 325 408 z m 614 399 l 614 404 l 613 406 l 608 408 l 606 410 l 604 411 l 601 410 l 600 407 l 601 406 l 603 403 l 606 400 l 606 399 l 611 394 l 614 393 l 615 392 l 615 394 z m 172 403 l 171 407 l 168 408 l 164 404 l 163 399 l 167 396 l 171 397 l 176 394 l 176 400 z m 435 404 l 435 399 l 442 396 l 451 396 l 443 403 z m 543 386 l 551 389 l 557 383 l 563 382 l 565 381 l 567 379 l 569 374 l 575 372 l 579 372 l 581 376 l 583 381 l 581 386 l 581 388 l 578 393 l 575 397 l 572 400 l 571 403 l 563 401 l 556 397 l 554 396 l 549 392 z m 211 394 l 208 393 l 204 394 l 203 397 l 200 397 l 199 396 l 199 393 l 200 390 l 204 389 l 208 390 l 214 392 l 218 388 l 225 388 l 225 389 l 218 394 z m 392 390 l 392 392 l 390 394 l 388 397 l 389 393 z m 588 369 l 590 365 l 593 363 l 593 361 l 597 360 l 600 360 l 603 368 l 597 376 l 597 381 l 596 383 l 597 388 l 597 390 l 594 394 l 592 396 l 586 390 l 588 386 l 589 383 l 588 378 z m 611 376 l 611 379 l 610 376 l 606 372 l 607 371 l 607 369 l 608 367 l 611 368 l 611 369 l 613 371 l 613 374 z m 372 365 l 369 365 l 367 364 l 364 358 l 365 357 l 368 356 l 369 356 l 372 357 l 375 360 l 375 364 l 374 364 z m 625 364 l 625 365 l 622 361 l 621 357 l 621 353 l 619 347 l 622 344 l 624 346 l 625 346 l 626 351 l 628 356 l 626 361 z m 585 339 l 583 343 l 583 346 l 581 351 l 576 357 l 574 358 l 569 360 l 567 361 l 564 364 l 558 358 l 558 354 l 553 351 l 549 351 l 547 349 l 546 344 l 544 342 l 543 340 l 540 336 l 539 335 l 536 333 l 533 333 l 529 331 l 531 329 l 531 328 l 533 325 l 538 325 l 540 329 l 544 331 l 547 332 l 550 335 l 550 338 l 558 339 l 565 340 l 576 336 z m 419 358 l 419 361 l 418 363 l 417 363 l 415 361 l 414 361 l 413 358 l 411 357 l 411 350 l 413 350 l 414 349 l 417 350 l 419 353 l 421 356 z m 603 343 l 601 344 l 593 344 l 589 340 l 586 339 l 585 338 l 583 335 l 582 329 l 581 322 l 579 321 l 585 311 l 589 303 l 593 308 l 596 313 l 597 314 l 600 319 l 604 325 l 604 326 l 606 331 l 607 336 l 604 340 z m 315 331 l 314 329 l 314 326 l 317 326 l 317 329 z m 264 328 l 254 328 l 253 326 l 253 324 l 257 322 l 260 318 l 261 314 l 265 313 l 271 315 l 271 319 l 272 324 z m 194 325 l 192 324 l 190 322 l 190 319 l 196 319 l 197 321 l 197 324 z m 557 303 l 561 297 l 561 300 l 563 304 l 563 311 l 558 315 l 553 319 l 547 319 l 546 318 l 549 313 l 551 308 z m 307 294 l 306 297 l 303 299 l 304 296 z m 564 289 l 564 285 l 563 281 l 551 275 l 553 274 l 554 268 l 557 260 l 561 258 l 564 261 l 567 267 l 571 271 l 572 274 l 568 282 z m 257 282 l 254 282 l 253 278 l 253 274 l 257 274 l 261 278 l 260 281 z m 215 272 l 211 278 l 207 278 l 207 274 l 211 271 l 211 269 l 213 268 l 213 264 l 215 261 l 218 264 l 218 268 z m 526 254 l 525 257 l 522 257 l 517 251 l 514 244 l 524 246 z m 249 246 l 244 242 l 240 240 l 243 235 l 249 235 l 256 243 l 251 253 z m 481 253 l 479 244 l 475 238 l 476 232 l 486 233 l 492 243 l 493 250 l 489 253 z m 446 218 l 436 217 l 431 208 l 440 206 l 449 211 l 449 215 z m 301 203 l 300 199 l 300 196 l 301 192 l 306 192 l 308 196 l 306 200 z m 271 197 l 268 201 l 261 201 l 268 197 l 267 193 l 269 190 l 271 193 z m 463 193 l 464 185 l 467 183 l 469 183 l 471 192 l 467 200 z m 528 193 l 522 194 l 519 193 l 518 189 l 519 186 l 524 186 l 529 189 l 528 190 z m 425 169 l 421 168 l 419 164 l 419 161 l 422 160 l 426 161 l 429 165 l 429 168 z m 397 156 l 394 154 l 393 154 l 392 150 l 394 147 l 399 144 l 401 144 l 403 146 l 404 150 l 401 153 z m 404 96 l 401 100 l 396 100 l 396 99 l 394 97 l 394 94 l 397 93 l 399 94 l 400 94 l 401 96 z "},"y":{"ha":1099,"x_min":0,"x_max":0,"o":"m 749 474 l 771 465 l 765 440 l 747 415 l 713 404 l 697 404 l 664 396 l 647 393 l 628 396 l 611 393 l 625 392 l 638 389 l 653 392 l 672 388 l 701 385 l 717 392 l 738 389 l 753 392 l 771 390 l 786 389 l 801 394 l 836 397 l 853 396 l 865 394 l 882 389 l 897 390 l 917 393 l 931 392 l 950 388 l 982 383 l 1000 386 l 1028 372 l 1029 347 l 1014 336 l 982 331 l 965 331 l 951 328 l 936 319 l 919 325 l 900 318 l 885 314 l 872 313 l 856 313 l 843 306 l 846 278 l 826 254 l 811 228 l 819 210 l 804 190 l 792 175 l 771 164 l 765 153 l 771 131 l 758 111 l 742 103 l 728 97 l 713 90 l 697 88 l 681 79 l 660 69 l 629 75 l 617 83 l 600 81 l 581 89 l 565 90 l 547 96 l 533 104 l 514 106 l 499 117 l 485 117 l 467 119 l 449 124 l 432 133 l 403 136 l 388 122 l 369 114 l 354 118 l 340 115 l 324 110 l 288 114 l 275 111 l 257 115 l 242 111 l 221 111 l 206 107 l 188 110 l 154 110 l 142 108 l 124 106 l 107 110 l 88 122 l 79 158 l 75 174 l 72 185 l 74 204 l 71 226 l 72 239 l 69 260 l 71 276 l 75 289 l 78 311 l 76 322 l 85 338 l 88 361 l 108 371 l 126 378 l 143 378 l 163 374 l 178 375 l 192 378 l 208 376 l 226 379 l 244 379 l 260 374 l 275 376 l 293 378 l 310 382 l 328 378 l 339 378 l 363 369 l 382 364 l 408 383 l 421 389 l 433 403 l 450 411 l 460 421 l 472 431 l 490 440 l 504 449 l 515 456 l 565 479 l 583 478 l 594 475 l 610 474 l 628 478 l 653 479 l 683 474 l 697 472 l 736 475 z m 214 346 l 208 344 l 208 340 l 214 342 l 219 344 z m 432 336 l 433 338 l 433 340 l 429 342 l 425 340 l 421 340 l 417 343 l 414 340 l 415 336 l 422 335 l 428 333 z m 363 328 l 364 328 l 365 331 l 363 336 l 360 333 l 360 329 z m 460 308 l 471 308 l 476 321 l 474 326 l 468 325 l 467 324 l 467 321 l 465 314 z m 269 324 l 265 321 l 264 314 l 265 313 l 271 313 l 276 310 l 282 313 l 276 317 l 275 322 z m 529 318 l 531 321 l 526 322 l 524 319 l 515 324 l 519 318 z m 442 293 l 440 297 l 436 294 l 433 292 l 433 288 l 436 286 l 439 286 l 442 290 z m 290 288 l 292 285 l 294 285 l 299 282 l 299 278 l 303 271 l 310 265 l 311 267 l 311 268 l 308 274 l 303 278 l 301 282 l 300 288 l 297 292 l 293 292 l 290 290 z m 535 283 l 539 281 l 544 281 l 547 285 l 546 289 l 540 289 z m 790 281 l 788 281 l 786 278 l 786 274 l 788 272 l 792 272 l 794 274 l 794 275 l 793 278 z m 276 275 l 275 275 l 274 272 l 274 271 l 276 269 l 278 271 l 281 272 l 279 274 z m 390 271 l 386 271 l 386 268 l 388 265 l 392 258 l 396 254 l 400 251 l 403 256 l 407 258 l 407 264 l 404 268 l 400 267 l 393 268 z m 740 258 l 739 254 l 746 247 l 749 249 l 750 251 l 750 253 l 747 256 l 743 258 z m 446 232 l 443 235 l 439 235 l 442 232 z m 408 207 l 411 206 l 415 204 l 421 206 l 422 210 l 424 221 l 426 231 l 422 233 l 417 225 l 410 215 l 407 211 z m 732 226 l 735 228 l 736 231 l 735 233 l 732 233 l 729 232 l 726 229 l 728 225 l 731 225 z m 539 188 l 542 194 l 538 199 l 535 200 l 533 201 l 528 213 l 522 218 l 518 221 l 517 222 l 517 229 l 511 224 l 507 222 l 504 219 l 501 218 l 499 210 l 500 203 l 501 201 l 506 200 l 507 200 l 514 196 l 518 193 l 519 193 l 522 190 l 526 188 z m 478 207 l 481 206 l 483 203 l 486 206 l 489 211 l 490 213 l 488 219 l 485 222 l 481 224 l 476 219 l 475 217 l 474 215 l 475 211 z m 422 154 l 418 153 l 418 149 l 422 144 l 428 146 l 443 143 l 443 151 l 436 157 l 438 171 l 446 182 l 443 188 l 451 199 l 465 213 l 467 218 l 464 222 l 458 221 l 456 218 l 449 215 l 424 199 l 419 193 l 418 182 l 419 181 l 425 176 l 425 174 l 428 171 l 426 169 l 426 160 z m 679 190 l 682 189 l 686 192 l 686 193 l 688 197 l 688 203 l 689 204 l 686 210 l 685 214 l 683 215 l 683 214 l 679 210 l 678 204 l 676 203 l 676 200 l 678 196 l 678 193 z m 140 197 l 139 197 l 138 196 l 143 197 l 147 199 l 149 199 l 151 201 l 151 203 l 144 201 l 140 199 z m 357 201 l 351 196 l 349 189 l 351 181 l 358 179 l 365 183 l 367 193 l 364 199 z m 490 185 l 489 179 l 486 174 l 486 168 l 489 168 l 490 167 l 492 168 l 493 171 l 497 175 l 500 186 l 501 188 l 501 190 l 499 192 l 496 194 l 493 189 z m 571 164 l 576 174 l 583 178 l 589 181 l 593 178 l 597 176 l 601 176 l 606 178 l 608 176 l 610 176 l 614 179 l 614 185 l 608 185 l 606 183 l 604 182 l 600 183 l 597 186 l 589 189 l 581 193 l 572 189 l 564 193 l 556 194 l 556 190 l 557 186 l 554 179 l 556 174 l 558 168 l 563 161 z m 476 189 l 467 192 l 457 193 l 461 188 l 464 182 l 465 171 l 465 163 l 471 161 l 475 160 l 481 168 l 481 169 l 482 171 l 479 181 z m 708 189 l 707 185 l 704 181 l 708 182 l 714 183 l 715 185 l 718 189 l 717 190 l 713 190 z m 517 186 l 514 185 l 511 182 l 513 179 l 514 175 l 518 175 l 522 176 l 524 175 l 524 174 l 526 172 l 529 168 l 531 165 l 539 163 l 540 165 l 540 169 l 538 178 l 536 178 l 533 179 l 529 181 l 528 182 l 524 182 l 521 185 z m 294 174 l 290 183 l 286 175 l 288 168 l 290 167 l 292 165 z m 239 171 l 244 169 l 247 169 l 249 172 l 246 176 l 242 179 l 238 179 l 238 176 z m 371 174 l 369 171 l 374 168 l 378 168 l 381 171 l 382 174 l 379 176 z m 331 174 l 326 169 l 328 165 l 332 163 l 335 165 l 335 167 l 333 171 z m 503 174 l 500 171 l 500 167 l 501 164 l 503 160 l 506 160 l 510 158 l 508 163 l 508 167 l 507 168 l 506 171 z m 193 168 l 192 167 l 192 164 l 193 160 l 196 158 l 199 158 l 203 160 l 203 164 l 199 167 l 197 168 z m 321 167 l 311 168 l 306 161 l 308 157 l 314 157 l 322 158 z m 410 165 l 404 164 l 403 158 l 406 154 l 408 151 l 415 161 l 414 165 z m 599 163 l 596 151 l 597 150 l 603 142 l 604 140 l 606 147 l 607 153 l 607 165 l 603 165 l 601 164 z m 669 160 l 672 154 l 681 154 l 685 157 l 683 160 l 683 164 l 681 164 l 678 165 l 676 164 l 669 164 z m 522 163 l 519 161 l 522 158 l 526 158 l 529 160 l 526 163 z m 563 160 l 553 160 l 547 153 l 549 144 l 556 139 l 567 135 l 574 133 l 579 131 l 579 133 l 578 140 l 578 150 l 571 154 z m 529 146 l 525 144 l 522 144 l 526 138 l 532 136 l 535 138 l 535 140 z m 238 133 l 236 129 l 236 126 l 239 125 l 244 131 l 243 133 l 242 135 z m 657 135 l 657 133 l 656 132 l 657 131 l 657 129 l 661 128 l 667 128 l 668 131 l 671 135 z m 611 126 l 610 129 l 607 132 l 607 124 l 608 115 l 617 111 l 624 110 l 626 108 l 629 110 l 631 111 l 626 119 l 624 128 l 622 128 l 618 126 z m 726 125 l 724 122 l 725 119 l 725 117 l 731 117 l 732 118 l 735 124 l 736 125 l 736 129 l 735 132 l 733 132 l 732 131 l 731 131 l 728 128 z "},"z":{"ha":1099,"x_min":0,"x_max":0,"o":"m 350 474 l 363 475 l 401 472 l 415 474 l 446 479 l 471 478 l 489 474 l 504 475 l 515 478 l 533 479 l 583 456 l 594 449 l 608 440 l 626 431 l 639 421 l 649 411 l 665 403 l 678 389 l 690 383 l 717 364 l 736 369 l 760 378 l 771 378 l 789 382 l 806 378 l 824 376 l 839 374 l 854 379 l 872 379 l 890 376 l 907 378 l 921 375 l 936 374 l 956 378 l 972 378 l 990 371 l 1011 361 l 1014 338 l 1022 322 l 1021 311 l 1024 289 l 1028 276 l 1029 260 l 1026 239 l 1028 226 l 1025 204 l 1026 185 l 1024 174 l 1019 158 l 1011 122 l 992 110 l 975 106 l 957 108 l 944 110 l 911 110 l 893 107 l 878 111 l 857 111 l 842 115 l 824 111 l 811 114 l 775 110 l 758 115 l 744 118 l 729 114 l 711 122 l 696 136 l 667 133 l 650 124 l 632 119 l 614 117 l 600 117 l 585 106 l 565 104 l 551 96 l 533 90 l 518 89 l 499 81 l 482 83 l 469 75 l 439 69 l 418 79 l 401 88 l 386 90 l 371 97 l 357 103 l 340 111 l 328 131 l 333 153 l 328 164 l 307 175 l 294 190 l 279 210 l 288 228 l 272 254 l 253 278 l 256 306 l 243 313 l 226 313 l 214 314 l 199 318 l 179 325 l 163 319 l 147 328 l 133 331 l 117 331 l 85 336 l 69 347 l 71 372 l 99 386 l 117 383 l 149 388 l 168 392 l 182 393 l 201 390 l 217 389 l 233 394 l 246 396 l 263 397 l 297 394 l 313 389 l 328 390 l 346 392 l 361 389 l 382 392 l 397 385 l 426 388 l 446 392 l 461 389 l 474 392 l 488 393 l 471 396 l 451 393 l 435 396 l 401 404 l 386 404 l 351 415 l 333 440 l 328 465 z m 885 346 l 879 344 l 885 342 l 890 340 l 890 344 z m 667 336 l 671 333 l 676 335 l 683 336 l 685 340 l 682 343 l 678 340 l 674 340 l 669 342 l 665 340 l 665 338 z m 736 328 l 739 329 l 739 333 l 736 336 l 733 331 l 735 328 z m 639 308 l 633 314 l 632 321 l 632 324 l 631 325 l 625 326 l 622 321 l 628 308 z m 579 318 l 583 324 l 575 319 l 572 322 l 568 321 l 569 318 z m 829 324 l 824 322 l 822 317 l 817 313 l 822 310 l 828 313 l 833 313 l 835 314 l 833 321 z m 657 293 l 657 290 l 660 286 l 663 286 l 665 288 l 665 292 l 663 294 l 658 297 z m 808 288 l 808 290 l 806 292 l 801 292 l 799 288 l 797 282 l 796 278 l 790 274 l 788 268 l 788 267 l 789 265 l 796 271 l 800 278 l 800 282 l 804 285 l 807 285 z m 564 283 l 558 289 l 553 289 l 551 285 l 554 281 l 560 281 z m 308 281 l 306 278 l 304 275 l 304 274 l 307 272 l 311 272 l 313 274 l 313 278 l 311 281 z m 822 275 l 819 274 l 818 272 l 821 271 l 822 269 l 825 271 l 825 272 l 824 275 z m 708 271 l 706 268 l 699 267 l 694 268 l 692 264 l 692 258 l 696 256 l 699 251 l 703 254 l 707 258 l 711 265 l 713 268 l 713 271 z m 356 258 l 351 256 l 349 253 l 349 251 l 350 249 l 353 247 l 360 254 l 358 258 z m 653 232 l 657 232 l 660 235 l 656 235 z m 367 226 l 368 225 l 371 225 l 372 229 l 369 232 l 367 233 l 364 233 l 363 231 l 364 228 z m 690 207 l 692 211 l 689 215 l 682 225 l 676 233 l 672 231 l 675 221 l 676 210 l 678 206 l 683 204 l 688 206 z m 572 188 l 576 190 l 579 193 l 581 193 l 585 196 l 592 200 l 593 200 l 597 201 l 599 203 l 600 210 l 597 218 l 594 219 l 592 222 l 588 224 l 582 229 l 582 222 l 581 221 l 576 218 l 571 213 l 565 201 l 564 200 l 561 199 l 557 194 l 560 188 z m 621 207 l 624 211 l 625 215 l 624 217 l 622 219 l 618 224 l 614 222 l 611 219 l 608 213 l 610 211 l 613 206 l 615 203 l 618 206 z m 676 154 l 672 160 l 672 169 l 671 171 l 674 174 l 674 176 l 679 181 l 681 182 l 679 193 l 675 199 l 650 215 l 643 218 l 640 221 l 635 222 l 632 218 l 633 213 l 647 199 l 656 188 l 653 182 l 661 171 l 663 157 l 656 151 l 656 143 l 671 146 l 676 144 l 681 149 l 681 153 z m 419 190 l 421 193 l 421 196 l 422 200 l 422 203 l 421 204 l 419 210 l 415 214 l 415 215 l 414 214 l 413 210 l 410 204 l 411 203 l 411 197 l 413 193 l 413 192 l 417 189 z m 958 197 l 958 199 l 954 201 l 947 203 l 947 201 l 950 199 l 951 199 l 956 197 l 961 196 l 960 197 z m 742 201 l 735 199 l 732 193 l 733 183 l 740 179 l 747 181 l 750 189 l 747 196 z m 528 164 l 536 161 l 540 168 l 543 174 l 544 179 l 542 186 l 543 190 l 543 194 l 535 193 l 526 189 l 518 193 l 510 189 l 501 186 l 499 183 l 494 182 l 493 183 l 490 185 l 485 185 l 485 179 l 489 176 l 490 176 l 493 178 l 497 176 l 501 176 l 506 178 l 510 181 l 515 178 l 522 174 z m 608 185 l 606 189 l 603 194 l 600 192 l 597 190 l 597 188 l 599 186 l 601 175 l 606 171 l 607 168 l 608 167 l 610 168 l 613 168 l 613 174 l 610 179 z m 622 189 l 619 181 l 617 171 l 618 169 l 618 168 l 624 160 l 628 161 l 633 163 l 633 171 l 635 182 l 638 188 l 642 193 l 632 192 z m 390 189 l 386 190 l 382 190 l 381 189 l 383 185 l 385 183 l 390 182 l 394 181 l 392 185 z m 582 186 l 578 185 l 575 182 l 571 182 l 569 181 l 565 179 l 563 178 l 561 178 l 558 169 l 558 165 l 560 163 l 568 165 l 569 168 l 572 172 l 575 174 l 575 175 l 576 176 l 581 175 l 585 175 l 586 179 l 588 182 l 585 185 z m 804 174 l 807 165 l 808 167 l 811 168 l 813 175 l 808 183 z m 860 171 l 861 176 l 861 179 l 857 179 l 853 176 l 850 172 l 851 169 l 854 169 z m 719 176 l 717 174 l 718 171 l 721 168 l 725 168 l 729 171 l 728 174 z m 596 174 l 593 171 l 592 168 l 590 167 l 590 163 l 589 158 l 593 160 l 596 160 l 597 164 l 599 167 l 599 171 z m 768 174 l 765 171 l 764 167 l 764 165 l 767 163 l 771 165 l 772 169 z m 778 167 l 776 158 l 785 157 l 790 157 l 793 161 l 788 168 z m 906 168 l 901 168 l 900 167 l 896 164 l 896 160 l 900 158 l 903 158 l 906 160 l 907 164 l 907 167 z m 429 160 l 429 164 l 422 164 l 421 165 l 418 164 l 415 164 l 415 160 l 414 157 l 418 154 l 426 154 z m 500 163 l 497 164 l 496 165 l 492 165 l 492 153 l 493 147 l 494 140 l 496 142 l 501 150 l 503 151 z m 689 165 l 685 165 l 683 161 l 690 151 l 693 154 l 696 158 l 694 164 z m 572 163 l 569 160 l 572 158 l 576 158 l 579 161 l 576 163 z m 536 160 l 528 154 l 521 150 l 521 140 l 519 133 l 519 131 l 525 133 l 532 135 l 543 139 l 550 144 l 551 153 l 546 160 z m 569 146 l 564 140 l 564 138 l 567 136 l 572 138 l 576 144 l 574 144 z m 442 135 l 428 135 l 431 131 l 432 128 l 438 128 l 442 129 l 442 131 l 443 132 l 442 133 z m 861 133 l 857 135 l 856 133 l 854 131 l 860 125 l 863 126 l 863 129 z m 372 125 l 371 128 l 368 131 l 367 131 l 365 132 l 364 132 l 363 129 l 363 125 l 364 124 l 367 118 l 368 117 l 374 117 l 374 119 l 375 122 z m 488 126 l 481 126 l 476 128 l 475 128 l 472 119 l 468 111 l 469 110 l 472 108 l 475 110 l 482 111 l 490 115 l 492 124 l 492 132 l 489 129 z "}," ":{"ha":833,"x_min":0,"x_max":0,"o":""}}}
